<?xml version="1.0" standalone="no"?>
<!DOCTYPE svg PUBLIC "-//W3C//DTD SVG 1.1//EN" "http://www.w3.org/Graphics/SVG/1.1/DTD/svg11.dtd" >
<svg xmlns="http://www.w3.org/2000/svg" xmlns:xlink="http://www.w3.org/1999/xlink" version="1.1">
<metadata>
Created by FontForge 20200427 at Wed Apr 25 23:03:21 2012
 By www
(C) 2012. Olivier Gourvat - Mostardesign Studio. wf-rip
</metadata>
<defs>
<font id="SofiaPro-Regular" horiz-adv-x="1187" >
  <font-face 
    font-family="Sofia Pro"
    font-weight="400"
    font-stretch="normal"
    units-per-em="2048"
    panose-1="2 11 0 0 0 0 0 0 0 0"
    ascent="1536"
    descent="-512"
    x-height="956"
    cap-height="1411"
    bbox="-352 -514 2337 2234"
    underline-thickness="102"
    underline-position="-204"
    unicode-range="U+0020-FB04"
  />
<missing-glyph horiz-adv-x="1300" 
d="M164 0v1362h973v-1362h-973zM379 883h127q0 76 43 123t108 47t114.5 -42t49.5 -108q0 -60 -49 -102q-32 -35 -67 -43q-92 -28 -141.5 -79t-49.5 -147v-77h127v77q0 46 25.5 67.5t76.5 35.5q88 28 145.5 99t57.5 169q0 123 -85 200t-204 77q-117 0 -197.5 -82t-80.5 -215z
M485 268q0 -38 28 -63t67 -25q38 0 65 25t27 63t-27 63t-65 25q-39 0 -67 -25t-28 -63z" />
    <glyph glyph-name="uniFB00" unicode="ff" horiz-adv-x="1447" 
d="M55 799v157h185v97q0 198 90 311t276 113h105v-179h-105q-55 0 -92.5 -20t-55.5 -57t-24.5 -77t-5.5 -91v-97h557v97q0 198 90.5 311t276.5 113h104v-179h-104q-55 0 -92.5 -20t-55.5 -57t-24.5 -77t-5.5 -91v-97h221v-157h-221v-799h-189v799h-557v-799h-188v799h-185z
" />
    <glyph glyph-name="uniFB01" unicode="fi" horiz-adv-x="1292" 
d="M55 799v157h185v97q0 198 90 311t276 113h105v-179h-105q-55 0 -92.5 -20t-55.5 -57t-24.5 -77t-5.5 -91v-97h713v-956h-185v799h-528v-799h-188v799h-185zM920 1309q0 52 38 86.5t91 34.5q54 0 91.5 -34.5t37.5 -86.5t-37.5 -86.5t-91.5 -34.5q-53 0 -91 34.5t-38 86.5z
" />
    <glyph glyph-name="uniFB02" unicode="fl" horiz-adv-x="1261" 
d="M55 799v157h185v97q0 198 90 311t276 113h500v-1477h-186v1298h-314q-55 0 -92.5 -20t-55.5 -57t-24.5 -77t-5.5 -91v-97h221v-157h-221v-799h-188v799h-185z" />
    <glyph glyph-name="uniFB03" unicode="ffi" horiz-adv-x="2037" 
d="M55 799v157h185v97q0 198 90 311t276 113h105v-179h-105q-55 0 -92.5 -20t-55.5 -57t-24.5 -77t-5.5 -91v-97h557v97q0 198 90.5 311t276.5 113h104v-179h-104q-55 0 -92.5 -20t-55.5 -57t-24.5 -77t-5.5 -91v-97h712v-956h-184v799h-528v-799h-189v799h-557v-799h-188
v799h-185zM1665 1309q0 52 38 86.5t91 34.5q54 0 91.5 -34.5t37.5 -86.5t-37.5 -86.5t-91.5 -34.5q-53 0 -91 34.5t-38 86.5z" />
    <glyph glyph-name="uniFB04" unicode="ffl" horiz-adv-x="2007" 
d="M55 799v157h185v97q0 198 90 311t276 113h105v-179h-105q-55 0 -92.5 -20t-55.5 -57t-24.5 -77t-5.5 -91v-97h557v97q0 198 90.5 311t276.5 113h499v-1477h-186v1298h-313q-55 0 -92.5 -20t-55.5 -57t-24.5 -77t-5.5 -91v-97h221v-157h-221v-799h-189v799h-557v-799h-188
v799h-185z" />
    <glyph glyph-name="f_f_j" unicode="ffj" horiz-adv-x="2021" 
d="M55 799v157h185v97q0 198 90 311t276 113h105v-179h-105q-55 0 -92.5 -20t-55.5 -57t-24.5 -77t-5.5 -91v-97h557v97q0 198 90.5 311t276.5 113h104v-179h-104q-55 0 -92.5 -20t-55.5 -57t-24.5 -77t-5.5 -91v-97h696v-1015q0 -410 -344 -410h-127v174h110q45 0 78 15
t51 37t28 55.5t13 63.5t2 67v856h-507v-799h-189v799h-557v-799h-188v799h-185zM1647 1309q0 52 38 86.5t91 34.5q54 0 91.5 -34.5t37.5 -86.5t-37.5 -86.5t-91.5 -34.5q-53 0 -91 34.5t-38 86.5z" />
    <glyph glyph-name="f_j" unicode="fj" horiz-adv-x="1275" 
d="M55 799v157h185v97q0 198 90 311t276 113h105v-179h-105q-55 0 -92.5 -20t-55.5 -57t-24.5 -77t-5.5 -91v-97h696v-1015q0 -410 -344 -410h-127v174h111q45 0 78 15t51 37t28 55.5t13 63.5t2 67v856h-508v-799h-188v799h-185zM901 1309q0 52 38 86.5t91 34.5
q54 0 91.5 -34.5t37.5 -86.5t-37.5 -86.5t-91.5 -34.5q-53 0 -91 34.5t-38 86.5z" />
    <glyph glyph-name=".notdef" horiz-adv-x="1300" 
d="M164 0v1362h973v-1362h-973zM379 883h127q0 76 43 123t108 47t114.5 -42t49.5 -108q0 -60 -49 -102q-32 -35 -67 -43q-92 -28 -141.5 -79t-49.5 -147v-77h127v77q0 46 25.5 67.5t76.5 35.5q88 28 145.5 99t57.5 169q0 123 -85 200t-204 77q-117 0 -197.5 -82t-80.5 -215z
M485 268q0 -38 28 -63t67 -25q38 0 65 25t27 63t-27 63t-65 25q-39 0 -67 -25t-28 -63z" />
    <glyph glyph-name=".null" horiz-adv-x="0" 
 />
    <glyph glyph-name="nonmarkingreturn" horiz-adv-x="682" 
 />
    <glyph glyph-name="space" unicode=" " horiz-adv-x="532" 
 />
    <glyph glyph-name="exclam" unicode="!" horiz-adv-x="540" 
d="M135 106q0 55 39 92.5t94 37.5q56 0 95.5 -37.5t39.5 -92.5t-39.5 -90.5t-95.5 -35.5q-55 0 -94 35.5t-39 90.5zM178 1411h184l-18 -1032h-145z" />
    <glyph glyph-name="quotedbl" unicode="&#x22;" horiz-adv-x="727" 
d="M154 821v590h145v-590h-145zM428 821v590h145v-590h-145z" />
    <glyph glyph-name="numbersign" unicode="#" horiz-adv-x="1343" 
d="M74 348l47 174h213l96 359h-209l45 174h213l99 356h178l-99 -356h220l98 356h178l-98 -356h215l-47 -174h-217l-99 -359h215l-47 -174h-215l-100 -348h-176l98 348h-219l-101 -348h-174l99 348h-213zM510 522h219l98 359h-219z" />
    <glyph glyph-name="dollar" unicode="$" horiz-adv-x="1150" 
d="M96 408h191q2 -97 88.5 -173.5t214.5 -76.5q127 0 199 59.5t85 147.5q8 104 -61 166t-178 85l-182 46q-344 87 -344 368q0 161 118.5 269t288.5 124v205h127v-207q168 -22 272.5 -131t104.5 -276h-191q0 104 -74.5 167.5t-191.5 63.5q-107 0 -185.5 -59.5t-78.5 -153.5
q0 -147 201 -196l184 -45q201 -52 299.5 -164.5t77.5 -278.5q-18 -148 -129.5 -250.5t-288.5 -115.5v-226h-127v228q-184 23 -302 145.5t-118 278.5z" />
    <glyph glyph-name="percent" unicode="%" horiz-adv-x="1396" 
d="M78 1104q0 115 78.5 194.5t193.5 79.5q114 0 194.5 -80t80.5 -194q0 -115 -80 -194t-195 -79t-193.5 78.5t-78.5 194.5zM221 1104q0 -56 36.5 -92.5t92.5 -36.5q55 0 93 37t38 92q0 54 -38.5 92.5t-92.5 38.5q-55 0 -92 -38t-37 -93zM281 0l673 1378h136l-674 -1378h-135
zM774 252q0 114 79 194t194 80q114 0 194 -80t80 -194q0 -115 -79.5 -193.5t-194.5 -78.5q-116 0 -194.5 78.5t-78.5 193.5zM918 252q0 -56 37 -92.5t92 -36.5t93 37t38 92q0 54 -38.5 92.5t-92.5 38.5q-55 0 -92 -38t-37 -93z" />
    <glyph glyph-name="ampersand" unicode="&#x26;" horiz-adv-x="1345" 
d="M113 432q0 114 55.5 212.5t153.5 160.5q-49 45 -75 112t-26 142q0 147 106 249.5t261 102.5q105 0 195.5 -55t144.5 -146l-152 -94q-31 54 -81 85.5t-107 31.5q-82 0 -135.5 -49.5t-53.5 -124.5q0 -76 52 -135.5t129 -59.5h276v183h176v-185h178v-149h-178v-281
q0 -64 8 -109.5t29.5 -86.5t65 -61.5t110.5 -20.5v-172q-112 0 -197 41.5t-126 109.5q-53 -72 -147 -111.5t-202 -39.5q-201 0 -330.5 129t-129.5 321zM291 432q0 -117 78 -194.5t204 -77.5q120 0 199 74t84 186v293h-281q-120 0 -202 -84.5t-82 -196.5z" />
    <glyph glyph-name="quotesingle" unicode="'" horiz-adv-x="452" 
d="M154 821v590h145v-590h-145z" />
    <glyph glyph-name="parenleft" unicode="(" horiz-adv-x="743" 
d="M100 475q0 292 69.5 508t196.5 330t296 114v-182q-176 0 -282 -208.5t-106 -561.5t106 -561.5t282 -208.5v-182q-169 0 -296 114t-196.5 330t-69.5 508z" />
    <glyph glyph-name="parenright" unicode=")" horiz-adv-x="743" 
d="M82 -295q176 0 281.5 208.5t105.5 561.5t-105.5 561.5t-281.5 208.5v182q256 0 408.5 -256t152.5 -696t-152.5 -696t-408.5 -256v182z" />
    <glyph glyph-name="asterisk" unicode="*" horiz-adv-x="956" 
d="M106 1102l27 78q3 13 12.5 37t12.5 34l256 -100l-17 276h162l-18 -276q35 13 127 49t133 51l47 -149l-266 -72l178 -221l-127 -88l-150 227l-159 -231l-123 94l174 215z" />
    <glyph glyph-name="plus" unicode="+" horiz-adv-x="1062" 
d="M111 446v179h331v331h179v-331h331v-179h-331v-333h-179v333h-331z" />
    <glyph glyph-name="comma" unicode="," horiz-adv-x="526" 
d="M35 -215q144 200 139 451h197q-13 -176 -71.5 -304.5t-133.5 -189.5z" />
    <glyph glyph-name="hyphen" unicode="-" horiz-adv-x="995" 
d="M141 389v178h713v-178h-713z" />
    <glyph glyph-name="period" unicode="." horiz-adv-x="544" 
d="M139 106q0 55 39 92.5t94 37.5q56 0 96 -37.5t40 -92.5t-39.5 -90.5t-96.5 -35.5q-55 0 -94 35.5t-39 90.5z" />
    <glyph glyph-name="slash" unicode="/" horiz-adv-x="1026" 
d="M63 0l697 1411h203l-697 -1411h-203z" />
    <glyph glyph-name="zero" unicode="0" horiz-adv-x="1239" 
d="M135 666q0 100 9.5 184t31 163.5t58.5 140t89.5 106.5t128 70t169.5 24q113 0 198.5 -35.5t139 -96t86.5 -150.5t46 -187.5t13 -218.5q0 -120 -13 -216.5t-46 -186t-86.5 -150t-139 -96t-198.5 -35.5q-112 0 -198 35.5t-140 96t-87.5 149.5t-47 186.5t-13.5 216.5z
M319 666q0 -88 8 -159t29 -136.5t54 -110t86.5 -70.5t124.5 -26t124 26.5t86.5 70.5t54 109.5t28.5 136.5t8 159q0 89 -8 160t-28.5 137t-54 110t-86.5 70t-124 26t-124.5 -26t-86.5 -70t-54 -110t-29 -137t-8 -160z" />
    <glyph glyph-name="one" unicode="1" horiz-adv-x="684" 
d="M86 1028v176l401 146v-1350h-184v1104z" />
    <glyph glyph-name="two" unicode="2" horiz-adv-x="1079" 
d="M106 1001q26 160 143.5 256.5t276.5 96.5q178 0 299 -111t121 -285q0 -181 -145 -346q-97 -113 -195.5 -230t-167.5 -198h510v-184h-825v82l543 657q98 116 98 219q0 95 -68.5 153t-169.5 58q-93 0 -160.5 -56.5t-80.5 -154.5z" />
    <glyph glyph-name="three" unicode="3" horiz-adv-x="1095" 
d="M88 262l162 88q32 -71 100.5 -124.5t147.5 -59.5q112 -6 199 58t91 161q3 96 -74.5 168t-183.5 72h-151v178h151q70 -1 121.5 43t63.5 110q15 85 -23 138q-22 32 -64 53t-91 24q-146 11 -234 -120l-137 108q56 97 160 150.5t227 46.5q162 -9 268 -118.5t101 -252.5
q0 -35 -13 -82q-38 -121 -145 -182q99 -37 159.5 -144t51.5 -217q-10 -111 -79.5 -201t-179 -137t-231.5 -38q-130 9 -237 85t-160 193z" />
    <glyph glyph-name="four" unicode="4" horiz-adv-x="1212" 
d="M53 274l742 1063h137v-888h192v-175h-192v-274h-182v274h-697zM367 449h383v557z" />
    <glyph glyph-name="five" unicode="5" horiz-adv-x="1155" 
d="M98 285l158 86q38 -99 115 -156t172 -57q160 0 240.5 76t80.5 196q0 123 -79.5 189.5t-196.5 66.5q-87 0 -157 -23.5t-175 -87.5l-115 95l117 665h713v-176h-561l-74 -379q45 33 118 55.5t134 22.5q126 0 228 -47.5t165 -146.5t63 -234q0 -205 -138 -327.5t-363 -122.5
q-140 0 -262 83t-183 222z" />
    <glyph glyph-name="six" unicode="6" horiz-adv-x="1138" 
d="M143 440q-18 254 23 506q30 185 154.5 299.5t304.5 108.5q60 -2 110 -14.5t101.5 -40t95 -79t76.5 -124.5l-164 -70q-38 78 -99 116t-129 38q-140 0 -222.5 -132t-63.5 -335q60 151 274 151q119 0 216.5 -65t149.5 -170t48 -223q-9 -183 -139 -307t-310 -117
q-179 8 -294 129.5t-132 328.5zM328 434q0 -111 72.5 -187t177.5 -79q105 -4 179 67t79 179q4 109 -64 185t-174 81q-107 3 -186.5 -68t-83.5 -178z" />
    <glyph glyph-name="seven" unicode="7" horiz-adv-x="1085" 
d="M102 0l637 1155h-612v182h924l-734 -1337h-215z" />
    <glyph glyph-name="eight" unicode="8" horiz-adv-x="1150" 
d="M115 418q0 111 54 205.5t148 152.5q-98 95 -98 236q0 143 102 242.5t254 99.5q153 0 257 -100t104 -242q0 -69 -28 -130.5t-77 -105.5q96 -59 150.5 -153t54.5 -205q0 -183 -133 -309.5t-328 -126.5q-196 0 -328 126t-132 310zM299 418q0 -107 79 -180.5t197 -73.5
t197.5 74t79.5 180t-80 182t-197 76h-14q-111 -3 -186.5 -79t-75.5 -179zM401 1012q0 -66 47 -113.5t117 -50.5h17q73 3 121.5 50.5t48.5 113.5t-51 111.5t-126 45.5q-73 0 -123.5 -45.5t-50.5 -111.5z" />
    <glyph glyph-name="nine" unicode="9" horiz-adv-x="1136" 
d="M119 928q9 183 138.5 307t309.5 117q179 -8 294 -130t132 -329q18 -259 -22 -506q-30 -185 -154.5 -299t-304.5 -108q-60 2 -110 14.5t-101.5 40t-95 79t-76.5 124.5l164 69q38 -77 98.5 -115t128.5 -38q140 0 223 132t64 335q-31 -78 -104 -115t-171 -37q-119 0 -216 65
t-149 170.5t-48 223.5zM301 920q-5 -109 63.5 -186t174.5 -81q107 -3 186.5 68t83.5 178q0 111 -72.5 187t-177.5 79q-105 4 -179 -66.5t-79 -178.5z" />
    <glyph glyph-name="colon" unicode=":" horiz-adv-x="550" 
d="M141 106q0 55 39.5 92.5t95.5 37.5q55 0 94.5 -37.5t39.5 -92.5q0 -54 -39.5 -90t-94.5 -36q-56 0 -95.5 35.5t-39.5 90.5zM141 850q0 55 39.5 91t95.5 36q55 0 94.5 -36t39.5 -91t-39.5 -92t-94.5 -37q-56 0 -95.5 37t-39.5 92z" />
    <glyph glyph-name="semicolon" unicode=";" horiz-adv-x="581" 
d="M59 -215q145 201 140 451h207q-11 -176 -70.5 -304t-134.5 -190zM170 850q0 55 38.5 91t94.5 36t95.5 -36t39.5 -91t-39.5 -92t-95.5 -37t-94.5 37t-38.5 92z" />
    <glyph glyph-name="less" unicode="&#x3c;" horiz-adv-x="1273" 
d="M96 461v178l1039 397v-198l-781 -287l781 -291v-194z" />
    <glyph glyph-name="equal" unicode="=" horiz-adv-x="1245" 
d="M152 225v178h942v-178h-942zM152 621v178h942v-178h-942z" />
    <glyph glyph-name="greater" unicode="&#x3e;" horiz-adv-x="1271" 
d="M139 63v197l779 291l-779 287v198l1037 -397v-178z" />
    <glyph glyph-name="question" unicode="?" horiz-adv-x="989" 
d="M88 999q0 191 117.5 309.5t286.5 118.5q172 0 295.5 -110.5t123.5 -288.5q0 -143 -84 -245.5t-211 -141.5q-74 -22 -109.5 -52.5t-35.5 -96.5l-4 -113h-180v113q0 72 20 127t59 92.5t85 61.5t110 44q67 19 117.5 80t50.5 131q0 96 -71 156.5t-166 60.5q-93 0 -160.5 -68
t-67.5 -178h-176zM244 109q0 55 39.5 92t95.5 37t94.5 -37t38.5 -92t-38.5 -91t-94.5 -36t-95.5 36t-39.5 91z" />
    <glyph glyph-name="at" unicode="@" horiz-adv-x="1986" 
d="M100 516q0 183 69 349t186.5 287t282 192t347.5 71q247 0 458.5 -111t338.5 -310.5t127 -442.5q0 -76 -12 -153t-41.5 -155.5t-72 -138t-110.5 -97.5t-151 -38q-60 0 -110 14.5t-92.5 47t-66.5 91.5t-24 140v264q0 112 -77 188.5t-187 76.5t-187.5 -76.5t-77.5 -188.5
q0 -108 78 -185t187 -77q104 0 202 98v-174q-96 -69 -202 -69q-169 0 -289.5 119.5t-120.5 287.5q0 170 120.5 290t289.5 120q163 0 282 -113q121 -115 127 -278v-297q0 -135 148 -135q56 0 100 30t69.5 75.5t42 107t22 116t5.5 109.5q0 153 -62.5 288t-168.5 229t-248 148
t-297 54q-154 0 -291.5 -59.5t-235.5 -161t-155 -240.5t-57 -293q0 -206 97 -377.5t266.5 -270.5t375.5 -99h47v-146h-47q-183 0 -347.5 70t-282 189.5t-186.5 284.5t-69 349z" />
    <glyph glyph-name="A" unicode="A" horiz-adv-x="1320" 
d="M23 0l536 1411h205l534 -1411h-200l-137 358h-599l-137 -358h-202zM428 530h467l-233 627z" />
    <glyph glyph-name="B" unicode="B" horiz-adv-x="1286" 
d="M193 0v1411h532q177 0 280 -98.5t103 -265.5q0 -99 -42.5 -179t-135.5 -116q113 -24 183.5 -127.5t70.5 -216.5q0 -111 -48.5 -203t-144 -148.5t-221.5 -56.5h-577zM385 178h377q100 0 162.5 69t62.5 163q0 92 -65 169.5t-166 77.5h-371v-479zM385 825h340q90 0 139 62
t49 153q0 92 -56 143.5t-152 51.5h-320v-410z" />
    <glyph glyph-name="C" unicode="C" horiz-adv-x="1398" 
d="M100 702q0 198 95 364.5t259.5 263.5t360.5 97q160 0 297.5 -63.5t233.5 -175.5l-144 -119q-75 81 -174.5 127.5t-212.5 46.5q-145 0 -265.5 -72.5t-189.5 -196.5t-69 -272q0 -147 69 -271t189.5 -195.5t265.5 -71.5q117 0 218 47.5t173 132.5l144 -121
q-95 -114 -234 -178.5t-301 -64.5q-147 0 -279.5 57t-228 154t-151.5 230.5t-56 280.5z" />
    <glyph glyph-name="D" unicode="D" horiz-adv-x="1482" 
d="M193 0v1411h546q147 0 268 -54.5t200.5 -150t123 -225t43.5 -279.5t-43.5 -278t-123.5 -222.5t-200.5 -148t-267.5 -53.5h-546zM383 178h356q107 0 192.5 40t140 111t83.5 166t29 207q0 151 -49 269.5t-151.5 190t-244.5 71.5h-356v-1055z" />
    <glyph glyph-name="E" unicode="E" horiz-adv-x="1157" 
d="M193 0v1411h835v-178h-645v-451h563v-178h-563v-426h666v-178h-856z" />
    <glyph glyph-name="F" unicode="F" horiz-adv-x="1077" 
d="M193 0v1411h823v-178h-633v-451h502v-178h-502v-604h-190z" />
    <glyph glyph-name="G" unicode="G" horiz-adv-x="1548" 
d="M100 702q0 198 94 364.5t258 263.5t361 97q137 0 260 -49t217 -137l-137 -127q-147 131 -340 131q-145 0 -265 -73t-188.5 -197.5t-68.5 -272.5t68.5 -272t188.5 -196t265 -72q192 0 317 104t134 277h-402v166h619q0 -362 -178 -545.5t-490 -183.5q-148 0 -280.5 57
t-227 154t-150 230.5t-55.5 280.5z" />
    <glyph glyph-name="H" unicode="H" horiz-adv-x="1449" 
d="M193 0v1411h190v-623h682v623h192v-1411h-192v614h-682v-614h-190z" />
    <glyph glyph-name="I" unicode="I" horiz-adv-x="575" 
d="M193 0v1411h190v-1411h-190z" />
    <glyph glyph-name="J" unicode="J" horiz-adv-x="575" 
d="M-205 -492l19 181q20 -7 68.5 -12t66.5 -5q85 0 141.5 38.5t79.5 97.5t23 137v1466h190v-1466q0 -77 -14.5 -143.5t-47.5 -125t-82 -100.5t-123 -66t-167 -24q-46 0 -154 22z" />
    <glyph glyph-name="K" unicode="K" horiz-adv-x="1183" 
d="M193 0v1411h190v-610l467 610h235l-542 -704l655 -707h-256l-559 602v-602h-190z" />
    <glyph glyph-name="L" unicode="L" horiz-adv-x="1013" 
d="M193 0v1411h190v-1233h575v-178h-765z" />
    <glyph glyph-name="M" unicode="M" horiz-adv-x="1912" 
d="M113 0l172 1411h174l497 -1036l498 1036h174l172 -1411h-188l-129 1061l-441 -905h-168l-444 905l-129 -1061h-188z" />
    <glyph glyph-name="N" unicode="N" horiz-adv-x="1400" 
d="M193 0v1411h188l637 -1055v1055h190v-1411h-182l-643 1063v-1063h-190z" />
    <glyph glyph-name="O" unicode="O" horiz-adv-x="1630" 
d="M100 702q0 198 94 364.5t258 263.5t361 97q198 0 363 -97t259.5 -263.5t94.5 -364.5q0 -147 -56 -280.5t-151 -230.5t-228.5 -154t-281.5 -57t-280.5 57t-227 154t-150 230.5t-55.5 280.5zM291 702q0 -148 68.5 -271.5t188.5 -195t265 -71.5q146 0 266.5 71.5t189 195
t68.5 271.5t-68.5 272t-189 196.5t-266.5 72.5q-145 0 -265 -72.5t-188.5 -196.5t-68.5 -272z" />
    <glyph glyph-name="P" unicode="P" horiz-adv-x="1241" 
d="M193 0v1411h563q108 0 191 -37.5t131.5 -101t73 -140.5t24.5 -163q0 -87 -24.5 -163.5t-73 -140t-131.5 -100.5t-191 -37h-371v-528h-192zM385 707h358q82 0 138.5 39t80 96.5t23.5 126.5q0 68 -22.5 126t-76.5 98t-132 40h-369v-526z" />
    <glyph glyph-name="Q" unicode="Q" horiz-adv-x="1630" 
d="M100 702q0 198 94 364.5t258 263.5t361 97q198 0 363 -97t259.5 -263.5t94.5 -364.5q0 -191 -90.5 -353.5t-245.5 -260.5l147 -233l-147 -91l-158 250q-103 -34 -223 -34q-148 0 -280.5 57t-227 154t-150 230.5t-55.5 280.5zM291 702q0 -214 138 -366t347 -164
q85 -6 156 8l-144 234l146 92l160 -258q113 71 178 190.5t65 263.5q0 148 -68.5 272t-189 196.5t-266.5 72.5q-145 0 -265 -72.5t-188.5 -196.5t-68.5 -272z" />
    <glyph glyph-name="R" unicode="R" horiz-adv-x="1267" 
d="M193 0v1411h542q107 0 190 -37.5t131 -101t72.5 -140.5t24.5 -163q0 -81 -21 -153t-64 -133t-115.5 -100.5t-168.5 -47.5l377 -535h-231l-365 528h-180v-528h-192zM385 707h336q62 0 109 22t73.5 60t39.5 83.5t13 96.5q0 69 -21.5 126.5t-74.5 97.5t-131 40h-344v-526z
" />
    <glyph glyph-name="S" unicode="S" horiz-adv-x="1173" 
d="M106 408h191q2 -97 88.5 -173.5t214.5 -76.5q127 0 199.5 60t85.5 147q4 55 -14 99t-54.5 73t-78.5 48t-93 31l-182 46q-344 87 -344 368q0 115 64 207t168 141t224 49q197 0 326 -113t129 -300h-190q0 104 -75 167.5t-192 63.5q-107 0 -185.5 -59.5t-78.5 -153.5
q0 -147 201 -196l184 -45q201 -52 299.5 -164.5t77.5 -278.5q-20 -159 -145.5 -263.5t-325.5 -104.5q-105 0 -198.5 36t-157.5 95t-101 137t-37 160z" />
    <glyph glyph-name="T" unicode="T" horiz-adv-x="1163" 
d="M57 1231v180h1049v-180h-428v-1231h-193v1231h-428z" />
    <glyph glyph-name="U" unicode="U" horiz-adv-x="1388" 
d="M178 485v926h193v-926q0 -142 94.5 -231.5t228.5 -89.5q135 0 229.5 89.5t94.5 231.5v926h192v-926q0 -112 -41.5 -208t-112 -160.5t-164.5 -100.5t-198 -36t-198 36t-164.5 100.5t-112 160.5t-41.5 208z" />
    <glyph glyph-name="V" unicode="V" horiz-adv-x="1150" 
d="M57 1411h199l319 -1089l320 1089h197l-424 -1411h-183z" />
    <glyph glyph-name="W" unicode="W" horiz-adv-x="1845" 
d="M31 1411h205l354 -1104l260 914h145l260 -914l355 1104h205l-478 -1411h-166l-249 881l-248 -881h-166z" />
    <glyph glyph-name="X" unicode="X" horiz-adv-x="1259" 
d="M23 0l491 758l-438 653h229l324 -498l325 498h230l-441 -653l494 -758h-229l-379 600l-379 -600h-227z" />
    <glyph glyph-name="Y" unicode="Y" horiz-adv-x="1286" 
d="M10 1411h228l405 -571l410 571h229l-541 -762v-649h-196v649z" />
    <glyph glyph-name="Z" unicode="Z" horiz-adv-x="1173" 
d="M86 0v166l745 1065h-716v180h958v-166l-749 -1065h749v-180h-987z" />
    <glyph glyph-name="bracketleft" unicode="[" horiz-adv-x="669" 
d="M172 -465v1876h412v-170h-228v-1536h228v-170h-412z" />
    <glyph glyph-name="backslash" unicode="\" horiz-adv-x="1026" 
d="M63 1411h203l697 -1411h-203z" />
    <glyph glyph-name="bracketright" unicode="]" horiz-adv-x="669" 
d="M86 -295h227v1536h-227v170h412v-1876h-412v170z" />
    <glyph glyph-name="underscore" unicode="_" horiz-adv-x="1431" 
d="M141 -57h1149v-166h-1149v166z" />
    <glyph glyph-name="grave" unicode="`" horiz-adv-x="1048" 
d="M264 1450h223l199 -315h-178z" />
    <glyph glyph-name="a" unicode="a" horiz-adv-x="1253" 
d="M92 479q0 148 67 263t177 175t242 60q105 0 197.5 -42.5t137.5 -121.5v143h185v-956h-185v147q-46 -79 -138.5 -123t-196.5 -44q-202 0 -344 139t-142 360zM283 481q0 -139 90 -229t221 -90q133 0 225 86t92 233q0 98 -48 171.5t-118.5 108t-150.5 34.5
q-132 0 -221.5 -87t-89.5 -227z" />
    <glyph glyph-name="b" unicode="b" horiz-adv-x="1253" 
d="M156 0v1477h186v-664q46 79 137 121.5t199 42.5q133 0 242 -60t175 -175t66 -263q0 -147 -67 -262.5t-177 -176t-241 -60.5q-104 0 -196 44t-138 123v-147h-186zM344 481q0 -147 92.5 -233t225.5 -86q131 0 220 90t89 229q0 140 -88.5 227t-220.5 87q-59 0 -115 -20.5
t-101.5 -59t-73.5 -99.5t-28 -135z" />
    <glyph glyph-name="c" unicode="c" horiz-adv-x="1048" 
d="M92 481q0 147 70 261.5t184.5 174.5t251.5 60q109 0 205 -40t164 -114l-142 -118q-90 90 -227 90q-134 0 -228 -87t-94 -227q0 -141 94.5 -231t227.5 -90q136 0 227 94l144 -119q-68 -74 -164.5 -114.5t-206.5 -40.5q-136 0 -251 61t-185 177t-70 263z" />
    <glyph glyph-name="d" unicode="d" horiz-adv-x="1253" 
d="M92 479q0 148 66 263t174.5 175t240.5 60q110 0 201 -42.5t137 -121.5v664h187v-1477h-187v147q-46 -79 -139 -123t-197 -44q-131 0 -240.5 60.5t-176 176t-66.5 262.5zM283 481q0 -139 89 -229t220 -90q132 0 224.5 86.5t92.5 232.5q0 98 -48 171.5t-118.5 108
t-150.5 34.5q-132 0 -220.5 -87t-88.5 -227z" />
    <glyph glyph-name="e" unicode="e" horiz-adv-x="1138" 
d="M92 481q0 222 140.5 359t349.5 137q207 0 341 -136t134 -360q0 -53 -2 -73h-776q17 -119 102 -190t207 -71q87 0 161 39t113 109q28 -11 86 -33.5t74 -28.5q-60 -122 -178.5 -187.5t-261.5 -65.5q-208 0 -349 139t-141 362zM279 553h593q-17 119 -95.5 187.5t-194.5 68.5
q-120 0 -203 -68.5t-100 -187.5z" />
    <glyph glyph-name="f" unicode="f" horiz-adv-x="702" 
d="M55 799v157h185v97q0 198 90 311t276 113h105v-179h-105q-55 0 -92.5 -20t-55.5 -57t-24.5 -77t-5.5 -91v-97h221v-157h-221v-799h-188v799h-185z" />
    <glyph glyph-name="g" unicode="g" horiz-adv-x="1251" 
d="M92 475q0 148 67 264t177 177t242 61q104 0 196.5 -45t138.5 -125v149h185v-811q0 -622 -523 -622q-134 0 -249 67t-183 191q14 6 81 42t75 40q41 -77 117.5 -120.5t158.5 -43.5q340 0 340 434q0 4 -1 11.5t-1 11.5q-41 -82 -136 -129t-199 -47q-132 0 -242 59.5
t-177 174t-67 261.5zM283 477q0 -143 89 -229t222 -86q59 0 115 21t101.5 60t73 100t27.5 134q0 148 -91.5 233t-225.5 85q-131 0 -221 -90t-90 -228z" />
    <glyph glyph-name="h" unicode="h" 
d="M156 0v1477h186v-664q39 79 132 121.5t183 42.5q181 0 284.5 -112t102.5 -312v-553h-186v541q0 117 -62.5 185.5t-162.5 68.5q-52 0 -101 -15.5t-93 -46.5t-70.5 -87.5t-26.5 -129.5v-516h-186z" />
    <glyph glyph-name="i" unicode="i" horiz-adv-x="495" 
d="M119 1309q0 52 38 86.5t91 34.5q54 0 91.5 -34.5t37.5 -86.5t-37.5 -86.5t-91.5 -34.5q-53 0 -91 34.5t-38 86.5zM156 0v956h184v-956h-184z" />
    <glyph glyph-name="j" unicode="j" horiz-adv-x="499" 
d="M-127 -295h111q45 0 78 15t51 37t28 55.5t13 63.5t2 67v1013h188v-1015q0 -410 -344 -410h-127v174zM121 1309q0 52 38 86.5t91 34.5q54 0 91.5 -34.5t37.5 -86.5t-37.5 -86.5t-91.5 -34.5q-53 0 -91 34.5t-38 86.5z" />
    <glyph glyph-name="k" unicode="k" horiz-adv-x="1028" 
d="M156 0v1477h184v-854l330 333h254l-410 -413l508 -543h-246l-436 467v-467h-184z" />
    <glyph glyph-name="l" unicode="l" horiz-adv-x="497" 
d="M156 0v1477h186v-1477h-186z" />
    <glyph glyph-name="m" unicode="m" horiz-adv-x="1804" 
d="M156 0v956h186v-143q35 72 114 113.5t150 46.5q56 3 105 -6q181 -27 250 -187q102 197 331 197q179 0 274 -111t95 -313v-553h-186v541q0 119 -58.5 186.5t-161.5 67.5q-116 1 -185 -77.5t-69 -201.5v-516h-186v543q0 117 -56 184.5t-151 67.5q-111 0 -188.5 -69.5
t-77.5 -209.5v-516h-186z" />
    <glyph glyph-name="n" unicode="n" horiz-adv-x="1153" 
d="M156 0v956h186v-143q40 80 126 122t173 42q178 0 273.5 -111t95.5 -313v-553h-187v541q0 120 -56 187t-155 67q-53 0 -99.5 -15.5t-85.5 -47.5t-62 -87.5t-23 -128.5v-516h-186z" />
    <glyph glyph-name="o" unicode="o" horiz-adv-x="1185" 
d="M92 481q0 147 68.5 261.5t181.5 174.5t250 60t250.5 -60t182.5 -174.5t69 -261.5t-69 -263t-183 -177t-250 -61t-249.5 61t-182 177t-68.5 263zM276 481q0 -143 91.5 -232t224.5 -89q132 0 223.5 89t91.5 232q0 141 -91 227.5t-224 86.5t-224.5 -86.5t-91.5 -227.5z" />
    <glyph glyph-name="p" unicode="p" horiz-adv-x="1247" 
d="M156 -465v1421h186v-149q46 79 138.5 124.5t195.5 45.5q201 0 340 -140t139 -362q0 -147 -65.5 -261.5t-173.5 -174t-240 -59.5q-106 0 -197.5 41.5t-136.5 121.5v-608h-186zM344 473q0 -145 94 -228t219 -83q132 0 221 86t89 225q0 141 -89.5 231.5t-220.5 90.5
t-222 -87.5t-91 -234.5z" />
    <glyph glyph-name="q" unicode="q" horiz-adv-x="1247" 
d="M92 475q0 222 139 362t340 140q103 0 196.5 -45.5t137.5 -124.5v149h187v-1421h-187v608q-44 -79 -136 -121t-198 -42q-132 0 -240 59.5t-173.5 174t-65.5 261.5zM283 473q0 -140 87.5 -225.5t219.5 -85.5q80 0 150 34t117.5 106.5t47.5 170.5q0 147 -91 234.5t-224 87.5
q-131 0 -219 -90.5t-88 -231.5z" />
    <glyph glyph-name="r" unicode="r" horiz-adv-x="808" 
d="M156 0v956h186v-215q69 236 266 236q49 0 96.5 -11.5t69.5 -25.5l-29 -174q-67 33 -141 33q-89 0 -149 -61t-86.5 -160t-26.5 -230v-348h-186z" />
    <glyph glyph-name="s" unicode="s" horiz-adv-x="899" 
d="M86 287h170q5 -32 25.5 -62t52.5 -47q64 -39 151 -33q65 5 105 39t41 86q1 49 -34 78.5t-93 42.5l-131 31q-137 37 -202.5 110.5t-53.5 200.5q10 104 107 174t225 70q63 0 118 -15t101.5 -46.5t76 -84.5t35.5 -124h-178q-7 52 -49 80t-100 28q-53 0 -93.5 -24t-50.5 -62
q-12 -45 2 -76q22 -47 113 -73l141 -35q248 -61 248 -279q0 -129 -108 -207.5t-263 -78.5q-88 0 -167 34.5t-132.5 106.5t-56.5 166z" />
    <glyph glyph-name="t" unicode="t" horiz-adv-x="671" 
d="M55 799v157h172v361h187v-361h202v-157h-202v-799h-187v799h-172z" />
    <glyph glyph-name="u" unicode="u" horiz-adv-x="1150" 
d="M143 403v553h187v-540q0 -120 55.5 -187t153.5 -67q53 0 99.5 15t85.5 46.5t62 87t23 129.5v516h186v-956h-186v143q-40 -80 -125 -121.5t-172 -41.5q-179 0 -275 110.5t-94 312.5z" />
    <glyph glyph-name="v" unicode="v" horiz-adv-x="1044" 
d="M35 956h196l291 -718l289 718h199l-578 -956z" />
    <glyph glyph-name="w" unicode="w" horiz-adv-x="1617" 
d="M39 956h199l239 -669l240 669h180l240 -669l239 669h199l-354 -956h-154l-260 702l-252 -702h-152z" />
    <glyph glyph-name="x" unicode="x" horiz-adv-x="1024" 
d="M25 0l378 524l-311 432h223l197 -280l199 280h223l-313 -432l378 -524h-221l-266 371l-268 -371h-219z" />
    <glyph glyph-name="y" unicode="y" horiz-adv-x="1042" 
d="M37 956h199l286 -692l287 692h199l-594 -1421h-195l201 494z" />
    <glyph glyph-name="z" unicode="z" horiz-adv-x="1028" 
d="M86 0v154l569 624h-536v178h809v-153l-580 -625h580v-178h-842z" />
    <glyph glyph-name="braceleft" unicode="{" horiz-adv-x="819" 
d="M80 397v166q50 0 87.5 32.5t37.5 72.5v360q-1 180 115.5 289.5t287.5 109.5h131v-161h-137q-91 0 -156 -69.5t-65 -168.5v-360q0 -57 -26.5 -110.5t-73.5 -78.5q43 -24 71.5 -78t28.5 -108v-356q0 -99 65 -169.5t156 -70.5h137v-162h-131q-170 0 -286.5 111t-116.5 291
v356q0 40 -37.5 72t-87.5 32z" />
    <glyph glyph-name="bar" unicode="|" horiz-adv-x="471" 
d="M172 -244v1872h127v-1872h-127z" />
    <glyph glyph-name="braceright" unicode="}" horiz-adv-x="819" 
d="M80 -303h137q91 0 156 70.5t65 169.5v356q0 53 29 107.5t72 78.5q-47 25 -74 78.5t-27 110.5v360q0 99 -65 168.5t-156 69.5h-137v161h131q171 0 287.5 -109.5t115.5 -289.5v-360q0 -40 37.5 -72.5t87.5 -32.5v-166q-50 0 -87.5 -32t-37.5 -72v-356q0 -180 -116.5 -291
t-286.5 -111h-131v162z" />
    <glyph glyph-name="exclamdown" unicode="&#xa1;" horiz-adv-x="493" 
d="M111 850q0 55 39 91t94 36q56 0 95.5 -36t39.5 -91t-39.5 -92t-95.5 -37q-55 0 -94 37t-39 92zM154 -465l20 1043h145l19 -1043h-184z" />
    <glyph glyph-name="cent" unicode="&#xa2;" horiz-adv-x="1087" 
d="M102 481q0 194 116.5 326t295.5 162v217h127v-211q99 -4 185.5 -44t150.5 -108l-141 -118q-90 90 -228 90q-134 0 -227.5 -86.5t-93.5 -227.5t94 -231t227 -90q137 0 228 94l143 -119q-128 -140 -338 -153v-222h-127v228q-179 30 -295.5 163.5t-116.5 329.5z" />
    <glyph glyph-name="sterling" unicode="&#xa3;" horiz-adv-x="1294" 
d="M98 0v184h189v404h-156v125h156v315q0 118 59.5 210.5t154.5 140.5t206 48q169 0 286 -118.5t117 -309.5h-184q0 88 -41.5 150.5t-106.5 81.5q-49 14 -92 8q-87 -3 -152 -62.5t-65 -148.5v-315h313v-125h-313v-404h500q15 0 25 12.5t10 32.5v117h184v-100
q0 -108 -50.5 -177t-146.5 -69h-893z" />
    <glyph glyph-name="currency" unicode="&#xa4;" horiz-adv-x="1249" 
d="M147 330l144 145q-66 97 -66 219q0 121 68 221l-146 146l113 113l146 -146q96 68 219 68q121 0 221 -68l143 146l113 -113l-144 -146q68 -104 68 -221q0 -123 -68 -219l144 -145l-113 -113l-143 145q-98 -67 -221 -67q-124 0 -222 67l-143 -145zM399 694q0 -94 66 -159.5
t160 -65.5t160.5 65.5t66.5 159.5t-66.5 161t-160.5 67t-160 -67t-66 -161z" />
    <glyph glyph-name="yen" unicode="&#xa5;" horiz-adv-x="1406" 
d="M68 1411h227l405 -571l410 571h229l-540 -762h375v-131h-375v-160h375v-131h-375v-227h-197v227h-371v131h371v160h-371v131h371z" />
    <glyph glyph-name="brokenbar" unicode="&#xa6;" horiz-adv-x="479" 
d="M176 -244v795h127v-795h-127zM176 829v799h127v-799h-127z" />
    <glyph glyph-name="section" unicode="&#xa7;" horiz-adv-x="1056" 
d="M133 39l168 49q30 -71 89 -111t130 -40q95 0 161.5 61.5t66.5 161.5v327q0 100 -66.5 161t-161.5 61q-57 0 -110 -23v182q59 17 110 17q169 0 286.5 -110t117.5 -288v-327q0 -178 -117.5 -289t-286.5 -111q-131 0 -236.5 75t-150.5 204zM133 678v328q0 178 117.5 288.5
t286.5 110.5q131 0 236.5 -75t150.5 -204l-168 -49q-30 71 -89 111.5t-130 40.5q-95 0 -161.5 -61.5t-66.5 -161.5v-328q0 -100 66 -160.5t162 -60.5q60 0 114 22v-182q-62 -16 -114 -16q-170 0 -287 109.5t-117 287.5z" />
    <glyph glyph-name="dieresis" unicode="&#xa8;" horiz-adv-x="1091" 
d="M246 1290q0 52 37 86.5t90 34.5q52 0 88.5 -34.5t36.5 -86.5t-36.5 -86.5t-88.5 -34.5q-53 0 -90 34.5t-37 86.5zM592 1290q0 52 37 86.5t90 34.5t90 -34.5t37 -86.5t-37 -86.5t-90 -34.5t-90 34.5t-37 86.5z" />
    <glyph glyph-name="copyright" unicode="&#xa9;" horiz-adv-x="1656" 
d="M113 702q0 197 94.5 363.5t259 264t360.5 97.5q147 0 280 -57.5t228.5 -155t152 -231.5t56.5 -281q0 -196 -95.5 -362.5t-260.5 -263t-361 -96.5q-147 0 -279.5 57t-227.5 154t-151 230.5t-56 280.5zM238 702q0 -163 78 -300t213.5 -216.5t297.5 -79.5q122 0 231.5 47
t188 127t124.5 190t46 232t-46 232.5t-124.5 190.5t-188.5 127.5t-231 47.5q-162 0 -297.5 -80t-213.5 -217.5t-78 -300.5zM465 692q0 154 107 261.5t262 107.5q151 0 280 -135l-94 -97q-95 95 -186 95q-96 0 -163 -68t-67 -164q0 -97 67 -165t163 -68q92 0 190 98l92 -102
q-60 -63 -133.5 -98t-148.5 -35q-155 0 -262 108t-107 262z" />
    <glyph glyph-name="ordfeminine" unicode="&#xaa;" horiz-adv-x="1034" 
d="M152 1001q0 156 99 252.5t241 96.5q73 0 137.5 -30t95.5 -85v100h129v-669h-129v102q-31 -55 -96 -86t-137 -31q-142 0 -241 97t-99 253zM201 440v103h645v-103h-645zM285 1004q0 -99 62.5 -162.5t154.5 -63.5q93 0 158 61.5t65 164.5q0 101 -67 160t-156 59
q-93 0 -155 -60.5t-62 -158.5z" />
    <glyph glyph-name="guillemotleft" unicode="&#xab;" horiz-adv-x="1001" 
d="M94 477l283 424h162l-283 -424l283 -424h-162zM455 477l282 424h162l-283 -424l283 -424h-162z" />
    <glyph glyph-name="logicalnot" unicode="&#xac;" horiz-adv-x="1312" 
d="M152 557v178h1001v-493h-178v315h-823z" />
    <glyph glyph-name="registered" unicode="&#xae;" horiz-adv-x="1656" 
d="M113 702q0 197 94.5 363.5t259 264t360.5 97.5q147 0 280 -57.5t228.5 -155t152 -231.5t56.5 -281q0 -196 -95.5 -362.5t-260.5 -263t-361 -96.5q-147 0 -279.5 57t-227.5 154t-151 230.5t-56 280.5zM238 702q0 -163 78 -300t213.5 -216.5t297.5 -79.5q122 0 231.5 47
t188 127t124.5 190t46 232t-46 232.5t-124.5 190.5t-188.5 127.5t-231 47.5q-162 0 -297.5 -80t-213.5 -217.5t-78 -300.5zM582 338v723h280q112 0 173 -70.5t61 -167.5q0 -79 -39.5 -141.5t-118.5 -83.5l184 -260h-172l-180 250h-47v-250h-141zM723 727h135q45 0 71.5 28.5
t26.5 67.5q0 40 -26 69.5t-68 29.5h-139v-195z" />
    <glyph glyph-name="macron" unicode="&#xaf;" horiz-adv-x="1007" 
d="M246 1188v164h516v-164h-516z" />
    <glyph glyph-name="degree" unicode="&#xb0;" horiz-adv-x="757" 
d="M111 1159q0 110 79 189t189 79t189 -79t79 -189t-79 -189t-189 -79t-189 79t-79 189zM252 1159q0 -53 37 -90t90 -37t90 37t37 90t-37 90t-90 37t-90 -37t-37 -90z" />
    <glyph glyph-name="plusminus" unicode="&#xb1;" horiz-adv-x="1110" 
d="M141 0v168h828v-168h-828zM141 567v178h324v293h178v-293h326v-178h-326v-297h-178v297h-324z" />
    <glyph glyph-name="uni00B2" unicode="&#xb2;" horiz-adv-x="655" 
d="M66 1475q15 100 86.5 160.5t166.5 60.5q107 0 180.5 -68t73.5 -174q0 -111 -88 -209l-206 -244h296v-120h-499v57l323 391q56 70 56 125q0 54 -39.5 89.5t-96.5 35.5q-54 0 -95 -36.5t-50 -96.5z" />
    <glyph glyph-name="uni00B3" unicode="&#xb3;" horiz-adv-x="655" 
d="M49 1038l98 54q20 -43 60.5 -75t87.5 -36q67 -5 120 33.5t54 97.5q3 58 -43.5 100.5t-110.5 42.5h-92v107h92q42 0 72.5 26.5t38.5 65.5q8 52 -14 82q-12 20 -37.5 32.5t-55.5 14.5q-87 9 -141 -72l-82 66q34 58 96.5 89.5t135.5 27.5q98 -4 161 -69.5t60 -151.5
q0 -26 -6 -50q-22 -72 -88 -110q60 -23 96.5 -86t30.5 -129q-9 -102 -95.5 -169t-197.5 -59q-78 6 -142.5 52t-97.5 116z" />
    <glyph glyph-name="acute" unicode="&#xb4;" horiz-adv-x="1048" 
d="M264 1135l199 315h223l-244 -315h-178z" />
    <glyph glyph-name="uni00B5" unicode="&#xb5;" horiz-adv-x="1136" 
d="M170 -313v1269h186v-553q0 -111 49.5 -175t139.5 -64q51 0 97 15t86 46t63.5 85.5t23.5 125.5v520h186v-956h-186v117q-40 -66 -117 -100.5t-153 -34.5q-131 0 -189 61v-356h-186z" />
    <glyph glyph-name="paragraph" unicode="&#xb6;" horiz-adv-x="1333" 
d="M72 967q0 185 129 314.5t315 129.5h150v-1526h-170v637q-176 11 -300 139.5t-124 305.5zM494 -225h180q42 0 76 28t34 66v1542h191q115 0 197.5 -82.5t82.5 -198.5v-174h-168v174q0 43 -26 76t-66 33h-41v-1339q0 -106 -84 -190.5t-196 -90.5h-180v156z" />
    <glyph glyph-name="periodcentered" unicode="&#xb7;" horiz-adv-x="550" 
d="M141 514q0 55 39 92t94 37q56 0 96 -37t40 -92t-40 -91t-96 -36q-55 0 -94 36t-39 91z" />
    <glyph glyph-name="cedilla" unicode="&#xb8;" horiz-adv-x="1069" 
d="M328 -186l131 -9q-2 -29 6 -45q13 -30 42 -43t60 -4q30 13 41.5 45t-0.5 64l-88 246h101l104 -195q16 -39 16 -86q0 -61 -34 -111.5t-95 -76.5q-39 -17 -80 -17q-59 0 -108.5 35t-75.5 96q-20 47 -20 101z" />
    <glyph glyph-name="uni00B9" unicode="&#xb9;" horiz-adv-x="425" 
d="M53 1434v116l262 144v-813h-122v624z" />
    <glyph glyph-name="ordmasculine" unicode="&#xba;" horiz-adv-x="1017" 
d="M158 1004q0 154 101.5 250t248.5 96t249.5 -96t102.5 -250q0 -156 -102.5 -254.5t-249.5 -98.5q-146 0 -248 98.5t-102 254.5zM174 440v103h678v-103h-678zM287 1004q0 -100 64 -163t157 -63t157 63t64 163q0 97 -64 158t-157 61t-157 -61t-64 -158z" />
    <glyph glyph-name="guillemotright" unicode="&#xbb;" horiz-adv-x="1001" 
d="M102 53l283 424l-283 424h162l283 -424l-283 -424h-162zM463 53l282 424l-282 424h162l282 -424l-282 -424h-162z" />
    <glyph glyph-name="onequarter" unicode="&#xbc;" horiz-adv-x="1501" 
d="M94 1171v105l240 86v-809h-109v664zM160 -20l923 1392h138l-922 -1392h-139zM774 164l445 639h81v-535h117v-104h-117v-164h-108v164h-418zM961 268h231v336z" />
    <glyph glyph-name="onehalf" unicode="&#xbd;" horiz-adv-x="1579" 
d="M96 1171v105l240 86v-809h-109v664zM156 -20l923 1392h138l-922 -1392h-139zM969 602q15 95 86 153t166 58q106 0 179 -67t73 -171q0 -105 -89 -208q-7 -9 -217 -256h308v-111h-496v49l326 395q59 72 59 131q0 56 -44.5 91.5t-105.5 35.5q-57 0 -97.5 -34t-47.5 -93z" />
    <glyph glyph-name="threequarters" unicode="&#xbe;" horiz-adv-x="1662" 
d="M84 711q15 8 48 25.5t48 25.5q19 -42 61 -74t89 -37q67 -3 119 35.5t55 97.5q3 58 -44.5 101t-109.5 43h-92v106h92q42 0 72.5 26t38.5 66q9 52 -22 87.5t-87 43.5q-86 6 -139 -73q-14 11 -41 32t-41 33q33 58 95 89.5t136 27.5q97 -6 161 -70.5t61 -150.5q0 -47 -26 -91
t-69 -69q59 -23 96 -86.5t31 -128.5q-9 -102 -95 -168.5t-199 -58.5q-78 6 -142.5 52t-95.5 116zM340 -20l924 1392h137l-922 -1392h-139zM936 164l444 639h82v-535h117v-104h-117v-164h-108v164h-418zM1122 268h232v336z" />
    <glyph glyph-name="questiondown" unicode="&#xbf;" horiz-adv-x="966" 
d="M68 -78q0 143 83.5 245.5t210.5 141.5q74 22 110 53t36 97l4 121h180v-121q0 -58 -13.5 -105.5t-37 -81t-59.5 -60.5t-74.5 -45t-89.5 -34q-67 -19 -117.5 -80t-50.5 -131q0 -96 71 -156.5t166 -60.5q93 0 160.5 68t67.5 178h176q0 -191 -117.5 -309.5t-286.5 -118.5
q-172 0 -295.5 110.5t-123.5 288.5zM467 850q0 55 38.5 91t94.5 36t95.5 -36t39.5 -91t-39.5 -92t-95.5 -37t-94.5 37t-38.5 92z" />
    <glyph glyph-name="Agrave" unicode="&#xc0;" horiz-adv-x="1320" 
d="M23 0l536 1411h205l534 -1411h-200l-137 358h-599l-137 -358h-202zM340 1905h223l199 -316h-178zM428 530h467l-233 627z" />
    <glyph glyph-name="Aacute" unicode="&#xc1;" horiz-adv-x="1320" 
d="M23 0l536 1411h205l534 -1411h-200l-137 358h-599l-137 -358h-202zM428 530h467l-233 627zM565 1589l199 316h223l-244 -316h-178z" />
    <glyph glyph-name="Acircumflex" unicode="&#xc2;" horiz-adv-x="1320" 
d="M23 0l536 1411h205l534 -1411h-200l-137 358h-599l-137 -358h-202zM340 1589l225 316h191l225 -316h-168l-154 178l-151 -178h-168zM428 530h467l-233 627z" />
    <glyph glyph-name="Atilde" unicode="&#xc3;" horiz-adv-x="1320" 
d="M23 0l536 1411h205l534 -1411h-200l-137 358h-599l-137 -358h-202zM387 1614q7 125 58.5 182t121.5 57q26 0 51 -9t34.5 -15.5t33.5 -24.5q45 -35 64 -35q21 0 38.5 19.5t18.5 64.5h125q-7 -123 -60 -178t-122 -55q-53 0 -117 51q-4 3 -14 9.5t-15 9.5t-12 7t-13 5.5
t-12 1.5q-19 0 -36.5 -22t-18.5 -68h-125zM428 530h467l-233 627z" />
    <glyph glyph-name="Adieresis" unicode="&#xc4;" horiz-adv-x="1320" 
d="M23 0l536 1411h205l534 -1411h-200l-137 358h-599l-137 -358h-202zM360 1745q0 52 37 86.5t90 34.5q52 0 88.5 -34.5t36.5 -86.5t-36.5 -86.5t-88.5 -34.5q-53 0 -90 34.5t-37 86.5zM428 530h467l-233 627zM707 1745q0 52 37 86.5t90 34.5t90 -34.5t37 -86.5t-37 -86.5
t-90 -34.5t-90 34.5t-37 86.5z" />
    <glyph glyph-name="Aring" unicode="&#xc5;" horiz-adv-x="1320" 
d="M23 0l536 1411h205l534 -1411h-200l-137 358h-599l-137 -358h-202zM428 530h467l-233 627zM444 1776q0 92 61.5 154.5t151.5 62.5q93 0 156.5 -62.5t63.5 -154.5q0 -89 -64 -151t-156 -62q-89 0 -151 62t-62 151zM553 1776q0 -43 30.5 -74t73.5 -31q46 0 78.5 31t32.5 74
q0 45 -32.5 76.5t-78.5 31.5q-43 0 -73.5 -31.5t-30.5 -76.5z" />
    <glyph glyph-name="AE" unicode="&#xc6;" horiz-adv-x="1912" 
d="M0 0l891 1411h891v-188h-641v-437h561v-188h-561v-410h663v-188h-852v354h-501l-228 -354h-223zM563 537h389v610z" />
    <glyph glyph-name="Ccedilla" unicode="&#xc7;" horiz-adv-x="1400" 
d="M102 702q0 198 95 364.5t259.5 263.5t360.5 97q160 0 297.5 -63.5t233.5 -175.5l-144 -119q-75 81 -174.5 127.5t-212.5 46.5q-145 0 -265.5 -72.5t-189.5 -196.5t-69 -272q0 -147 69 -271t189.5 -195.5t265.5 -71.5q117 0 218 47.5t173 132.5l144 -121
q-91 -107 -219.5 -170.5t-278.5 -70.5l57 -109q17 -41 17 -86q0 -61 -34 -111.5t-95 -76.5q-39 -17 -80 -17q-59 0 -108.5 35t-75.5 96q-21 50 -21 101l131 -9q-2 -29 6 -45q13 -30 42.5 -43t60.5 -4q30 13 41.5 45t-0.5 64l-60 162q-178 19 -323 119t-227.5 257.5
t-82.5 341.5z" />
    <glyph glyph-name="Egrave" unicode="&#xc8;" horiz-adv-x="1157" 
d="M193 0v1411h835v-178h-645v-451h563v-178h-563v-426h666v-178h-856zM303 1905h223l199 -316h-178z" />
    <glyph glyph-name="Eacute" unicode="&#xc9;" horiz-adv-x="1157" 
d="M193 0v1411h835v-178h-645v-451h563v-178h-563v-426h666v-178h-856zM440 1589l199 316h223l-244 -316h-178z" />
    <glyph glyph-name="Ecircumflex" unicode="&#xca;" horiz-adv-x="1157" 
d="M193 0v1411h835v-178h-645v-451h563v-178h-563v-426h666v-178h-856zM258 1589l225 316h191l225 -316h-168l-153 178l-152 -178h-168z" />
    <glyph glyph-name="Edieresis" unicode="&#xcb;" horiz-adv-x="1157" 
d="M193 0v1411h835v-178h-645v-451h563v-178h-563v-426h666v-178h-856zM287 1745q0 52 37 86.5t90 34.5q52 0 88.5 -34.5t36.5 -86.5t-36.5 -86.5t-88.5 -34.5q-53 0 -90 34.5t-37 86.5zM633 1745q0 52 37 86.5t90 34.5t90 -34.5t37 -86.5t-37 -86.5t-90 -34.5t-90 34.5
t-37 86.5z" />
    <glyph glyph-name="Igrave" unicode="&#xcc;" horiz-adv-x="575" 
d="M-39 1905h223l199 -316h-178zM193 0v1411h190v-1411h-190z" />
    <glyph glyph-name="Iacute" unicode="&#xcd;" horiz-adv-x="575" 
d="M190 1589l199 316h223l-243 -316h-179zM193 0v1411h190v-1411h-190z" />
    <glyph glyph-name="Icircumflex" unicode="&#xce;" horiz-adv-x="575" 
d="M-33 1589l226 316h190l225 -316h-168l-153 178l-152 -178h-168zM193 0v1411h190v-1411h-190z" />
    <glyph glyph-name="Idieresis" unicode="&#xcf;" horiz-adv-x="575" 
d="M-12 1745q0 52 37 86.5t90 34.5q52 0 88.5 -34.5t36.5 -86.5t-36.5 -86.5t-88.5 -34.5q-53 0 -90 34.5t-37 86.5zM193 0v1411h190v-1411h-190zM334 1745q0 52 37 86.5t90 34.5t90 -34.5t37 -86.5t-37 -86.5t-90 -34.5t-90 34.5t-37 86.5z" />
    <glyph glyph-name="Eth" unicode="&#xd0;" horiz-adv-x="1482" 
d="M14 637v139h191v635h538q195 0 339.5 -94t217 -253.5t72.5 -361.5q0 -201 -72.5 -358.5t-216.5 -250.5t-340 -93h-538v637h-191zM395 188h348q211 0 325 142t114 372q0 150 -48 266t-149 185.5t-242 69.5h-348v-447h338v-139h-338v-449z" />
    <glyph glyph-name="Ntilde" unicode="&#xd1;" horiz-adv-x="1400" 
d="M193 0v1411h188l637 -1055v1055h190v-1411h-182l-643 1063v-1063h-190zM428 1614q7 125 58.5 182t121.5 57q26 0 51 -9t34.5 -15.5t33.5 -24.5q45 -35 64 -35q21 0 38.5 19.5t18.5 64.5h125q-7 -123 -60 -178t-122 -55q-53 0 -117 51q-5 3 -14.5 9.5t-14.5 9.5t-12 7
t-13 5.5t-12 1.5q-19 0 -36.5 -22t-18.5 -68h-125z" />
    <glyph glyph-name="Ograve" unicode="&#xd2;" horiz-adv-x="1630" 
d="M100 702q0 198 94 364.5t258 263.5t361 97q198 0 363 -97t259.5 -263.5t94.5 -364.5q0 -147 -56 -280.5t-151 -230.5t-228.5 -154t-281.5 -57t-280.5 57t-227 154t-150 230.5t-55.5 280.5zM291 702q0 -148 68.5 -271.5t188.5 -195t265 -71.5q146 0 266.5 71.5t189 195
t68.5 271.5t-68.5 272t-189 196.5t-266.5 72.5q-145 0 -265 -72.5t-188.5 -196.5t-68.5 -272zM502 1905h223l199 -316h-179z" />
    <glyph glyph-name="Oacute" unicode="&#xd3;" horiz-adv-x="1630" 
d="M100 702q0 198 94 364.5t258 263.5t361 97q198 0 363 -97t259.5 -263.5t94.5 -364.5q0 -147 -56 -280.5t-151 -230.5t-228.5 -154t-281.5 -57t-280.5 57t-227 154t-150 230.5t-55.5 280.5zM291 702q0 -148 68.5 -271.5t188.5 -195t265 -71.5q146 0 266.5 71.5t189 195
t68.5 271.5t-68.5 272t-189 196.5t-266.5 72.5q-145 0 -265 -72.5t-188.5 -196.5t-68.5 -272zM682 1589l199 316h223l-244 -316h-178z" />
    <glyph glyph-name="Ocircumflex" unicode="&#xd4;" horiz-adv-x="1630" 
d="M100 702q0 198 94 364.5t258 263.5t361 97q198 0 363 -97t259.5 -263.5t94.5 -364.5q0 -147 -56 -280.5t-151 -230.5t-228.5 -154t-281.5 -57t-280.5 57t-227 154t-150 230.5t-55.5 280.5zM291 702q0 -148 68.5 -271.5t188.5 -195t265 -71.5q146 0 266.5 71.5t189 195
t68.5 271.5t-68.5 272t-189 196.5t-266.5 72.5q-145 0 -265 -72.5t-188.5 -196.5t-68.5 -272zM494 1589l225 316h190l226 -316h-168l-154 178l-151 -178h-168z" />
    <glyph glyph-name="Otilde" unicode="&#xd5;" horiz-adv-x="1630" 
d="M100 702q0 198 94 364.5t258 263.5t361 97q198 0 363 -97t259.5 -263.5t94.5 -364.5q0 -147 -56 -280.5t-151 -230.5t-228.5 -154t-281.5 -57t-280.5 57t-227 154t-150 230.5t-55.5 280.5zM291 702q0 -148 68.5 -271.5t188.5 -195t265 -71.5q146 0 266.5 71.5t189 195
t68.5 271.5t-68.5 272t-189 196.5t-266.5 72.5q-145 0 -265 -72.5t-188.5 -196.5t-68.5 -272zM543 1614q7 125 58.5 182t121.5 57q26 0 51 -9t34.5 -15.5t33.5 -24.5q45 -35 63 -35q21 0 39 19.5t19 64.5h124q-7 -123 -60 -178t-122 -55q-53 0 -117 51q-4 3 -17 11.5
t-18 11.5t-14 6.5t-16 3.5q-19 0 -36.5 -22t-18.5 -68h-125z" />
    <glyph glyph-name="Odieresis" unicode="&#xd6;" horiz-adv-x="1630" 
d="M100 702q0 198 94 364.5t258 263.5t361 97q198 0 363 -97t259.5 -263.5t94.5 -364.5q0 -147 -56 -280.5t-151 -230.5t-228.5 -154t-281.5 -57t-280.5 57t-227 154t-150 230.5t-55.5 280.5zM291 702q0 -148 68.5 -271.5t188.5 -195t265 -71.5q146 0 266.5 71.5t189 195
t68.5 271.5t-68.5 272t-189 196.5t-266.5 72.5q-145 0 -265 -72.5t-188.5 -196.5t-68.5 -272zM514 1745q0 52 37 86.5t90 34.5q52 0 88.5 -34.5t36.5 -86.5t-36.5 -86.5t-88.5 -34.5q-53 0 -90 34.5t-37 86.5zM860 1745q0 52 37 86.5t90 34.5t90 -34.5t37 -86.5t-37 -86.5
t-90 -34.5t-90 34.5t-37 86.5z" />
    <glyph glyph-name="multiply" unicode="&#xd7;" horiz-adv-x="1017" 
d="M129 303l256 256l-256 254l127 123l252 -252l258 256l123 -129l-254 -252l254 -254l-123 -129l-258 256l-252 -252z" />
    <glyph glyph-name="Oslash" unicode="&#xd8;" horiz-adv-x="1628" 
d="M98 702q0 198 94 364.5t258 263.5t361 97q260 0 459 -165l162 165l96 -94l-164 -168q164 -204 164 -463q0 -147 -56 -280.5t-151 -230.5t-228.5 -154t-281.5 -57q-255 0 -446 155l-164 -168l-97 96l164 168q-170 204 -170 471zM289 702q0 -190 110 -335l740 759
q-143 117 -328 117q-145 0 -265 -72.5t-188.5 -196.5t-68.5 -272zM496 270q134 -106 315 -106q146 0 266.5 71.5t189 195t68.5 271.5q0 184 -104 326z" />
    <glyph glyph-name="Ugrave" unicode="&#xd9;" horiz-adv-x="1388" 
d="M178 485v926h193v-926q0 -142 94.5 -231.5t228.5 -89.5q135 0 229.5 89.5t94.5 231.5v926h192v-926q0 -112 -41.5 -208t-112 -160.5t-164.5 -100.5t-198 -36t-198 36t-164.5 100.5t-112 160.5t-41.5 208zM399 1905h224l198 -316h-178z" />
    <glyph glyph-name="Uacute" unicode="&#xda;" horiz-adv-x="1388" 
d="M178 485v926h193v-926q0 -142 94.5 -231.5t228.5 -89.5q135 0 229.5 89.5t94.5 231.5v926h192v-926q0 -112 -41.5 -208t-112 -160.5t-164.5 -100.5t-198 -36t-198 36t-164.5 100.5t-112 160.5t-41.5 208zM547 1589l198 316h224l-244 -316h-178z" />
    <glyph glyph-name="Ucircumflex" unicode="&#xdb;" horiz-adv-x="1388" 
d="M178 485v926h193v-926q0 -142 94.5 -231.5t228.5 -89.5q135 0 229.5 89.5t94.5 231.5v926h192v-926q0 -112 -41.5 -208t-112 -160.5t-164.5 -100.5t-198 -36t-198 36t-164.5 100.5t-112 160.5t-41.5 208zM373 1589l225 316h190l226 -316h-168l-154 178l-151 -178h-168z
" />
    <glyph glyph-name="Udieresis" unicode="&#xdc;" horiz-adv-x="1388" 
d="M178 485v926h193v-926q0 -142 94.5 -231.5t228.5 -89.5q135 0 229.5 89.5t94.5 231.5v926h192v-926q0 -112 -41.5 -208t-112 -160.5t-164.5 -100.5t-198 -36t-198 36t-164.5 100.5t-112 160.5t-41.5 208zM393 1745q0 52 37 86.5t90 34.5q52 0 88.5 -34.5t36.5 -86.5
t-36.5 -86.5t-88.5 -34.5q-53 0 -90 34.5t-37 86.5zM739 1745q0 52 37 86.5t90 34.5t90 -34.5t37 -86.5t-37 -86.5t-90 -34.5t-90 34.5t-37 86.5z" />
    <glyph glyph-name="Yacute" unicode="&#xdd;" horiz-adv-x="1286" 
d="M10 1411h228l405 -571l410 571h229l-541 -762v-649h-196v649zM518 1589l199 316h223l-244 -316h-178z" />
    <glyph glyph-name="Thorn" unicode="&#xde;" horiz-adv-x="1171" 
d="M193 0v1411h190v-252h287q185 0 308.5 -120t123.5 -314q0 -197 -123.5 -319.5t-308.5 -122.5h-287v-283h-190zM383 467h287q103 0 173 72t70 186q0 115 -74 181.5t-186 72.5l-270 2v-514z" />
    <glyph glyph-name="germandbls" unicode="&#xdf;" horiz-adv-x="1159" 
d="M156 0v1004q0 198 112 310.5t293 112.5h21q156 0 266 -102t110 -248q0 -84 -33 -139t-96 -104q103 -50 171.5 -159t68.5 -229q0 -196 -136 -331t-337 -135q-79 -3 -174 28v174q87 -32 170 -32q127 0 214 88.5t87 207.5q0 113 -89 203t-210 90h-76v152h72q81 0 137.5 55
t56.5 131q0 73 -59.5 125t-144.5 55h-19q-99 0 -164 -68t-65 -185v-1004h-176z" />
    <glyph glyph-name="agrave" unicode="&#xe0;" horiz-adv-x="1253" 
d="M92 479q0 148 67 263t177 175t242 60q105 0 197.5 -42.5t137.5 -121.5v143h185v-956h-185v147q-46 -79 -138.5 -123t-196.5 -44q-202 0 -344 139t-142 360zM283 481q0 -139 90 -229t221 -90q133 0 225 86t92 233q0 98 -48 171.5t-118.5 108t-150.5 34.5
q-132 0 -221.5 -87t-89.5 -227zM342 1450h223l199 -315h-178z" />
    <glyph glyph-name="aacute" unicode="&#xe1;" horiz-adv-x="1253" 
d="M92 479q0 148 67 263t177 175t242 60q105 0 197.5 -42.5t137.5 -121.5v143h185v-956h-185v147q-46 -79 -138.5 -123t-196.5 -44q-202 0 -344 139t-142 360zM283 481q0 -139 90 -229t221 -90q133 0 225 86t92 233q0 98 -48 171.5t-118.5 108t-150.5 34.5
q-132 0 -221.5 -87t-89.5 -227zM455 1135l198 315h224l-244 -315h-178z" />
    <glyph glyph-name="acircumflex" unicode="&#xe2;" horiz-adv-x="1253" 
d="M92 479q0 148 67 263t177 175t242 60q105 0 197.5 -42.5t137.5 -121.5v143h185v-956h-185v147q-46 -79 -138.5 -123t-196.5 -44q-202 0 -344 139t-142 360zM270 1135l226 315h190l225 -315h-168l-153 178l-152 -178h-168zM283 481q0 -139 90 -229t221 -90q133 0 225 86
t92 233q0 98 -48 171.5t-118.5 108t-150.5 34.5q-132 0 -221.5 -87t-89.5 -227z" />
    <glyph glyph-name="atilde" unicode="&#xe3;" horiz-adv-x="1253" 
d="M92 479q0 148 67 263t177 175t242 60q105 0 197.5 -42.5t137.5 -121.5v143h185v-956h-185v147q-46 -79 -138.5 -123t-196.5 -44q-202 0 -344 139t-142 360zM283 481q0 -139 90 -229t221 -90q133 0 225 86t92 233q0 98 -48 171.5t-118.5 108t-150.5 34.5
q-132 0 -221.5 -87t-89.5 -227zM352 1159q7 125 59 182.5t121 57.5q26 0 51 -9t34.5 -15.5t33.5 -24.5q45 -35 64 -35q21 0 38.5 19.5t18.5 64.5h125q-7 -123 -60 -178.5t-122 -55.5q-25 0 -49 9.5t-35.5 17.5t-32.5 25q-50 32 -66 32q-19 0 -36.5 -22t-18.5 -68h-125z" />
    <glyph glyph-name="adieresis" unicode="&#xe4;" horiz-adv-x="1253" 
d="M92 479q0 148 67 263t177 175t242 60q105 0 197.5 -42.5t137.5 -121.5v143h185v-956h-185v147q-46 -79 -138.5 -123t-196.5 -44q-202 0 -344 139t-142 360zM283 481q0 -139 90 -229t221 -90q133 0 225 86t92 233q0 98 -48 171.5t-118.5 108t-150.5 34.5
q-132 0 -221.5 -87t-89.5 -227zM295 1290q0 52 37 86.5t90 34.5q52 0 88.5 -34.5t36.5 -86.5t-36.5 -86.5t-88.5 -34.5q-53 0 -90 34.5t-37 86.5zM641 1290q0 52 37 86.5t90 34.5t90 -34.5t37 -86.5t-37 -86.5t-90 -34.5t-90 34.5t-37 86.5z" />
    <glyph glyph-name="aring" unicode="&#xe5;" horiz-adv-x="1253" 
d="M92 479q0 148 67 263t177 175t242 60q105 0 197.5 -42.5t137.5 -121.5v143h185v-956h-185v147q-46 -79 -138.5 -123t-196.5 -44q-202 0 -344 139t-142 360zM283 481q0 -139 90 -229t221 -90q133 0 225 86t92 233q0 98 -48 171.5t-118.5 108t-150.5 34.5
q-132 0 -221.5 -87t-89.5 -227zM379 1321q0 92 61.5 154.5t151.5 62.5q92 0 155.5 -62.5t63.5 -154.5q0 -89 -63.5 -151t-155.5 -62q-89 0 -151 62t-62 151zM487 1321q0 -43 31 -73.5t74 -30.5q46 0 78 30.5t32 73.5q0 46 -32 77.5t-78 31.5q-43 0 -74 -32t-31 -77z" />
    <glyph glyph-name="ae" unicode="&#xe6;" horiz-adv-x="1959" 
d="M92 479q0 148 67 263t177 175t242 60q105 0 197.5 -42.5t137.5 -121.5v143h185v-77q128 98 305 98q207 0 341 -136t134 -360q0 -53 -2 -73h-776q17 -119 102 -190t207 -71q87 0 161 39t113 109q28 -11 86 -33.5t74 -28.5q-60 -122 -178.5 -187.5t-261.5 -65.5
q-181 0 -305 100v-80h-185v147q-46 -79 -138.5 -123t-196.5 -44q-202 0 -344 139t-142 360zM283 481q0 -139 90 -229t221 -90q133 0 225 86t92 233q0 98 -48 171.5t-118.5 108t-150.5 34.5q-132 0 -221.5 -87t-89.5 -227zM1100 553h594q-17 119 -96 187.5t-195 68.5
q-120 0 -203 -68.5t-100 -187.5z" />
    <glyph glyph-name="ccedilla" unicode="&#xe7;" horiz-adv-x="1048" 
d="M92 481q0 147 70 261.5t184.5 174.5t251.5 60q109 0 205 -40t164 -114l-142 -118q-90 90 -227 90q-134 0 -228 -87t-94 -227q0 -141 94.5 -231t227.5 -90q136 0 227 94l144 -119q-123 -135 -322 -151l60 -111q16 -39 16 -86q0 -61 -34 -111.5t-95 -76.5q-39 -17 -80 -17
q-59 0 -108.5 35t-75.5 96q-21 50 -21 101l131 -9q-2 -29 6 -45q13 -30 42.5 -43t60.5 -4q30 13 41.5 45t-0.5 64l-60 162q-187 22 -312.5 158t-125.5 339z" />
    <glyph glyph-name="egrave" unicode="&#xe8;" horiz-adv-x="1138" 
d="M92 481q0 222 140.5 359t349.5 137q207 0 341 -136t134 -360q0 -53 -2 -73h-776q17 -119 102 -190t207 -71q87 0 161 39t113 109q28 -11 86 -33.5t74 -28.5q-60 -122 -178.5 -187.5t-261.5 -65.5q-208 0 -349 139t-141 362zM262 1450h223l199 -315h-178zM279 553h593
q-17 119 -95.5 187.5t-194.5 68.5q-120 0 -203 -68.5t-100 -187.5z" />
    <glyph glyph-name="eacute" unicode="&#xe9;" horiz-adv-x="1138" 
d="M92 481q0 222 140.5 359t349.5 137q207 0 341 -136t134 -360q0 -53 -2 -73h-776q17 -119 102 -190t207 -71q87 0 161 39t113 109q28 -11 86 -33.5t74 -28.5q-60 -122 -178.5 -187.5t-261.5 -65.5q-208 0 -349 139t-141 362zM279 553h593q-17 119 -95.5 187.5t-194.5 68.5
q-120 0 -203 -68.5t-100 -187.5zM444 1135l199 315h223l-243 -315h-179z" />
    <glyph glyph-name="ecircumflex" unicode="&#xea;" horiz-adv-x="1138" 
d="M92 481q0 222 140.5 359t349.5 137q207 0 341 -136t134 -360q0 -53 -2 -73h-776q17 -119 102 -190t207 -71q87 0 161 39t113 109q28 -11 86 -33.5t74 -28.5q-60 -122 -178.5 -187.5t-261.5 -65.5q-208 0 -349 139t-141 362zM254 1135l225 315h191l225 -315h-168l-154 178
l-151 -178h-168zM279 553h593q-17 119 -95.5 187.5t-194.5 68.5q-120 0 -203 -68.5t-100 -187.5z" />
    <glyph glyph-name="edieresis" unicode="&#xeb;" horiz-adv-x="1138" 
d="M92 481q0 222 140.5 359t349.5 137q207 0 341 -136t134 -360q0 -53 -2 -73h-776q17 -119 102 -190t207 -71q87 0 161 39t113 109q28 -11 86 -33.5t74 -28.5q-60 -122 -178.5 -187.5t-261.5 -65.5q-208 0 -349 139t-141 362zM274 1290q0 52 37 86.5t90 34.5
q52 0 88.5 -34.5t36.5 -86.5t-36.5 -86.5t-88.5 -34.5q-53 0 -90 34.5t-37 86.5zM279 553h593q-17 119 -95.5 187.5t-194.5 68.5q-120 0 -203 -68.5t-100 -187.5zM621 1290q0 52 37 86.5t90 34.5t89.5 -34.5t36.5 -86.5t-36.5 -86.5t-89.5 -34.5t-90 34.5t-37 86.5z" />
    <glyph glyph-name="igrave" unicode="&#xec;" horiz-adv-x="493" 
d="M-86 1450h223l199 -315h-178zM156 0v956h182v-956h-182z" />
    <glyph glyph-name="iacute" unicode="&#xed;" horiz-adv-x="493" 
d="M154 1135l198 315h223l-243 -315h-178zM156 0v956h182v-956h-182z" />
    <glyph glyph-name="icircumflex" unicode="&#xee;" horiz-adv-x="493" 
d="M-63 1135l225 315h190l226 -315h-168l-154 178l-152 -178h-167zM156 0v956h182v-956h-182z" />
    <glyph glyph-name="idieresis" unicode="&#xef;" horiz-adv-x="493" 
d="M-43 1290q0 52 37 86.5t90 34.5q52 0 88.5 -34.5t36.5 -86.5t-36.5 -86.5t-88.5 -34.5q-53 0 -90 34.5t-37 86.5zM156 0v956h182v-956h-182zM303 1290q0 52 37 86.5t90 34.5t90 -34.5t37 -86.5t-37 -86.5t-90 -34.5t-90 34.5t-37 86.5z" />
    <glyph glyph-name="eth" unicode="&#xf0;" horiz-adv-x="1183" 
d="M92 481q0 110 40 204t106.5 157.5t154 99t182.5 35.5q39 0 74 -21l-151 170l-174 -108l-66 96l164 103l-154 194h215l82 -100l133 82l74 -86l-127 -86l350 -441q95 -132 95 -299q0 -147 -68 -262.5t-181 -177t-249 -61.5t-249.5 61.5t-182 177t-68.5 262.5zM268 481
q0 -144 94 -234.5t230 -90.5q134 0 228.5 90.5t94.5 234.5t-94 232t-229 88q-136 0 -230 -88t-94 -232z" />
    <glyph glyph-name="ntilde" unicode="&#xf1;" horiz-adv-x="1153" 
d="M156 0v956h186v-143q40 80 126 122t173 42q178 0 273.5 -111t95.5 -313v-553h-187v541q0 120 -56 187t-155 67q-53 0 -99.5 -15.5t-85.5 -47.5t-62 -87.5t-23 -128.5v-516h-186zM305 1159q7 125 59 182.5t121 57.5q26 0 51 -9t34.5 -15.5t33.5 -24.5q45 -35 64 -35
q21 0 38.5 19.5t18.5 64.5h125q-7 -123 -60 -178.5t-122 -55.5q-25 0 -49 9.5t-35.5 17.5t-32.5 25q-50 32 -66 32q-19 0 -36.5 -22t-18.5 -68h-125z" />
    <glyph glyph-name="ograve" unicode="&#xf2;" horiz-adv-x="1185" 
d="M92 481q0 147 68.5 261.5t181.5 174.5t250 60t250.5 -60t182.5 -174.5t69 -261.5t-69 -263t-183 -177t-250 -61t-249.5 61t-182 177t-68.5 263zM274 1450h224l198 -315h-178zM276 481q0 -143 91.5 -232t224.5 -89q132 0 223.5 89t91.5 232q0 141 -91 227.5t-224 86.5
t-224.5 -86.5t-91.5 -227.5z" />
    <glyph glyph-name="oacute" unicode="&#xf3;" horiz-adv-x="1185" 
d="M92 481q0 147 68.5 261.5t181.5 174.5t250 60t250.5 -60t182.5 -174.5t69 -261.5t-69 -263t-183 -177t-250 -61t-249.5 61t-182 177t-68.5 263zM276 481q0 -143 91.5 -232t224.5 -89q132 0 223.5 89t91.5 232q0 141 -91 227.5t-224 86.5t-224.5 -86.5t-91.5 -227.5z
M471 1135l199 315h223l-244 -315h-178z" />
    <glyph glyph-name="ocircumflex" unicode="&#xf4;" horiz-adv-x="1185" 
d="M92 481q0 147 68.5 261.5t181.5 174.5t250 60t250.5 -60t182.5 -174.5t69 -261.5t-69 -263t-183 -177t-250 -61t-249.5 61t-182 177t-68.5 263zM272 1135l226 315h190l225 -315h-168l-153 178l-152 -178h-168zM276 481q0 -143 91.5 -232t224.5 -89q132 0 223.5 89
t91.5 232q0 141 -91 227.5t-224 86.5t-224.5 -86.5t-91.5 -227.5z" />
    <glyph glyph-name="otilde" unicode="&#xf5;" horiz-adv-x="1185" 
d="M92 481q0 147 68.5 261.5t181.5 174.5t250 60t250.5 -60t182.5 -174.5t69 -261.5t-69 -263t-183 -177t-250 -61t-249.5 61t-182 177t-68.5 263zM276 481q0 -143 91.5 -232t224.5 -89q132 0 223.5 89t91.5 232q0 141 -91 227.5t-224 86.5t-224.5 -86.5t-91.5 -227.5z
M319 1159q7 125 59 182.5t122 57.5q9 0 17.5 -0.5t17 -3t14 -4t14 -6t12 -5.5t12 -7t10 -7t11.5 -8l10 -8q45 -35 64 -35q21 0 38.5 19.5t18.5 64.5h125q-7 -123 -60 -178.5t-122 -55.5q-25 0 -49 9.5t-35.5 17.5t-32.5 25q-4 3 -14 9.5t-14.5 9t-12 6.5t-13 5.5t-11.5 1.5
q-19 0 -37 -22t-19 -68h-125z" />
    <glyph glyph-name="odieresis" unicode="&#xf6;" horiz-adv-x="1185" 
d="M92 481q0 147 68.5 261.5t181.5 174.5t250 60t250.5 -60t182.5 -174.5t69 -261.5t-69 -263t-183 -177t-250 -61t-249.5 61t-182 177t-68.5 263zM276 481q0 -143 91.5 -232t224.5 -89q132 0 223.5 89t91.5 232q0 141 -91 227.5t-224 86.5t-224.5 -86.5t-91.5 -227.5z
M293 1290q0 52 37 86.5t90 34.5q52 0 88.5 -34.5t36.5 -86.5t-36.5 -86.5t-88.5 -34.5q-53 0 -90 34.5t-37 86.5zM639 1290q0 52 37 86.5t90 34.5t90 -34.5t37 -86.5t-37 -86.5t-90 -34.5t-90 34.5t-37 86.5z" />
    <glyph glyph-name="divide" unicode="&#xf7;" horiz-adv-x="1099" 
d="M129 438v170h842v-170h-842zM416 184q0 56 39 92.5t94 36.5q56 0 95.5 -36.5t39.5 -92.5q0 -55 -39.5 -91t-95.5 -36q-55 0 -94 36t-39 91zM416 868q0 55 39 91t94 36q56 0 95.5 -36t39.5 -91t-39.5 -92t-95.5 -37q-55 0 -94 37t-39 92z" />
    <glyph glyph-name="oslash" unicode="&#xf8;" horiz-adv-x="1181" 
d="M82 45l115 117q-107 132 -107 319q0 147 68.5 261.5t181.5 174.5t250 60q172 0 307 -96l102 104l97 -94l-103 -105q99 -133 99 -305q0 -147 -69 -263t-183 -177t-250 -61q-168 0 -295 88l-117 -119zM274 481q0 -107 52 -184l440 448q-77 50 -176 50q-133 0 -224.5 -86.5
t-91.5 -227.5zM426 203q70 -43 164 -43q132 0 223.5 89t91.5 232q0 90 -45 168z" />
    <glyph glyph-name="ugrave" unicode="&#xf9;" horiz-adv-x="1150" 
d="M143 403v553h187v-540q0 -120 55.5 -187t153.5 -67q53 0 99.5 15t85.5 46.5t62 87t23 129.5v516h186v-956h-186v143q-40 -80 -125 -121.5t-172 -41.5q-179 0 -275 110.5t-94 312.5zM287 1450h223l199 -315h-179z" />
    <glyph glyph-name="uacute" unicode="&#xfa;" horiz-adv-x="1150" 
d="M143 403v553h187v-540q0 -120 55.5 -187t153.5 -67q53 0 99.5 15t85.5 46.5t62 87t23 129.5v516h186v-956h-186v143q-40 -80 -125 -121.5t-172 -41.5q-179 0 -275 110.5t-94 312.5zM467 1135l199 315h223l-244 -315h-178z" />
    <glyph glyph-name="ucircumflex" unicode="&#xfb;" horiz-adv-x="1150" 
d="M143 403v553h187v-540q0 -120 55.5 -187t153.5 -67q53 0 99.5 15t85.5 46.5t62 87t23 129.5v516h186v-956h-186v143q-40 -80 -125 -121.5t-172 -41.5q-179 0 -275 110.5t-94 312.5zM236 1135l225 315h190l226 -315h-168l-154 178l-152 -178h-167z" />
    <glyph glyph-name="udieresis" unicode="&#xfc;" horiz-adv-x="1150" 
d="M143 403v553h187v-540q0 -120 55.5 -187t153.5 -67q53 0 99.5 15t85.5 46.5t62 87t23 129.5v516h186v-956h-186v143q-40 -80 -125 -121.5t-172 -41.5q-179 0 -275 110.5t-94 312.5zM289 1290q0 52 37 86.5t90 34.5q52 0 88.5 -34.5t36.5 -86.5t-36.5 -86.5t-88.5 -34.5
q-53 0 -90 34.5t-37 86.5zM635 1290q0 52 37 86.5t90 34.5t90 -34.5t37 -86.5t-37 -86.5t-90 -34.5t-90 34.5t-37 86.5z" />
    <glyph glyph-name="yacute" unicode="&#xfd;" horiz-adv-x="1042" 
d="M37 956h199l286 -692l287 692h199l-594 -1421h-195l201 494zM365 1135l198 315h223l-243 -315h-178z" />
    <glyph glyph-name="thorn" unicode="&#xfe;" horiz-adv-x="1232" 
d="M156 -436v1911h186v-637q49 67 133.5 102t177.5 35q136 0 246.5 -60t176 -174t65.5 -262q0 -147 -65.5 -262t-176 -176t-246.5 -61q-92 0 -176.5 37t-134.5 104v-557h-186zM342 479q0 -147 89.5 -231t221.5 -84q129 0 216 89t87 226q0 138 -86.5 223.5t-216.5 85.5
q-78 0 -147.5 -34t-116.5 -106t-47 -169z" />
    <glyph glyph-name="ydieresis" unicode="&#xff;" horiz-adv-x="1042" 
d="M37 956h199l286 -692l287 692h199l-594 -1421h-195l201 494zM227 1290q0 52 37 86.5t90 34.5q52 0 88.5 -34.5t36.5 -86.5t-36.5 -86.5t-88.5 -34.5q-53 0 -90 34.5t-37 86.5zM573 1290q0 52 37 86.5t90 34.5t90 -34.5t37 -86.5t-37 -86.5t-90 -34.5t-90 34.5t-37 86.5z
" />
    <glyph glyph-name="Amacron" unicode="&#x100;" horiz-adv-x="1320" 
d="M23 0l536 1411h205l534 -1411h-200l-137 358h-599l-137 -358h-202zM401 1642v164h517v-164h-517zM428 530h467l-233 627z" />
    <glyph glyph-name="amacron" unicode="&#x101;" horiz-adv-x="1253" 
d="M92 479q0 148 67 263t177 175t242 60q105 0 197.5 -42.5t137.5 -121.5v143h185v-956h-185v147q-46 -79 -138.5 -123t-196.5 -44q-202 0 -344 139t-142 360zM283 481q0 -139 90 -229t221 -90q133 0 225 86t92 233q0 98 -48 171.5t-118.5 108t-150.5 34.5
q-132 0 -221.5 -87t-89.5 -227zM367 1188v164h516v-164h-516z" />
    <glyph glyph-name="Abreve" unicode="&#x102;" horiz-adv-x="1320" 
d="M23 0l536 1411h205l534 -1411h-200l-137 358h-599l-137 -358h-202zM393 1853h152q0 -54 30.5 -87t83.5 -33q51 0 82 37t31 83h156q0 -121 -73.5 -191.5t-195.5 -70.5q-132 0 -199 75.5t-67 186.5zM428 530h467l-233 627z" />
    <glyph glyph-name="abreve" unicode="&#x103;" horiz-adv-x="1253" 
d="M92 479q0 148 67 263t177 175t242 60q105 0 197.5 -42.5t137.5 -121.5v143h185v-956h-185v147q-46 -79 -138.5 -123t-196.5 -44q-202 0 -344 139t-142 360zM283 481q0 -139 90 -229t221 -90q133 0 225 86t92 233q0 98 -48 171.5t-118.5 108t-150.5 34.5
q-132 0 -221.5 -87t-89.5 -227zM358 1399h152q0 -54 31 -87.5t84 -33.5q51 0 81.5 37t30.5 84h156q0 -121 -73 -191.5t-195 -70.5q-90 0 -152 38t-88.5 95.5t-26.5 128.5z" />
    <glyph glyph-name="Aogonek" unicode="&#x104;" horiz-adv-x="1320" 
d="M23 0l536 1411h205l534 -1411h-90l-63 -178q-12 -32 -0.5 -64t41.5 -45q31 -9 60 4t42 43q2 4 3.5 10.5t2 12.5t0.5 11v8v3l131 9q0 -54 -20 -101q-26 -61 -75.5 -96t-108.5 -35q-41 0 -80 17q-61 26 -95 76.5t-34 111.5q0 47 16 86l68 129l-135 356h-599l-137 -358h-202
zM428 530h467l-233 627z" />
    <glyph glyph-name="aogonek" unicode="&#x105;" horiz-adv-x="1253" 
d="M92 479q0 148 67 263t177 175t242 60q105 0 197.5 -42.5t137.5 -121.5v143h185v-956h-74l-63 -178q-13 -32 -1.5 -64t41.5 -45q31 -9 60.5 4t42.5 43q2 4 3.5 10.5t2 12.5t0.5 11v8v3l131 9q0 -54 -20 -101q-26 -61 -76 -96t-109 -35q-41 0 -80 17q-61 26 -95 76.5
t-34 111.5q0 45 17 86l69 129v145q-46 -79 -138.5 -123t-196.5 -44q-202 0 -344 139t-142 360zM283 481q0 -139 90 -229t221 -90q133 0 225 86t92 233q0 98 -48 171.5t-118.5 108t-150.5 34.5q-132 0 -221.5 -87t-89.5 -227z" />
    <glyph glyph-name="Cacute" unicode="&#x106;" horiz-adv-x="1398" 
d="M100 702q0 198 95 364.5t259.5 263.5t360.5 97q160 0 297.5 -63.5t233.5 -175.5l-144 -119q-75 81 -174.5 127.5t-212.5 46.5q-145 0 -265.5 -72.5t-189.5 -196.5t-69 -272q0 -147 69 -271t189.5 -195.5t265.5 -71.5q117 0 218 47.5t173 132.5l144 -121
q-95 -114 -234 -178.5t-301 -64.5q-147 0 -279.5 57t-228 154t-151.5 230.5t-56 280.5zM674 1589l198 316h224l-244 -316h-178z" />
    <glyph glyph-name="cacute" unicode="&#x107;" horiz-adv-x="1048" 
d="M92 481q0 147 70 261.5t184.5 174.5t251.5 60q109 0 205 -40t164 -114l-142 -118q-90 90 -227 90q-134 0 -228 -87t-94 -227q0 -141 94.5 -231t227.5 -90q136 0 227 94l144 -119q-68 -74 -164.5 -114.5t-206.5 -40.5q-136 0 -251 61t-185 177t-70 263zM438 1135l199 315
h223l-244 -315h-178z" />
    <glyph glyph-name="Ccircumflex" unicode="&#x108;" horiz-adv-x="1398" 
d="M100 702q0 198 95 364.5t259.5 263.5t360.5 97q160 0 297.5 -63.5t233.5 -175.5l-144 -119q-75 81 -174.5 127.5t-212.5 46.5q-145 0 -265.5 -72.5t-189.5 -196.5t-69 -272q0 -147 69 -271t189.5 -195.5t265.5 -71.5q117 0 218 47.5t173 132.5l144 -121
q-95 -114 -234 -178.5t-301 -64.5q-147 0 -279.5 57t-228 154t-151.5 230.5t-56 280.5zM492 1589l225 316h190l226 -316h-168l-154 178l-152 -178h-167z" />
    <glyph glyph-name="ccircumflex" unicode="&#x109;" horiz-adv-x="1048" 
d="M92 481q0 147 70 261.5t184.5 174.5t251.5 60q109 0 205 -40t164 -114l-142 -118q-90 90 -227 90q-134 0 -228 -87t-94 -227q0 -141 94.5 -231t227.5 -90q136 0 227 94l144 -119q-68 -74 -164.5 -114.5t-206.5 -40.5q-136 0 -251 61t-185 177t-70 263zM270 1135l226 315
h190l225 -315h-168l-153 178l-152 -178h-168z" />
    <glyph glyph-name="Cdotaccent" unicode="&#x10a;" horiz-adv-x="1398" 
d="M100 702q0 198 95 364.5t259.5 263.5t360.5 97q160 0 297.5 -63.5t233.5 -175.5l-144 -119q-75 81 -174.5 127.5t-212.5 46.5q-145 0 -265.5 -72.5t-189.5 -196.5t-69 -272q0 -147 69 -271t189.5 -195.5t265.5 -71.5q117 0 218 47.5t173 132.5l144 -121
q-95 -114 -234 -178.5t-301 -64.5q-147 0 -279.5 57t-228 154t-151.5 230.5t-56 280.5zM651 1763q0 52 38 86.5t91 34.5q54 0 91.5 -34.5t37.5 -86.5t-37.5 -86.5t-91.5 -34.5q-53 0 -91 34.5t-38 86.5z" />
    <glyph glyph-name="cdotaccent" unicode="&#x10b;" horiz-adv-x="1048" 
d="M92 481q0 147 70 261.5t184.5 174.5t251.5 60q109 0 205 -40t164 -114l-142 -118q-90 90 -227 90q-134 0 -228 -87t-94 -227q0 -141 94.5 -231t227.5 -90q136 0 227 94l144 -119q-68 -74 -164.5 -114.5t-206.5 -40.5q-136 0 -251 61t-185 177t-70 263zM461 1309
q0 52 38 86.5t91 34.5q54 0 91.5 -34.5t37.5 -86.5t-37.5 -86.5t-91.5 -34.5q-53 0 -91 34.5t-38 86.5z" />
    <glyph glyph-name="Ccaron" unicode="&#x10c;" horiz-adv-x="1398" 
d="M100 702q0 198 95 364.5t259.5 263.5t360.5 97q160 0 297.5 -63.5t233.5 -175.5l-144 -119q-75 81 -174.5 127.5t-212.5 46.5q-145 0 -265.5 -72.5t-189.5 -196.5t-69 -272q0 -147 69 -271t189.5 -195.5t265.5 -71.5q117 0 218 47.5t173 132.5l144 -121
q-95 -114 -234 -178.5t-301 -64.5q-147 0 -279.5 57t-228 154t-151.5 230.5t-56 280.5zM463 1905h168l151 -179l154 179h168l-225 -316h-191z" />
    <glyph glyph-name="ccaron" unicode="&#x10d;" horiz-adv-x="1048" 
d="M92 481q0 147 70 261.5t184.5 174.5t251.5 60q109 0 205 -40t164 -114l-142 -118q-90 90 -227 90q-134 0 -228 -87t-94 -227q0 -141 94.5 -231t227.5 -90q136 0 227 94l144 -119q-68 -74 -164.5 -114.5t-206.5 -40.5q-136 0 -251 61t-185 177t-70 263zM252 1450h168
l151 -178l154 178h168l-225 -315h-191z" />
    <glyph glyph-name="Dcaron" unicode="&#x10e;" horiz-adv-x="1482" 
d="M193 0v1411h546q147 0 268 -54.5t200.5 -150t123 -225t43.5 -279.5t-43.5 -278t-123.5 -222.5t-200.5 -148t-267.5 -53.5h-546zM383 178h356q107 0 192.5 40t140 111t83.5 166t29 207q0 151 -49 269.5t-151.5 190t-244.5 71.5h-356v-1055zM446 1905h168l152 -179l154 179
h167l-225 -316h-190z" />
    <glyph glyph-name="dcaron" unicode="&#x10f;" horiz-adv-x="1232" 
d="M92 481q0 222 140.5 358t349.5 136q92 0 176.5 -34.5t134.5 -100.5v604h184v-1444h-180v125q-51 -68 -137.5 -105.5t-177.5 -37.5q-136 0 -247 60.5t-177 175.5t-66 263zM276 481q0 -137 88 -226t218 -89q131 0 221 84.5t90 230.5q0 97 -48 169.5t-117.5 106.5t-145.5 34
q-131 0 -218.5 -85.5t-87.5 -224.5zM1163 1055q62 85 83.5 159t10.5 197h185q2 -263 -160 -395z" />
    <glyph glyph-name="Dcroat" unicode="&#x110;" horiz-adv-x="1482" 
d="M14 637v139h191v635h538q195 0 339.5 -94t217 -253.5t72.5 -361.5q0 -201 -72.5 -358.5t-216.5 -250.5t-340 -93h-538v637h-191zM395 188h348q211 0 325 142t114 372q0 150 -48 266t-149 185.5t-242 69.5h-348v-447h338v-139h-338v-449z" />
    <glyph glyph-name="dcroat" unicode="&#x111;" horiz-adv-x="1253" 
d="M92 479q0 148 66 263t174.5 175t240.5 60q110 0 201 -42.5t137 -121.5v332h-307v127h307v205h187v-205h153v-127h-153v-2v-1143h-187v147q-46 -79 -139 -123t-197 -44q-131 0 -240.5 60.5t-176 176t-66.5 262.5zM283 481q0 -139 89 -229t220 -90q132 0 224.5 86.5
t92.5 232.5q0 98 -48 171.5t-118.5 108t-150.5 34.5q-132 0 -220.5 -87t-88.5 -227z" />
    <glyph glyph-name="Emacron" unicode="&#x112;" horiz-adv-x="1157" 
d="M193 0v1411h835v-178h-645v-451h563v-178h-563v-426h666v-178h-856zM358 1642v164h516v-164h-516z" />
    <glyph glyph-name="emacron" unicode="&#x113;" horiz-adv-x="1138" 
d="M92 481q0 222 140.5 359t349.5 137q207 0 341 -136t134 -360q0 -53 -2 -73h-776q17 -119 102 -190t207 -71q87 0 161 39t113 109q28 -11 86 -33.5t74 -28.5q-60 -122 -178.5 -187.5t-261.5 -65.5q-208 0 -349 139t-141 362zM279 553h593q-17 119 -95.5 187.5t-194.5 68.5
q-120 0 -203 -68.5t-100 -187.5zM315 1188v164h516v-164h-516z" />
    <glyph glyph-name="Ebreve" unicode="&#x114;" horiz-adv-x="1157" 
d="M193 0v1411h835v-178h-645v-451h563v-178h-563v-426h666v-178h-856zM311 1853h152q0 -53 31 -86.5t84 -33.5q51 0 81.5 37t30.5 83h156q0 -121 -73 -191.5t-195 -70.5q-90 0 -152 38t-88.5 95.5t-26.5 128.5z" />
    <glyph glyph-name="ebreve" unicode="&#x115;" horiz-adv-x="1138" 
d="M92 481q0 222 140.5 359t349.5 137q207 0 341 -136t134 -360q0 -53 -2 -73h-776q17 -119 102 -190t207 -71q87 0 161 39t113 109q28 -11 86 -33.5t74 -28.5q-60 -122 -178.5 -187.5t-261.5 -65.5q-208 0 -349 139t-141 362zM279 553h593q-17 119 -95.5 187.5t-194.5 68.5
q-120 0 -203 -68.5t-100 -187.5zM307 1399h152q0 -54 30.5 -87.5t83.5 -33.5q51 0 82 37.5t31 83.5h156q0 -121 -73.5 -191.5t-195.5 -70.5q-132 0 -199 75.5t-67 186.5z" />
    <glyph glyph-name="Edotaccent" unicode="&#x116;" horiz-adv-x="1157" 
d="M193 0v1411h835v-178h-645v-451h563v-178h-563v-426h666v-178h-856zM496 1763q0 52 38 86.5t91 34.5q54 0 91.5 -34.5t37.5 -86.5t-37.5 -86.5t-91.5 -34.5q-53 0 -91 34.5t-38 86.5z" />
    <glyph glyph-name="edotaccent" unicode="&#x117;" horiz-adv-x="1138" 
d="M92 481q0 222 140.5 359t349.5 137q207 0 341 -136t134 -360q0 -53 -2 -73h-776q17 -119 102 -190t207 -71q87 0 161 39t113 109q28 -11 86 -33.5t74 -28.5q-60 -122 -178.5 -187.5t-261.5 -65.5q-208 0 -349 139t-141 362zM279 553h593q-17 119 -95.5 187.5t-194.5 68.5
q-120 0 -203 -68.5t-100 -187.5zM455 1309q0 52 38 86.5t91 34.5q54 0 91.5 -34.5t37.5 -86.5t-37.5 -86.5t-91.5 -34.5q-53 0 -91 34.5t-38 86.5z" />
    <glyph glyph-name="Eogonek" unicode="&#x118;" horiz-adv-x="1157" 
d="M193 0v1411h835v-178h-645v-451h563v-178h-563v-426h666v-178h-11l-55 -156q-12 -32 -0.5 -63.5t41.5 -44.5q31 -9 60 4t42 43q4 7 5.5 18.5t1.5 18.5v8l131 8q0 -50 -21 -100q-26 -61 -75.5 -96t-108.5 -35q-43 0 -80 16q-61 26 -95 77t-34 112q0 47 16 86l56 104h-729z
" />
    <glyph glyph-name="eogonek" unicode="&#x119;" horiz-adv-x="1140" 
d="M92 481q0 222 140.5 359t349.5 137q207 0 341 -136t134 -360q0 -53 -2 -73h-776q17 -119 102 -190t207 -71q87 0 161 39t113 109l160 -62q-11 -23 -43 -59.5t-63.5 -73t-71 -111t-68.5 -167.5q-11 -32 0 -64t41 -45q31 -9 60.5 4t42.5 43q2 4 3.5 10.5t2 12.5t0.5 11v8v3
l131 9q0 -52 -21 -101q-26 -61 -75.5 -96t-108.5 -35q-41 0 -80 17q-61 26 -95 76.5t-34 111.5q0 47 16 86l68 125q-71 -18 -145 -18q-208 0 -349 139t-141 362zM279 553h593q-17 119 -95.5 187.5t-194.5 68.5q-120 0 -203 -68.5t-100 -187.5z" />
    <glyph glyph-name="Ecaron" unicode="&#x11a;" horiz-adv-x="1157" 
d="M193 0v1411h835v-178h-645v-451h563v-178h-563v-426h666v-178h-856zM258 1905h168l152 -179l153 179h168l-225 -316h-191z" />
    <glyph glyph-name="ecaron" unicode="&#x11b;" horiz-adv-x="1138" 
d="M92 481q0 222 140.5 359t349.5 137q207 0 341 -136t134 -360q0 -53 -2 -73h-776q17 -119 102 -190t207 -71q87 0 161 39t113 109q28 -11 86 -33.5t74 -28.5q-60 -122 -178.5 -187.5t-261.5 -65.5q-208 0 -349 139t-141 362zM254 1450h168l151 -178l154 178h168l-225 -315
h-191zM279 553h593q-17 119 -95.5 187.5t-194.5 68.5q-120 0 -203 -68.5t-100 -187.5z" />
    <glyph glyph-name="Gcircumflex" unicode="&#x11c;" horiz-adv-x="1548" 
d="M100 702q0 198 94 364.5t258 263.5t361 97q137 0 260 -49t217 -137l-137 -127q-147 131 -340 131q-145 0 -265 -73t-188.5 -197.5t-68.5 -272.5t68.5 -272t188.5 -196t265 -72q192 0 317 104t134 277h-402v166h619q0 -362 -178 -545.5t-490 -183.5q-148 0 -280.5 57
t-227 154t-150 230.5t-55.5 280.5zM461 1589l225 316h191l225 -316h-168l-154 178l-151 -178h-168z" />
    <glyph glyph-name="gcircumflex" unicode="&#x11d;" horiz-adv-x="1251" 
d="M92 475q0 148 67 264t177 177t242 61q104 0 196.5 -45t138.5 -125v149h185v-811q0 -622 -523 -622q-134 0 -249 67t-183 191q14 6 81 42t75 40q41 -77 117.5 -120.5t158.5 -43.5q340 0 340 434q0 4 -1 11.5t-1 11.5q-41 -82 -136 -129t-199 -47q-132 0 -242 59.5
t-177 174t-67 261.5zM283 477q0 -143 89 -229t222 -86q59 0 115 21t101.5 60t73 100t27.5 134q0 148 -91.5 233t-225.5 85q-131 0 -221 -90t-90 -228zM305 1135l225 315h191l225 -315h-168l-153 178l-152 -178h-168z" />
    <glyph glyph-name="Gbreve" unicode="&#x11e;" horiz-adv-x="1548" 
d="M100 702q0 198 94 364.5t258 263.5t361 97q137 0 260 -49t217 -137l-137 -127q-147 131 -340 131q-145 0 -265 -73t-188.5 -197.5t-68.5 -272.5t68.5 -272t188.5 -196t265 -72q192 0 317 104t134 277h-402v166h619q0 -362 -178 -545.5t-490 -183.5q-148 0 -280.5 57
t-227 154t-150 230.5t-55.5 280.5zM514 1853h152q0 -54 30.5 -87t83.5 -33q51 0 82 37t31 83h156q0 -121 -73.5 -191.5t-195.5 -70.5q-132 0 -199 75.5t-67 186.5z" />
    <glyph glyph-name="gbreve" unicode="&#x11f;" horiz-adv-x="1251" 
d="M92 475q0 148 67 264t177 177t242 61q104 0 196.5 -45t138.5 -125v149h185v-811q0 -622 -523 -622q-134 0 -249 67t-183 191q14 6 81 42t75 40q41 -77 117.5 -120.5t158.5 -43.5q340 0 340 434q0 4 -1 11.5t-1 11.5q-41 -82 -136 -129t-199 -47q-132 0 -242 59.5
t-177 174t-67 261.5zM283 477q0 -143 89 -229t222 -86q59 0 115 21t101.5 60t73 100t27.5 134q0 148 -91.5 233t-225.5 85q-131 0 -221 -90t-90 -228zM358 1399h152q0 -54 31 -87.5t84 -33.5q51 0 81.5 37t30.5 84h156q0 -121 -73 -191.5t-195 -70.5q-90 0 -152 38
t-88.5 95.5t-26.5 128.5z" />
    <glyph glyph-name="Gdotaccent" unicode="&#x120;" horiz-adv-x="1548" 
d="M100 702q0 198 94 364.5t258 263.5t361 97q137 0 260 -49t217 -137l-137 -127q-147 131 -340 131q-145 0 -265 -73t-188.5 -197.5t-68.5 -272.5t68.5 -272t188.5 -196t265 -72q192 0 317 104t134 277h-402v166h619q0 -362 -178 -545.5t-490 -183.5q-148 0 -280.5 57
t-227 154t-150 230.5t-55.5 280.5zM678 1763q0 52 38 86.5t91 34.5q54 0 91.5 -34.5t37.5 -86.5t-37.5 -86.5t-91.5 -34.5q-53 0 -91 34.5t-38 86.5z" />
    <glyph glyph-name="gdotaccent" unicode="&#x121;" horiz-adv-x="1251" 
d="M92 475q0 148 67 264t177 177t242 61q104 0 196.5 -45t138.5 -125v149h185v-811q0 -622 -523 -622q-134 0 -249 67t-183 191q14 6 81 42t75 40q41 -77 117.5 -120.5t158.5 -43.5q340 0 340 434q0 4 -1 11.5t-1 11.5q-41 -82 -136 -129t-199 -47q-132 0 -242 59.5
t-177 174t-67 261.5zM283 477q0 -143 89 -229t222 -86q59 0 115 21t101.5 60t73 100t27.5 134q0 148 -91.5 233t-225.5 85q-131 0 -221 -90t-90 -228zM496 1309q0 52 38 86.5t91 34.5q54 0 91.5 -34.5t37.5 -86.5t-37.5 -86.5t-91.5 -34.5q-53 0 -91 34.5t-38 86.5z" />
    <glyph glyph-name="Gcommaaccent" unicode="&#x122;" horiz-adv-x="1548" 
d="M100 702q0 198 94 364.5t258 263.5t361 97q137 0 260 -49t217 -137l-137 -127q-147 131 -340 131q-145 0 -265 -73t-188.5 -197.5t-68.5 -272.5t68.5 -272t188.5 -196t265 -72q192 0 317 104t134 277h-402v166h619q0 -362 -178 -545.5t-490 -183.5q-148 0 -280.5 57
t-227 154t-150 230.5t-55.5 280.5zM641 -473q62 85 83.5 159t10.5 197h185q2 -263 -160 -395z" />
    <glyph glyph-name="gcommaaccent" unicode="&#x123;" horiz-adv-x="1251" 
d="M92 475q0 148 67 264t177 177t242 61q104 0 196.5 -45t138.5 -125v149h185v-811q0 -622 -523 -622q-134 0 -249 67t-183 191q14 6 81 42t75 40q41 -77 117.5 -120.5t158.5 -43.5q340 0 340 434q0 4 -1 11.5t-1 11.5q-41 -82 -136 -129t-199 -47q-132 0 -242 59.5
t-177 174t-67 261.5zM283 477q0 -143 89 -229t222 -86q59 0 115 21t101.5 60t73 100t27.5 134q0 148 -91.5 233t-225.5 85q-131 0 -221 -90t-90 -228zM475 1139q-2 263 160 395l119 -39q-63 -85 -84.5 -159t-10.5 -197h-184z" />
    <glyph glyph-name="Hcircumflex" unicode="&#x124;" horiz-adv-x="1449" 
d="M193 0v1411h190v-623h682v623h192v-1411h-192v614h-682v-614h-190zM403 1589l226 316h190l225 -316h-167l-154 178l-152 -178h-168z" />
    <glyph glyph-name="hcircumflex" unicode="&#x125;" 
d="M-70 1567l226 315h190l225 -315h-168l-153 178l-152 -178h-168zM156 0v1477h186v-664q39 79 132 121.5t183 42.5q181 0 284.5 -112t102.5 -312v-553h-186v541q0 117 -62.5 185.5t-162.5 68.5q-52 0 -101 -15.5t-93 -46.5t-70.5 -87.5t-26.5 -129.5v-516h-186z" />
    <glyph glyph-name="Hbar" unicode="&#x126;" horiz-adv-x="1466" 
d="M61 1028v127h142v256h190v-256h680v256h191v-256h143v-127h-143v-1028h-191v610h-680v-610h-190v1028h-142zM393 791h680v237h-680v-237z" />
    <glyph glyph-name="hbar" unicode="&#x127;" 
d="M12 1145v127h144v205h186v-205h266v-127h-266v-332q39 79 132 121.5t183 42.5q181 0 284.5 -112t102.5 -312v-553h-186v541q0 117 -62.5 185.5t-162.5 68.5q-52 0 -101 -15.5t-93 -46.5t-70.5 -87.5t-26.5 -129.5v-516h-186v1145h-144z" />
    <glyph glyph-name="Itilde" unicode="&#x128;" horiz-adv-x="575" 
d="M16 1614q7 125 59 182t122 57q9 0 17.5 -0.5t17 -3t14 -4t14 -6t12 -5.5t12 -7t10 -7t11.5 -8l10 -8q45 -35 64 -35q21 0 38.5 19.5t18.5 64.5h125q-7 -123 -60 -178t-122 -55q-53 0 -117 51q-4 3 -17 11.5t-18 11.5t-14 6.5t-16 3.5q-19 0 -37 -22t-19 -68h-125zM193 0
v1411h190v-1411h-190z" />
    <glyph glyph-name="itilde" unicode="&#x129;" horiz-adv-x="493" 
d="M-16 1159q7 125 59 182.5t121 57.5q26 0 51 -9t34.5 -15.5t33.5 -24.5q45 -35 63 -35q21 0 38.5 19.5t18.5 64.5h125q-7 -123 -60 -178.5t-122 -55.5q-25 0 -49 9.5t-35.5 17.5t-32.5 25q-4 3 -14 9.5t-14.5 9t-12 6.5t-13 5.5t-11.5 1.5q-19 0 -36.5 -22t-18.5 -68h-125
zM156 0v956h182v-956h-182z" />
    <glyph glyph-name="Imacron" unicode="&#x12a;" horiz-adv-x="575" 
d="M31 1642v164h516v-164h-516zM193 0v1411h190v-1411h-190z" />
    <glyph glyph-name="imacron" unicode="&#x12b;" horiz-adv-x="493" 
d="M-2 1188v164h516v-164h-516zM156 0v956h182v-956h-182z" />
    <glyph glyph-name="Ibreve" unicode="&#x12c;" horiz-adv-x="575" 
d="M20 1853h152q0 -53 31 -86.5t84 -33.5q51 0 81.5 37t30.5 83h156q0 -121 -73 -191.5t-195 -70.5q-90 0 -152 38t-88.5 95.5t-26.5 128.5zM193 0v1411h190v-1411h-190z" />
    <glyph glyph-name="ibreve" unicode="&#x12d;" horiz-adv-x="493" 
d="M-10 1399h151q0 -54 31 -87.5t84 -33.5q51 0 82 37.5t31 83.5h155q0 -121 -73 -191.5t-195 -70.5q-132 0 -199 75.5t-67 186.5zM156 0v956h182v-956h-182z" />
    <glyph glyph-name="Iogonek" unicode="&#x12e;" horiz-adv-x="575" 
d="M106 -213q0 45 17 86l70 129v1409h190v-1411h-80l-63 -178q-12 -32 -0.5 -64t41.5 -45q31 -9 60 4t42 43q2 4 3.5 10.5t2 12.5t0.5 11v8v3l131 9q0 -54 -20 -101q-26 -61 -76 -96t-109 -35q-40 0 -79 17q-61 26 -95.5 76.5t-34.5 111.5z" />
    <glyph glyph-name="iogonek" unicode="&#x12f;" horiz-adv-x="495" 
d="M72 -213q0 47 16 86l68 127v956h184v-956h-72l-63 -178q-12 -32 -0.5 -64t41.5 -45q31 -9 60 4t42 43q2 4 3.5 10.5t2 12.5t0.5 11v8v3l131 9q0 -54 -20 -101q-26 -61 -75.5 -96t-108.5 -35q-41 0 -80 17q-61 26 -95 76.5t-34 111.5zM150 1309q0 52 38 86.5t91 34.5
q54 0 91.5 -34.5t37.5 -86.5t-37.5 -86.5t-91.5 -34.5q-53 0 -91 34.5t-38 86.5z" />
    <glyph glyph-name="Idotaccent" unicode="&#x130;" horiz-adv-x="575" 
d="M160 1763q0 52 38 86.5t91 34.5q54 0 91.5 -34.5t37.5 -86.5t-37.5 -86.5t-91.5 -34.5q-53 0 -91 34.5t-38 86.5zM193 0v1411h190v-1411h-190z" />
    <glyph glyph-name="dotlessi" unicode="&#x131;" horiz-adv-x="495" 
d="M156 0v956h184v-956h-184z" />
    <glyph glyph-name="IJ" unicode="&#x132;" horiz-adv-x="1150" 
d="M193 0v1411h190v-1411h-190zM371 -492l18 181q20 -7 68.5 -12t66.5 -5q85 0 141.5 38.5t79.5 97.5t23 137v1466h190v-1466q0 -77 -14.5 -143.5t-47.5 -125t-82 -100.5t-123 -66t-167 -24q-45 0 -153 22z" />
    <glyph glyph-name="ij" unicode="&#x133;" horiz-adv-x="995" 
d="M119 1309q0 52 38 86.5t91 34.5q54 0 91.5 -34.5t37.5 -86.5t-37.5 -86.5t-91.5 -34.5q-53 0 -91 34.5t-38 86.5zM156 0v956h184v-956h-184zM369 -295h110q45 0 78 15t51 37t28 55.5t13 63.5t2 67v1013h189v-1015q0 -410 -344 -410h-127v174zM616 1309q0 52 38 86.5
t91 34.5q54 0 91.5 -34.5t37.5 -86.5t-37.5 -86.5t-91.5 -34.5q-53 0 -91 34.5t-38 86.5z" />
    <glyph glyph-name="Jcircumflex" unicode="&#x134;" horiz-adv-x="575" 
d="M-205 -492l19 181q20 -7 68.5 -12t66.5 -5q85 0 141.5 38.5t79.5 97.5t23 137v1466h190v-1466q0 -77 -14.5 -143.5t-47.5 -125t-82 -100.5t-123 -66t-167 -24q-46 0 -154 22zM-47 1589l225 316h191l225 -316h-168l-154 178l-151 -178h-168z" />
    <glyph glyph-name="jcircumflex" unicode="&#x135;" horiz-adv-x="499" 
d="M-127 -295h111q45 0 78 15t51 37t28 55.5t13 63.5t2 67v1013h188v-1015q0 -410 -344 -410h-127v174zM-61 1135l225 315h190l226 -315h-168l-154 178l-152 -178h-167z" />
    <glyph glyph-name="Kcommaaccent" unicode="&#x136;" horiz-adv-x="1183" 
d="M193 0v1411h190v-610l467 610h235l-542 -704l655 -707h-256l-559 602v-602h-190zM498 -473q62 85 83.5 159t10.5 197h184q2 -263 -160 -395z" />
    <glyph glyph-name="kcommaaccent" unicode="&#x137;" horiz-adv-x="1028" 
d="M156 0v1477h184v-854l330 333h254l-410 -413l508 -543h-246l-436 467v-467h-184zM387 -473q62 85 83.5 159t10.5 197h185q2 -263 -160 -395z" />
    <glyph glyph-name="kgreenlandic" unicode="&#x138;" horiz-adv-x="1011" 
d="M156 0v956h184v-383l365 383h243l-444 -473l487 -483h-258l-393 383v-383h-184z" />
    <glyph glyph-name="Lacute" unicode="&#x139;" horiz-adv-x="1013" 
d="M193 0v1411h190v-1233h575v-178h-765zM205 1567l198 315h224l-244 -315h-178z" />
    <glyph glyph-name="lacute" unicode="&#x13a;" horiz-adv-x="497" 
d="M156 0v1477h186v-1477h-186zM158 1591l198 316h224l-244 -316h-178z" />
    <glyph glyph-name="Lcommaaccent" unicode="&#x13b;" horiz-adv-x="1013" 
d="M193 0v1411h190v-1233h575v-178h-765zM373 -473q62 85 83.5 159t10.5 197h184q3 -264 -159 -395z" />
    <glyph glyph-name="lcommaaccent" unicode="&#x13c;" horiz-adv-x="497" 
d="M63 -473q63 85 84.5 159t10.5 197h184q2 -263 -160 -395zM156 0v1477h186v-1477h-186z" />
    <glyph glyph-name="Lcaron" unicode="&#x13d;" horiz-adv-x="1013" 
d="M193 0v1411h190v-1233h575v-178h-765zM518 1055q62 85 83.5 159t10.5 197h185q2 -263 -160 -395z" />
    <glyph glyph-name="lcaron" unicode="&#x13e;" horiz-adv-x="497" 
d="M156 0v1477h186v-1477h-186zM428 1120q62 85 83.5 159.5t10.5 197.5h185q3 -264 -160 -396z" />
    <glyph glyph-name="Ldot" unicode="&#x13f;" horiz-adv-x="1013" 
d="M193 0v1411h190v-1233h575v-178h-765zM545 535q0 55 39 92t94 37q56 0 95.5 -37t39.5 -92t-39.5 -91t-95.5 -36q-55 0 -94 36t-39 91z" />
    <glyph glyph-name="ldot" unicode="&#x140;" horiz-adv-x="690" 
d="M156 0v1477h186v-1477h-186zM457 535q0 55 39 92t94 37q56 0 95.5 -37t39.5 -92t-39.5 -91t-95.5 -36q-55 0 -94 36t-39 91z" />
    <glyph glyph-name="Lslash" unicode="&#x141;" horiz-adv-x="1021" 
d="M70 588v135l133 84v604h188v-485l213 133v-135l-213 -133v-603h574v-188h-762v672z" />
    <glyph glyph-name="lslash" unicode="&#x142;" horiz-adv-x="522" 
d="M35 565v131l137 88v693h184v-576l158 103v-132l-158 -102v-770h-184v653z" />
    <glyph glyph-name="Nacute" unicode="&#x143;" horiz-adv-x="1400" 
d="M193 0v1411h188l637 -1055v1055h190v-1411h-182l-643 1063v-1063h-190zM551 1589l199 316h223l-244 -316h-178z" />
    <glyph glyph-name="nacute" unicode="&#x144;" horiz-adv-x="1153" 
d="M156 0v956h186v-143q40 80 126 122t173 42q178 0 273.5 -111t95.5 -313v-553h-187v541q0 120 -56 187t-155 67q-53 0 -99.5 -15.5t-85.5 -47.5t-62 -87.5t-23 -128.5v-516h-186zM444 1135l199 315h223l-243 -315h-179z" />
    <glyph glyph-name="Ncommaaccent" unicode="&#x145;" horiz-adv-x="1400" 
d="M193 0v1411h188l637 -1055v1055h190v-1411h-182l-643 1063v-1063h-190zM532 -473q63 85 84.5 159t10.5 197h184q2 -263 -160 -395z" />
    <glyph glyph-name="ncommaaccent" unicode="&#x146;" horiz-adv-x="1153" 
d="M156 0v956h186v-143q40 80 126 122t173 42q178 0 273.5 -111t95.5 -313v-553h-187v541q0 120 -56 187t-155 67q-53 0 -99.5 -15.5t-85.5 -47.5t-62 -87.5t-23 -128.5v-516h-186zM399 -473q63 85 84.5 159t10.5 197h184q2 -263 -160 -395z" />
    <glyph glyph-name="Ncaron" unicode="&#x147;" horiz-adv-x="1400" 
d="M193 0v1411h188l637 -1055v1055h190v-1411h-182l-643 1063v-1063h-190zM379 1905h168l151 -179l154 179h168l-225 -316h-191z" />
    <glyph glyph-name="ncaron" unicode="&#x148;" horiz-adv-x="1153" 
d="M156 0v956h186v-143q40 80 126 122t173 42q178 0 273.5 -111t95.5 -313v-553h-187v541q0 120 -56 187t-155 67q-53 0 -99.5 -15.5t-85.5 -47.5t-62 -87.5t-23 -128.5v-516h-186zM256 1450h168l151 -178l154 178h168l-225 -315h-191z" />
    <glyph glyph-name="napostrophe" unicode="&#x149;" horiz-adv-x="1153" 
d="M-115 999q100 139 107 234q3 46 -8 121h194q2 -258 -160 -393zM156 0v956h186v-143q40 80 126 122t173 42q178 0 273.5 -111t95.5 -313v-553h-187v541q0 120 -56 187t-155 67q-53 0 -99.5 -15.5t-85.5 -47.5t-62 -87.5t-23 -128.5v-516h-186z" />
    <glyph glyph-name="Eng" unicode="&#x14a;" horiz-adv-x="1396" 
d="M193 0v1411h186l635 -1055v1055h190v-1403q0 -86 -11 -157.5t-41 -139.5t-77.5 -114.5t-124.5 -74.5t-178 -28q-66 0 -156 23l19 190q50 -13 113 -18q88 -6 139 24q64 28 95.5 92t31.5 148v67l-633 1035v-1055h-188z" />
    <glyph glyph-name="eng" unicode="&#x14b;" horiz-adv-x="1150" 
d="M156 0v956h186v-143q40 80 126 122t173 42q178 0 274.5 -111t94.5 -313l-2 -524q0 -80 -12.5 -148t-42.5 -130.5t-77.5 -105.5t-121.5 -68.5t-170 -25.5q-56 0 -150 21l17 186q22 -7 71 -15.5t62 -8.5q124 0 180.5 74t58.5 192v541q0 120 -56 187t-155 67
q-53 0 -99.5 -15.5t-85.5 -47.5t-62 -87.5t-23 -128.5v-516h-186z" />
    <glyph glyph-name="Omacron" unicode="&#x14c;" horiz-adv-x="1630" 
d="M100 702q0 198 94 364.5t258 263.5t361 97q198 0 363 -97t259.5 -263.5t94.5 -364.5q0 -147 -56 -280.5t-151 -230.5t-228.5 -154t-281.5 -57t-280.5 57t-227 154t-150 230.5t-55.5 280.5zM291 702q0 -148 68.5 -271.5t188.5 -195t265 -71.5q146 0 266.5 71.5t189 195
t68.5 271.5t-68.5 272t-189 196.5t-266.5 72.5q-145 0 -265 -72.5t-188.5 -196.5t-68.5 -272zM557 1642v164h516v-164h-516z" />
    <glyph glyph-name="omacron" unicode="&#x14d;" horiz-adv-x="1185" 
d="M92 481q0 147 68.5 261.5t181.5 174.5t250 60t250.5 -60t182.5 -174.5t69 -261.5t-69 -263t-183 -177t-250 -61t-249.5 61t-182 177t-68.5 263zM276 481q0 -143 91.5 -232t224.5 -89q132 0 223.5 89t91.5 232q0 141 -91 227.5t-224 86.5t-224.5 -86.5t-91.5 -227.5z
M315 1188v164h516v-164h-516z" />
    <glyph glyph-name="Obreve" unicode="&#x14e;" horiz-adv-x="1630" 
d="M100 702q0 198 94 364.5t258 263.5t361 97q198 0 363 -97t259.5 -263.5t94.5 -364.5q0 -147 -56 -280.5t-151 -230.5t-228.5 -154t-281.5 -57t-280.5 57t-227 154t-150 230.5t-55.5 280.5zM291 702q0 -148 68.5 -271.5t188.5 -195t265 -71.5q146 0 266.5 71.5t189 195
t68.5 271.5t-68.5 272t-189 196.5t-266.5 72.5q-145 0 -265 -72.5t-188.5 -196.5t-68.5 -272zM547 1853h151q0 -53 31 -86.5t84 -33.5q51 0 82 37t31 83h155q0 -121 -73 -191.5t-195 -70.5q-132 0 -199 75.5t-67 186.5z" />
    <glyph glyph-name="obreve" unicode="&#x14f;" horiz-adv-x="1185" 
d="M92 481q0 147 68.5 261.5t181.5 174.5t250 60t250.5 -60t182.5 -174.5t69 -261.5t-69 -263t-183 -177t-250 -61t-249.5 61t-182 177t-68.5 263zM276 481q0 -143 91.5 -232t224.5 -89q132 0 223.5 89t91.5 232q0 141 -91 227.5t-224 86.5t-224.5 -86.5t-91.5 -227.5z
M326 1399h151q0 -54 31 -87.5t84 -33.5q51 0 82 37.5t31 83.5h155q0 -121 -73 -191.5t-195 -70.5q-132 0 -199 75.5t-67 186.5z" />
    <glyph glyph-name="Ohungarumlaut" unicode="&#x150;" horiz-adv-x="1630" 
d="M100 702q0 198 94 364.5t258 263.5t361 97q198 0 363 -97t259.5 -263.5t94.5 -364.5q0 -147 -56 -280.5t-151 -230.5t-228.5 -154t-281.5 -57t-280.5 57t-227 154t-150 230.5t-55.5 280.5zM291 702q0 -148 68.5 -271.5t188.5 -195t265 -71.5q146 0 266.5 71.5t189 195
t68.5 271.5t-68.5 272t-189 196.5t-266.5 72.5q-145 0 -265 -72.5t-188.5 -196.5t-68.5 -272zM575 1589l164 316h189l-183 -316h-170zM848 1589l182 316h193l-209 -316h-166z" />
    <glyph glyph-name="ohungarumlaut" unicode="&#x151;" horiz-adv-x="1185" 
d="M92 481q0 147 68.5 261.5t181.5 174.5t250 60t250.5 -60t182.5 -174.5t69 -261.5t-69 -263t-183 -177t-250 -61t-249.5 61t-182 177t-68.5 263zM276 481q0 -143 91.5 -232t224.5 -89q132 0 223.5 89t91.5 232q0 141 -91 227.5t-224 86.5t-224.5 -86.5t-91.5 -227.5z
M322 1135l163 315h189l-182 -315h-170zM594 1135l182 315h193l-209 -315h-166z" />
    <glyph glyph-name="OE" unicode="&#x152;" horiz-adv-x="2293" 
d="M102 702q0 148 55 282t149.5 231t226 154.5t278.5 57.5q155 0 290 -65t230 -178v227h832v-188h-641v-437h561v-188h-561v-410h663v-188h-854v221q-94 -113 -229.5 -177t-290.5 -64q-147 0 -278.5 57t-226 154t-149.5 230.5t-55 280.5zM293 702q0 -146 67.5 -268
t186.5 -193t264 -71q213 0 362 148t158 362v45q-9 214 -158 363t-362 149q-145 0 -264 -72t-186.5 -194.5t-67.5 -268.5z" />
    <glyph glyph-name="oe" unicode="&#x153;" horiz-adv-x="1955" 
d="M92 481q0 147 68.5 261.5t181.5 174.5t250 60q125 0 231.5 -51.5t175.5 -145.5q66 94 171 145.5t229 51.5q207 0 341 -136t134 -360q0 -53 -2 -73h-776q17 -119 102 -190t207 -71q87 0 161 39t113 109q28 -11 86 -33.5t74 -28.5q-60 -122 -178.5 -187.5t-261.5 -65.5
q-124 0 -229 52t-171 146q-69 -94 -176 -146t-231 -52q-136 0 -249.5 61t-182 177t-68.5 263zM276 481q0 -143 91.5 -232t224.5 -89q132 0 223.5 89t91.5 232q0 141 -91 227.5t-224 86.5t-224.5 -86.5t-91.5 -227.5zM1096 553h594q-17 119 -96 187.5t-195 68.5
q-120 0 -203 -68.5t-100 -187.5z" />
    <glyph glyph-name="Racute" unicode="&#x154;" horiz-adv-x="1267" 
d="M193 0v1411h542q107 0 190 -37.5t131 -101t72.5 -140.5t24.5 -163q0 -81 -21 -153t-64 -133t-115.5 -100.5t-168.5 -47.5l377 -535h-231l-365 528h-180v-528h-192zM385 707h336q62 0 109 22t73.5 60t39.5 83.5t13 96.5q0 69 -21.5 126.5t-74.5 97.5t-131 40h-344v-526z
M420 1589l198 316h224l-244 -316h-178z" />
    <glyph glyph-name="racute" unicode="&#x155;" horiz-adv-x="808" 
d="M156 0v956h186v-215q69 236 266 236q49 0 96.5 -11.5t69.5 -25.5l-29 -174q-67 33 -141 33q-89 0 -149 -61t-86.5 -160t-26.5 -230v-348h-186zM158 1135l198 315h224l-244 -315h-178z" />
    <glyph glyph-name="Rcommaaccent" unicode="&#x156;" horiz-adv-x="1267" 
d="M193 0v1411h542q107 0 190 -37.5t131 -101t72.5 -140.5t24.5 -163q0 -81 -21 -153t-64 -133t-115.5 -100.5t-168.5 -47.5l377 -535h-231l-365 528h-180v-528h-192zM385 707h336q62 0 109 22t73.5 60t39.5 83.5t13 96.5q0 69 -21.5 126.5t-74.5 97.5t-131 40h-344v-526z
M467 -473q62 85 83.5 159t10.5 197h184q3 -264 -159 -395z" />
    <glyph glyph-name="rcommaaccent" unicode="&#x157;" horiz-adv-x="808" 
d="M63 -473q63 85 84.5 159t10.5 197h184q2 -263 -160 -395zM156 0v956h186v-215q69 236 266 236q49 0 96.5 -11.5t69.5 -25.5l-29 -174q-67 33 -141 33q-89 0 -149 -61t-86.5 -160t-26.5 -230v-348h-186z" />
    <glyph glyph-name="Rcaron" unicode="&#x158;" horiz-adv-x="1267" 
d="M193 0v1411h542q107 0 190 -37.5t131 -101t72.5 -140.5t24.5 -163q0 -81 -21 -153t-64 -133t-115.5 -100.5t-168.5 -47.5l377 -535h-231l-365 528h-180v-528h-192zM311 1905h168l152 -179l153 179h168l-225 -316h-190zM385 707h336q62 0 109 22t73.5 60t39.5 83.5
t13 96.5q0 69 -21.5 126.5t-74.5 97.5t-131 40h-344v-526z" />
    <glyph glyph-name="rcaron" unicode="&#x159;" horiz-adv-x="808" 
d="M100 1450h168l152 -178l153 178h168l-225 -315h-190zM156 0v956h186v-215q69 236 266 236q49 0 96.5 -11.5t69.5 -25.5l-29 -174q-67 33 -141 33q-89 0 -149 -61t-86.5 -160t-26.5 -230v-348h-186z" />
    <glyph glyph-name="Sacute" unicode="&#x15a;" horiz-adv-x="1173" 
d="M106 408h191q2 -97 88.5 -173.5t214.5 -76.5q127 0 199.5 60t85.5 147q4 55 -14 99t-54.5 73t-78.5 48t-93 31l-182 46q-344 87 -344 368q0 115 64 207t168 141t224 49q197 0 326 -113t129 -300h-190q0 104 -75 167.5t-192 63.5q-107 0 -185.5 -59.5t-78.5 -153.5
q0 -147 201 -196l184 -45q201 -52 299.5 -164.5t77.5 -278.5q-20 -159 -145.5 -263.5t-325.5 -104.5q-105 0 -198.5 36t-157.5 95t-101 137t-37 160zM430 1589l199 316h223l-244 -316h-178z" />
    <glyph glyph-name="sacute" unicode="&#x15b;" horiz-adv-x="899" 
d="M86 287h170q5 -32 25.5 -62t52.5 -47q64 -39 151 -33q65 5 105 39t41 86q1 49 -34 78.5t-93 42.5l-131 31q-137 37 -202.5 110.5t-53.5 200.5q10 104 107 174t225 70q63 0 118 -15t101.5 -46.5t76 -84.5t35.5 -124h-178q-7 52 -49 80t-100 28q-53 0 -93.5 -24t-50.5 -62
q-12 -45 2 -76q22 -47 113 -73l141 -35q248 -61 248 -279q0 -129 -108 -207.5t-263 -78.5q-88 0 -167 34.5t-132.5 106.5t-56.5 166zM295 1135l199 315h223l-244 -315h-178z" />
    <glyph glyph-name="Scircumflex" unicode="&#x15c;" horiz-adv-x="1173" 
d="M106 408h191q2 -97 88.5 -173.5t214.5 -76.5q127 0 199.5 60t85.5 147q4 55 -14 99t-54.5 73t-78.5 48t-93 31l-182 46q-344 87 -344 368q0 115 64 207t168 141t224 49q197 0 326 -113t129 -300h-190q0 104 -75 167.5t-192 63.5q-107 0 -185.5 -59.5t-78.5 -153.5
q0 -147 201 -196l184 -45q201 -52 299.5 -164.5t77.5 -278.5q-20 -159 -145.5 -263.5t-325.5 -104.5q-105 0 -198.5 36t-157.5 95t-101 137t-37 160zM248 1589l225 316h191l225 -316h-168l-154 178l-151 -178h-168z" />
    <glyph glyph-name="scircumflex" unicode="&#x15d;" horiz-adv-x="899" 
d="M86 287h170q5 -32 25.5 -62t52.5 -47q64 -39 151 -33q65 5 105 39t41 86q1 49 -34 78.5t-93 42.5l-131 31q-137 37 -202.5 110.5t-53.5 200.5q10 104 107 174t225 70q63 0 118 -15t101.5 -46.5t76 -84.5t35.5 -124h-178q-7 52 -49 80t-100 28q-53 0 -93.5 -24t-50.5 -62
q-12 -45 2 -76q22 -47 113 -73l141 -35q248 -61 248 -279q0 -129 -108 -207.5t-263 -78.5q-88 0 -167 34.5t-132.5 106.5t-56.5 166zM129 1135l225 315h191l225 -315h-168l-153 178l-152 -178h-168z" />
    <glyph glyph-name="Scedilla" unicode="&#x15e;" horiz-adv-x="1173" 
d="M106 408h191q2 -97 88.5 -173.5t214.5 -76.5q127 0 199.5 60t85.5 147q8 104 -61.5 166t-178.5 85l-182 46q-344 87 -344 368q0 115 64 207t168 141t224 49q197 0 326 -113t129 -300h-190q0 104 -75 167.5t-192 63.5q-107 0 -185.5 -59.5t-78.5 -153.5q0 -147 201 -196
l184 -45q201 -52 299.5 -164.5t77.5 -278.5q-15 -133 -108.5 -230t-245.5 -126l63 -119q17 -41 17 -86q0 -61 -34 -111.5t-95 -76.5q-39 -17 -80 -17q-59 0 -109 35t-76 96q-20 47 -20 101l131 -9q-2 -29 6 -45q13 -30 42.5 -43t60.5 -4q30 13 41.5 45t-0.5 64l-58 158h-6
q-105 0 -198.5 36t-157.5 95t-101 137t-37 160z" />
    <glyph glyph-name="scedilla" unicode="&#x15f;" horiz-adv-x="901" 
d="M86 287h170q5 -32 25.5 -62t52.5 -47q64 -39 151 -33q65 5 105 39t41 86q1 49 -34 78.5t-93 42.5l-131 31q-137 37 -202.5 110.5t-53.5 200.5q10 104 107 174t225 70q63 0 118 -15t101.5 -46.5t76 -84.5t35.5 -124h-178q-7 52 -49 80t-100 28q-53 0 -93.5 -24t-50.5 -62
q-12 -45 2 -76q22 -47 113 -73l141 -35q248 -61 248 -279q0 -99 -66.5 -170t-173.5 -98l68 -125q16 -39 16 -86q0 -61 -34 -111.5t-95 -76.5q-39 -17 -79 -17q-59 0 -109 35t-76 96q-20 47 -20 101l131 -9q-2 -29 6 -45q13 -30 42 -43t60 -4q30 13 41.5 45t-0.5 64l-57 160
q-4 0 -12.5 -1t-12.5 -1q-88 0 -167 34.5t-132.5 106.5t-56.5 166z" />
    <glyph glyph-name="Scaron" unicode="&#x160;" horiz-adv-x="1173" 
d="M106 408h191q2 -97 88.5 -173.5t214.5 -76.5q127 0 199.5 60t85.5 147q4 55 -14 99t-54.5 73t-78.5 48t-93 31l-182 46q-344 87 -344 368q0 115 64 207t168 141t224 49q197 0 326 -113t129 -300h-190q0 104 -75 167.5t-192 63.5q-107 0 -185.5 -59.5t-78.5 -153.5
q0 -147 201 -196l184 -45q201 -52 299.5 -164.5t77.5 -278.5q-20 -159 -145.5 -263.5t-325.5 -104.5q-105 0 -198.5 36t-157.5 95t-101 137t-37 160zM270 1905h168l152 -179l153 179h168l-225 -316h-190z" />
    <glyph glyph-name="scaron" unicode="&#x161;" horiz-adv-x="899" 
d="M86 287h170q5 -32 25.5 -62t52.5 -47q64 -39 151 -33q65 5 105 39t41 86q1 49 -34 78.5t-93 42.5l-131 31q-137 37 -202.5 110.5t-53.5 200.5q10 104 107 174t225 70q63 0 118 -15t101.5 -46.5t76 -84.5t35.5 -124h-178q-7 52 -49 80t-100 28q-53 0 -93.5 -24t-50.5 -62
q-12 -45 2 -76q22 -47 113 -73l141 -35q248 -61 248 -279q0 -129 -108 -207.5t-263 -78.5q-88 0 -167 34.5t-132.5 106.5t-56.5 166zM129 1450h168l152 -178l153 178h168l-225 -315h-191z" />
    <glyph glyph-name="Tcommaaccent" unicode="&#x162;" horiz-adv-x="1163" 
d="M57 1231v180h1049v-180h-428v-1231h-193v1231h-428zM391 -473q62 85 83.5 159t10.5 197h185q2 -263 -160 -395z" />
    <glyph glyph-name="tcommaaccent" unicode="&#x163;" horiz-adv-x="671" 
d="M55 799v157h172v361h187v-361h202v-157h-202v-799h-187v799h-172zM133 -473q62 85 83.5 159t10.5 197h185q2 -263 -160 -395z" />
    <glyph glyph-name="Tcaron" unicode="&#x164;" horiz-adv-x="1163" 
d="M57 1231v180h1049v-180h-428v-1231h-193v1231h-428zM260 1905h168l152 -179l153 179h168l-225 -316h-191z" />
    <glyph glyph-name="tcaron" unicode="&#x165;" horiz-adv-x="671" 
d="M55 799v157h172v361h187v-361h202v-157h-202v-799h-187v799h-172zM494 1120q62 85 83.5 159.5t10.5 197.5h184q3 -264 -160 -396z" />
    <glyph glyph-name="Tbar" unicode="&#x166;" horiz-adv-x="1161" 
d="M53 1223v188h1055v-188h-432v-383h272v-135h-272v-705h-191v705h-270v135h270v383h-432z" />
    <glyph glyph-name="tbar" unicode="&#x167;" horiz-adv-x="675" 
d="M57 799v157h172v361h187v-361h202v-157h-202v-211h155v-125h-155v-463h-187v463h-139v125h139v211h-172z" />
    <glyph glyph-name="Utilde" unicode="&#x168;" horiz-adv-x="1388" 
d="M178 485v926h193v-926q0 -142 94.5 -231.5t228.5 -89.5q135 0 229.5 89.5t94.5 231.5v926h192v-926q0 -112 -41.5 -208t-112 -160.5t-164.5 -100.5t-198 -36t-198 36t-164.5 100.5t-112 160.5t-41.5 208zM422 1614q7 125 58.5 182t121.5 57q26 0 51 -9t34.5 -15.5
t33.5 -24.5q45 -35 63 -35q21 0 39 19.5t19 64.5h125q-7 -123 -60.5 -178t-122.5 -55q-25 0 -48.5 9t-35 17t-32.5 25q-4 3 -14 9.5t-15 9.5t-12 7t-13 5.5t-12 1.5q-19 0 -36.5 -22t-18.5 -68h-125z" />
    <glyph glyph-name="utilde" unicode="&#x169;" horiz-adv-x="1150" 
d="M143 403v553h187v-540q0 -120 55.5 -187t153.5 -67q53 0 99.5 15t85.5 46.5t62 87t23 129.5v516h186v-956h-186v143q-40 -80 -125 -121.5t-172 -41.5q-179 0 -275 110.5t-94 312.5zM315 1159q7 125 59 182.5t122 57.5q9 0 17.5 -0.5t17 -3t14 -4t14 -6t12 -5.5t12 -7
t10 -7t11.5 -8l10 -8q45 -35 64 -35q21 0 38.5 19.5t18.5 64.5h125q-7 -123 -60 -178.5t-122 -55.5q-25 0 -49 9.5t-35.5 17.5t-32.5 25q-4 3 -14 9.5t-14.5 9t-12 6.5t-13 5.5t-11.5 1.5q-19 0 -37 -22t-19 -68h-125z" />
    <glyph glyph-name="Umacron" unicode="&#x16a;" horiz-adv-x="1388" 
d="M178 485v926h193v-926q0 -142 94.5 -231.5t228.5 -89.5q135 0 229.5 89.5t94.5 231.5v926h192v-926q0 -112 -41.5 -208t-112 -160.5t-164.5 -100.5t-198 -36t-198 36t-164.5 100.5t-112 160.5t-41.5 208zM436 1642v164h516v-164h-516z" />
    <glyph glyph-name="umacron" unicode="&#x16b;" horiz-adv-x="1150" 
d="M143 403v553h187v-540q0 -120 55.5 -187t153.5 -67q53 0 99.5 15t85.5 46.5t62 87t23 129.5v516h186v-956h-186v143q-40 -80 -125 -121.5t-172 -41.5q-179 0 -275 110.5t-94 312.5zM330 1188v164h516v-164h-516z" />
    <glyph glyph-name="Ubreve" unicode="&#x16c;" horiz-adv-x="1388" 
d="M178 485v926h193v-926q0 -142 94.5 -231.5t228.5 -89.5q135 0 229.5 89.5t94.5 231.5v926h192v-926q0 -112 -41.5 -208t-112 -160.5t-164.5 -100.5t-198 -36t-198 36t-164.5 100.5t-112 160.5t-41.5 208zM426 1853h152q0 -54 30.5 -87t83.5 -33q51 0 82 37t31 83h156
q0 -121 -73.5 -191.5t-195.5 -70.5q-132 0 -199 75.5t-67 186.5z" />
    <glyph glyph-name="ubreve" unicode="&#x16d;" horiz-adv-x="1150" 
d="M143 403v553h187v-540q0 -120 55.5 -187t153.5 -67q53 0 99.5 15t85.5 46.5t62 87t23 129.5v516h186v-956h-186v143q-40 -80 -125 -121.5t-172 -41.5q-179 0 -275 110.5t-94 312.5zM322 1399h151q0 -54 31 -87.5t84 -33.5q51 0 81.5 37t30.5 84h156q0 -121 -73 -191.5
t-195 -70.5q-132 0 -199 75.5t-67 186.5z" />
    <glyph glyph-name="Uring" unicode="&#x16e;" horiz-adv-x="1388" 
d="M178 485v926h193v-926q0 -142 94.5 -231.5t228.5 -89.5q135 0 229.5 89.5t94.5 231.5v926h192v-926q0 -112 -41.5 -208t-112 -160.5t-164.5 -100.5t-198 -36t-198 36t-164.5 100.5t-112 160.5t-41.5 208zM477 1776q0 92 61.5 154.5t151.5 62.5q92 0 155.5 -62.5
t63.5 -154.5q0 -89 -63.5 -151t-155.5 -62q-89 0 -151 62t-62 151zM586 1776q0 -43 30.5 -74t73.5 -31q46 0 78.5 31t32.5 74q0 45 -32.5 76.5t-78.5 31.5q-43 0 -73.5 -31.5t-30.5 -76.5z" />
    <glyph glyph-name="uring" unicode="&#x16f;" horiz-adv-x="1150" 
d="M143 403v553h187v-540q0 -120 55.5 -187t153.5 -67q53 0 99.5 15t85.5 46.5t62 87t23 129.5v516h186v-956h-186v143q-40 -80 -125 -121.5t-172 -41.5q-179 0 -275 110.5t-94 312.5zM373 1321q0 92 61.5 154.5t151.5 62.5q92 0 155.5 -62.5t63.5 -154.5q0 -89 -63.5 -151
t-155.5 -62q-89 0 -151 62t-62 151zM481 1321q0 -43 31 -73.5t74 -30.5q46 0 78 30.5t32 73.5q0 46 -32 77.5t-78 31.5q-43 0 -74 -32t-31 -77z" />
    <glyph glyph-name="Uhungarumlaut" unicode="&#x170;" horiz-adv-x="1388" 
d="M178 485v926h193v-926q0 -142 94.5 -231.5t228.5 -89.5q135 0 229.5 89.5t94.5 231.5v926h192v-926q0 -112 -41.5 -208t-112 -160.5t-164.5 -100.5t-198 -36t-198 36t-164.5 100.5t-112 160.5t-41.5 208zM428 1589l164 316h188l-182 -316h-170zM700 1589l183 316h192
l-209 -316h-166z" />
    <glyph glyph-name="uhungarumlaut" unicode="&#x171;" horiz-adv-x="1150" 
d="M143 403v553h187v-540q0 -120 55.5 -187t153.5 -67q53 0 99.5 15t85.5 46.5t62 87t23 129.5v516h186v-956h-186v143q-40 -80 -125 -121.5t-172 -41.5q-179 0 -275 110.5t-94 312.5zM305 1135l164 315h188l-182 -315h-170zM578 1135l182 315h192l-209 -315h-165z" />
    <glyph glyph-name="Uogonek" unicode="&#x172;" horiz-adv-x="1388" 
d="M178 485v926h193v-926q0 -142 94.5 -231.5t228.5 -89.5q135 0 229.5 89.5t94.5 231.5v926h192v-926q0 -206 -128 -342.5t-320 -158.5l-57 -162q-13 -32 -1.5 -64t41.5 -45q31 -9 60.5 4t42.5 43q2 4 3.5 10.5t2 12.5t0.5 11v8v3l131 9q0 -54 -20 -101q-26 -61 -76 -96
t-109 -35q-41 0 -80 17q-61 26 -95 76.5t-34 111.5q0 45 17 86l57 109q-96 7 -181 46.5t-148.5 103.5t-100.5 155.5t-37 197.5z" />
    <glyph glyph-name="uogonek" unicode="&#x173;" horiz-adv-x="1150" 
d="M143 403v553h187v-540q0 -120 55.5 -187t153.5 -67q53 0 99.5 15t85.5 46.5t62 87t23 129.5v516h186v-956h-73l-64 -178q-12 -32 -0.5 -64t41.5 -45q31 -9 60 4t42 43q4 7 5.5 18.5t1.5 19.5v7l131 9q0 -52 -21 -101q-26 -61 -75.5 -96t-108.5 -35q-41 0 -80 17
q-61 26 -95 76.5t-34 111.5q0 47 16 86l68 127v143q-40 -80 -125 -121.5t-172 -41.5q-179 0 -275 110.5t-94 312.5z" />
    <glyph glyph-name="Wcircumflex" unicode="&#x174;" horiz-adv-x="1845" 
d="M31 1411h205l354 -1104l260 914h145l260 -914l355 1104h205l-478 -1411h-166l-249 881l-248 -881h-166zM602 1589l225 316h191l225 -316h-168l-153 178l-152 -178h-168z" />
    <glyph glyph-name="wcircumflex" unicode="&#x175;" horiz-adv-x="1617" 
d="M39 956h199l239 -669l240 669h180l240 -669l239 669h199l-354 -956h-154l-260 702l-252 -702h-152zM485 1135l226 315h190l225 -315h-168l-153 178l-152 -178h-168z" />
    <glyph glyph-name="Ycircumflex" unicode="&#x176;" horiz-adv-x="1286" 
d="M10 1411h228l405 -571l410 571h229l-541 -762v-649h-196v649zM326 1589l225 316h190l226 -316h-168l-154 178l-151 -178h-168z" />
    <glyph glyph-name="ycircumflex" unicode="&#x177;" horiz-adv-x="1042" 
d="M37 956h199l286 -692l287 692h199l-594 -1421h-195l201 494zM207 1135l225 315h191l225 -315h-168l-154 178l-151 -178h-168z" />
    <glyph glyph-name="Ydieresis" unicode="&#x178;" horiz-adv-x="1286" 
d="M10 1411h228l405 -571l410 571h229l-541 -762v-649h-196v649zM346 1745q0 52 37 86.5t90 34.5q52 0 88.5 -34.5t36.5 -86.5t-36.5 -86.5t-88.5 -34.5q-53 0 -90 34.5t-37 86.5zM692 1745q0 52 37 86.5t90 34.5t90 -34.5t37 -86.5t-37 -86.5t-90 -34.5t-90 34.5t-37 86.5z
" />
    <glyph glyph-name="Zacute" unicode="&#x179;" horiz-adv-x="1173" 
d="M86 0v166l745 1065h-716v180h958v-166l-749 -1065h749v-180h-987zM449 1589l198 316h223l-243 -316h-178z" />
    <glyph glyph-name="zacute" unicode="&#x17a;" horiz-adv-x="1028" 
d="M86 0v154l569 624h-536v178h809v-153l-580 -625h580v-178h-842zM360 1135l199 315h223l-243 -315h-179z" />
    <glyph glyph-name="Zdotaccent" unicode="&#x17b;" horiz-adv-x="1173" 
d="M86 0v166l745 1065h-716v180h958v-166l-749 -1065h749v-180h-987zM451 1763q0 52 38 86.5t91 34.5q54 0 91.5 -34.5t37.5 -86.5t-37.5 -86.5t-91.5 -34.5q-53 0 -91 34.5t-38 86.5z" />
    <glyph glyph-name="zdotaccent" unicode="&#x17c;" horiz-adv-x="1028" 
d="M86 0v154l569 624h-536v178h809v-153l-580 -625h580v-178h-842zM379 1309q0 52 38 86.5t91 34.5q54 0 91.5 -34.5t37.5 -86.5t-37.5 -86.5t-91.5 -34.5q-53 0 -91 34.5t-38 86.5z" />
    <glyph glyph-name="Zcaron" unicode="&#x17d;" horiz-adv-x="1173" 
d="M86 0v166l745 1065h-716v180h958v-166l-749 -1065h749v-180h-987zM258 1905h168l152 -179l153 179h168l-225 -316h-191z" />
    <glyph glyph-name="zcaron" unicode="&#x17e;" horiz-adv-x="1028" 
d="M86 0v154l569 624h-536v178h809v-153l-580 -625h580v-178h-842zM186 1450h168l152 -178l153 178h168l-225 -315h-190z" />
    <glyph glyph-name="longs" unicode="&#x17f;" horiz-adv-x="624" 
d="M55 799v157h185v97q0 198 90 311t276 113h105v-179h-105q-55 0 -92.5 -20t-55.5 -57t-24.5 -77t-5.5 -91v-1053h-188v799h-185z" />
    <glyph glyph-name="florin" unicode="&#x192;" horiz-adv-x="1263" 
d="M61 -375l35 168h121q42 0 76 15t55 37t38.5 57t26 63.5t17.5 67.5l164 751h-176l37 172h176l18 82q79 359 355 398q42 9 120 4l76 -4l-35 -170h-118q-33 0 -61 -9.5t-47.5 -21.5t-37 -37t-27.5 -42.5t-20.5 -51t-14.5 -49.5t-12 -53t-10 -46h221l-34 -172h-224
q-107 -490 -151 -698q-20 -94 -47 -167t-69.5 -137.5t-106 -105t-146.5 -53.5q-59 -8 -199 2z" />
    <glyph glyph-name="Aringacute" unicode="&#x1fa;" horiz-adv-x="1320" 
d="M23 0l536 1411h205l534 -1411h-200l-137 358h-599l-137 -358h-202zM428 530h467l-233 627zM444 1776q0 73 41.5 129t106.5 77l160 252h223l-209 -270q52 -28 81.5 -77.5t29.5 -110.5q0 -89 -64 -151t-156 -62q-89 0 -151 62t-62 151zM553 1776q0 -43 30.5 -74t73.5 -31
q46 0 78.5 31t32.5 74q0 45 -32.5 76.5t-78.5 31.5q-43 0 -73.5 -31.5t-30.5 -76.5z" />
    <glyph glyph-name="aringacute" unicode="&#x1fb;" horiz-adv-x="1253" 
d="M92 479q0 148 67 263t177 175t242 60q105 0 197.5 -42.5t137.5 -121.5v143h185v-956h-185v147q-46 -79 -138.5 -123t-196.5 -44q-202 0 -344 139t-142 360zM283 481q0 -139 90 -229t221 -90q133 0 225 86t92 233q0 98 -48 171.5t-118.5 108t-150.5 34.5
q-132 0 -221.5 -87t-89.5 -227zM356 1305q0 73 41.5 129t106.5 77l160 252h223l-209 -270q51 -28 80.5 -77.5t29.5 -110.5q0 -89 -63.5 -151t-155.5 -62q-89 0 -151 62t-62 151zM465 1305q0 -43 30.5 -74t73.5 -31q46 0 78.5 31t32.5 74q0 45 -32.5 76.5t-78.5 31.5
q-43 0 -73.5 -31.5t-30.5 -76.5z" />
    <glyph glyph-name="AEacute" unicode="&#x1fc;" horiz-adv-x="1912" 
d="M0 0l891 1411h891v-188h-641v-437h561v-188h-561v-410h663v-188h-852v354h-501l-228 -354h-223zM563 537h389v610zM942 1589l199 316h223l-244 -316h-178z" />
    <glyph glyph-name="aeacute" unicode="&#x1fd;" horiz-adv-x="1959" 
d="M92 479q0 148 67 263t177 175t242 60q105 0 197.5 -42.5t137.5 -121.5v143h185v-77q128 98 305 98q207 0 341 -136t134 -360q0 -53 -2 -73h-776q17 -119 102 -190t207 -71q87 0 161 39t113 109q28 -11 86 -33.5t74 -28.5q-60 -122 -178.5 -187.5t-261.5 -65.5
q-181 0 -305 100v-80h-185v147q-46 -79 -138.5 -123t-196.5 -44q-202 0 -344 139t-142 360zM283 481q0 -139 90 -229t221 -90q133 0 225 86t92 233q0 98 -48 171.5t-118.5 108t-150.5 34.5q-132 0 -221.5 -87t-89.5 -227zM860 1135l199 315h223l-244 -315h-178zM1100 553
h594q-17 119 -96 187.5t-195 68.5q-120 0 -203 -68.5t-100 -187.5z" />
    <glyph glyph-name="Oslashacute" unicode="&#x1fe;" horiz-adv-x="1628" 
d="M98 702q0 198 94 364.5t258 263.5t361 97q260 0 459 -165l162 165l96 -94l-164 -168q164 -204 164 -463q0 -147 -56 -280.5t-151 -230.5t-228.5 -154t-281.5 -57q-255 0 -446 155l-164 -168l-97 96l164 168q-170 204 -170 471zM289 702q0 -190 110 -335l740 759
q-143 117 -328 117q-145 0 -265 -72.5t-188.5 -196.5t-68.5 -272zM496 270q134 -106 315 -106q146 0 266.5 71.5t189 195t68.5 271.5q0 184 -104 326zM711 1589l198 316h224l-244 -316h-178z" />
    <glyph glyph-name="oslashacute" unicode="&#x1ff;" horiz-adv-x="1181" 
d="M82 45l115 117q-107 132 -107 319q0 147 68.5 261.5t181.5 174.5t250 60q172 0 307 -96l102 104l97 -94l-103 -105q99 -133 99 -305q0 -147 -69 -263t-183 -177t-250 -61q-168 0 -295 88l-117 -119zM274 481q0 -107 52 -184l440 448q-77 50 -176 50q-133 0 -224.5 -86.5
t-91.5 -227.5zM426 203q70 -43 164 -43q132 0 223.5 89t91.5 232q0 90 -45 168zM469 1135l199 315h223l-244 -315h-178z" />
    <glyph glyph-name="Scommaaccent" unicode="&#x218;" horiz-adv-x="1173" 
d="M106 408h191q2 -97 88.5 -173.5t214.5 -76.5q127 0 199.5 60t85.5 147q13 114 -70 176q-64 52 -170 75l-182 46q-344 87 -344 368q0 115 64 207t168 141t224 49q197 0 326 -113t129 -300h-190q0 104 -75 167.5t-192 63.5q-107 0 -185.5 -59.5t-78.5 -153.5
q0 -147 201 -196l184 -45q201 -52 299.5 -164.5t77.5 -278.5q-20 -159 -145.5 -263.5t-325.5 -104.5q-105 0 -198.5 36t-157.5 95t-101 137t-37 160zM424 -473q62 85 83.5 159t10.5 197h184q3 -264 -159 -395z" />
    <glyph glyph-name="scommaaccent" unicode="&#x219;" horiz-adv-x="899" 
d="M86 287h170q5 -32 25.5 -62t52.5 -47q64 -39 151 -33q65 5 105 39t41 86q1 49 -34 78.5t-93 42.5l-131 31q-137 37 -202.5 110.5t-53.5 200.5q10 104 107 174t225 70q63 0 118 -15t101.5 -46.5t76 -84.5t35.5 -124h-178q-7 52 -49 80t-100 28q-53 0 -93.5 -24t-50.5 -62
q-12 -45 2 -76q22 -47 113 -73l141 -35q248 -61 248 -279q0 -129 -108 -207.5t-263 -78.5q-88 0 -167 34.5t-132.5 106.5t-56.5 166zM281 -473q62 85 83.5 159t10.5 197h184q2 -263 -160 -395z" />
    <glyph glyph-name="circumflex" unicode="&#x2c6;" horiz-adv-x="1071" 
d="M215 1135l225 315h191l225 -315h-168l-153 178l-152 -178h-168z" />
    <glyph glyph-name="caron" unicode="&#x2c7;" horiz-adv-x="1071" 
d="M215 1450h168l152 -178l153 178h168l-225 -315h-191z" />
    <glyph glyph-name="breve" unicode="&#x2d8;" horiz-adv-x="985" 
d="M225 1399h152q0 -54 31 -87.5t84 -33.5q51 0 81.5 37t30.5 84h156q0 -121 -73 -191.5t-195 -70.5q-90 0 -152 38t-88.5 95.5t-26.5 128.5z" />
    <glyph glyph-name="dotaccent" unicode="&#x2d9;" horiz-adv-x="1077" 
d="M410 1309q0 52 38 86.5t91 34.5q54 0 91.5 -34.5t37.5 -86.5t-37.5 -86.5t-91.5 -34.5q-53 0 -91 34.5t-38 86.5z" />
    <glyph glyph-name="ring" unicode="&#x2da;" horiz-adv-x="1087" 
d="M328 1321q0 92 61.5 154.5t151.5 62.5q92 0 155.5 -62.5t63.5 -154.5q0 -89 -63.5 -151t-155.5 -62q-89 0 -151 62t-62 151zM436 1321q0 -43 31 -73.5t74 -30.5q46 0 78 30.5t32 73.5q0 46 -32 77.5t-78 31.5q-43 0 -74 -32t-31 -77z" />
    <glyph glyph-name="ogonek" unicode="&#x2db;" horiz-adv-x="1069" 
d="M328 -213q0 47 16 86l105 195h100l-88 -246q-12 -32 -0.5 -64t41.5 -45q31 -9 60 4t42 43q2 4 3.5 10.5t2 12.5t0.5 11v8v3l131 9q0 -54 -20 -101q-26 -61 -75.5 -96t-108.5 -35q-41 0 -80 17q-61 26 -95 76.5t-34 111.5z" />
    <glyph glyph-name="tilde" unicode="&#x2dc;" horiz-adv-x="872" 
d="M164 1159q7 125 59 182.5t121 57.5q26 0 51 -9t34.5 -15.5t33.5 -24.5q45 -35 63 -35q21 0 39 19.5t19 64.5h125q-7 -123 -60.5 -178.5t-122.5 -55.5q-24 0 -48.5 9.5t-35 17.5t-32.5 25q-50 32 -66 32q-19 0 -36.5 -22t-18.5 -68h-125z" />
    <glyph glyph-name="hungarumlaut" unicode="&#x2dd;" horiz-adv-x="974" 
d="M164 1135l164 315h188l-182 -315h-170zM436 1135l182 315h193l-209 -315h-166z" />
    <glyph glyph-name="Wgrave" unicode="&#x1e80;" horiz-adv-x="1845" 
d="M31 1411h205l354 -1104l260 914h145l260 -914l355 1104h205l-478 -1411h-166l-249 881l-248 -881h-166zM594 1905h223l199 -316h-178z" />
    <glyph glyph-name="wgrave" unicode="&#x1e81;" horiz-adv-x="1617" 
d="M39 956h199l239 -669l240 669h180l240 -669l239 669h199l-354 -956h-154l-260 702l-252 -702h-152zM479 1450h223l199 -315h-178z" />
    <glyph glyph-name="Wacute" unicode="&#x1e82;" horiz-adv-x="1845" 
d="M31 1411h205l354 -1104l260 914h145l260 -914l355 1104h205l-478 -1411h-166l-249 881l-248 -881h-166zM827 1589l199 316h223l-243 -316h-179z" />
    <glyph glyph-name="wacute" unicode="&#x1e83;" horiz-adv-x="1617" 
d="M39 956h199l239 -669l240 669h180l240 -669l239 669h199l-354 -956h-154l-260 702l-252 -702h-152zM715 1135l198 315h224l-244 -315h-178z" />
    <glyph glyph-name="Wdieresis" unicode="&#x1e84;" horiz-adv-x="1845" 
d="M31 1411h205l354 -1104l260 914h145l260 -914l355 1104h205l-478 -1411h-166l-249 881l-248 -881h-166zM623 1745q0 52 37 86.5t90 34.5q52 0 88 -34.5t36 -86.5t-36 -86.5t-88 -34.5q-53 0 -90 34.5t-37 86.5zM969 1745q0 52 37 86.5t90 34.5t90 -34.5t37 -86.5
t-37 -86.5t-90 -34.5t-90 34.5t-37 86.5z" />
    <glyph glyph-name="wdieresis" unicode="&#x1e85;" horiz-adv-x="1617" 
d="M39 956h199l239 -669l240 669h180l240 -669l239 669h199l-354 -956h-154l-260 702l-252 -702h-152zM506 1290q0 52 37 86.5t90 34.5q52 0 88.5 -34.5t36.5 -86.5t-36.5 -86.5t-88.5 -34.5q-53 0 -90 34.5t-37 86.5zM852 1290q0 52 37 86.5t90 34.5t90 -34.5t37 -86.5
t-37 -86.5t-90 -34.5t-90 34.5t-37 86.5z" />
    <glyph glyph-name="Ygrave" unicode="&#x1ef2;" horiz-adv-x="1286" 
d="M10 1411h228l405 -571l410 571h229l-541 -762v-649h-196v649zM324 1905h223l198 -316h-178z" />
    <glyph glyph-name="ygrave" unicode="&#x1ef3;" horiz-adv-x="1042" 
d="M37 956h199l286 -692l287 692h199l-594 -1421h-195l201 494zM254 1450h223l199 -315h-178z" />
    <glyph glyph-name="uni2009" unicode="&#x2009;" horiz-adv-x="28" 
 />
    <glyph glyph-name="endash" unicode="&#x2013;" horiz-adv-x="1218" 
d="M145 399v160h928v-160h-928z" />
    <glyph glyph-name="emdash" unicode="&#x2014;" horiz-adv-x="1640" 
d="M145 399v160h1350v-160h-1350z" />
    <glyph glyph-name="quoteleft" unicode="&#x2018;" horiz-adv-x="507" 
d="M123 938q13 163 68 289t122 182l109 -39q-132 -185 -129 -432h-170z" />
    <glyph glyph-name="quoteright" unicode="&#x2019;" horiz-adv-x="501" 
d="M102 969q132 185 129 432h170q-13 -163 -68 -289t-122 -182z" />
    <glyph glyph-name="quotesinglbase" unicode="&#x201a;" horiz-adv-x="495" 
d="M57 -94q132 185 129 432h170q-13 -163 -68 -289t-122 -182z" />
    <glyph glyph-name="quotedblleft" unicode="&#x201c;" horiz-adv-x="813" 
d="M123 940q13 163 68 289t122 182l109 -39q-132 -185 -129 -432h-170zM428 940q13 163 68 289t122 182l109 -39q-132 -185 -129 -432h-170z" />
    <glyph glyph-name="quotedblright" unicode="&#x201d;" horiz-adv-x="808" 
d="M104 979q132 185 129 432h170q-13 -163 -68 -289t-122 -182zM410 979q132 185 129 432h170q-13 -162 -68 -288.5t-123 -182.5z" />
    <glyph glyph-name="quotedblbase" unicode="&#x201e;" horiz-adv-x="800" 
d="M57 -94q132 185 129 432h170q-13 -163 -68 -289t-122 -182zM362 -94q133 187 130 432h170q-13 -162 -68 -288.5t-123 -182.5z" />
    <glyph glyph-name="dagger" unicode="&#x2020;" horiz-adv-x="847" 
d="M86 834v184h246v366h182v-366h248v-184h-248v-1082h-182v1082h-246z" />
    <glyph glyph-name="daggerdbl" unicode="&#x2021;" horiz-adv-x="917" 
d="M121 170v182h246v482h-246v184h246v366h182v-366h248v-184h-248v-482h248v-182h-248v-418h-182v418h-246z" />
    <glyph glyph-name="bullet" unicode="&#x2022;" horiz-adv-x="944" 
d="M166 489q0 124 89.5 207.5t217.5 83.5q126 0 215.5 -83.5t89.5 -207.5q0 -126 -89 -209t-216 -83q-128 0 -217.5 83t-89.5 209z" />
    <glyph glyph-name="ellipsis" unicode="&#x2026;" horiz-adv-x="1470" 
d="M137 106q0 55 39 92.5t94 37.5q56 0 96 -37.5t40 -92.5t-39.5 -90.5t-96.5 -35.5q-55 0 -94 35.5t-39 90.5zM600 106q0 55 38.5 92.5t94.5 37.5t95.5 -37.5t39.5 -92.5t-39.5 -90.5t-95.5 -35.5t-94.5 35.5t-38.5 90.5zM1063 106q0 55 38.5 92.5t94.5 37.5t95.5 -37.5
t39.5 -92.5t-39.5 -90.5t-95.5 -35.5t-94.5 35.5t-38.5 90.5z" />
    <glyph glyph-name="perthousand" unicode="&#x2030;" horiz-adv-x="2029" 
d="M80 1104q0 115 78.5 194.5t193.5 79.5q114 0 194.5 -80t80.5 -194q0 -115 -80 -194t-195 -79t-193.5 78.5t-78.5 194.5zM223 1104q0 -56 36.5 -92.5t92.5 -36.5q55 0 93 37t38 92q0 54 -38.5 92.5t-92.5 38.5q-55 0 -92 -38t-37 -93zM283 0l673 1378h136l-674 -1378h-135
zM776 252q0 114 79 194t194 80q114 0 194 -80t80 -194q0 -115 -79.5 -193.5t-194.5 -78.5q-116 0 -194.5 78.5t-78.5 193.5zM920 252q0 -56 37 -92.5t92 -36.5t93 37t38 92q0 54 -38.5 92.5t-92.5 38.5q-55 0 -92 -38t-37 -93zM1409 252q0 115 78.5 194.5t193.5 79.5
q114 0 194.5 -80t80.5 -194q0 -115 -80 -193.5t-195 -78.5t-193.5 78t-78.5 194zM1552 252q0 -56 37 -92.5t92 -36.5t93 37t38 92q0 54 -38.5 92.5t-92.5 38.5q-55 0 -92 -38t-37 -93z" />
    <glyph glyph-name="guilsinglleft" unicode="&#x2039;" horiz-adv-x="641" 
d="M94 477l283 424h162l-283 -424l283 -424h-162z" />
    <glyph glyph-name="guilsinglright" unicode="&#x203a;" horiz-adv-x="641" 
d="M102 53l283 424l-283 424h162l283 -424l-283 -424h-162z" />
    <glyph glyph-name="fraction" unicode="&#x2044;" horiz-adv-x="368" 
d="M-352 -20l923 1392h138l-922 -1392h-139z" />
    <glyph glyph-name="uni2070" unicode="&#x2070;" horiz-adv-x="745" 
d="M80 1280q0 73 8 132.5t28.5 113.5t53 90.5t84 58t119.5 21.5t119.5 -21.5t84 -58t53 -90.5t28.5 -113.5t8 -132.5q0 -71 -8 -129.5t-28.5 -112t-52.5 -89.5t-84 -57.5t-120 -21.5t-120 21.5t-84 57.5t-52.5 89.5t-28.5 112t-8 129.5zM201 1280q0 -65 7.5 -114t26 -91
t53.5 -64t85 -22t85 22t53.5 64t26 91t7.5 114t-7.5 115t-26 92.5t-53.5 65t-85 22.5t-85 -22.5t-53.5 -65t-26 -92.5t-7.5 -115z" />
    <glyph glyph-name="uni2074" unicode="&#x2074;" horiz-adv-x="735" 
d="M29 1042l446 644h90v-529h115v-115h-115v-161h-121v161h-415zM238 1157h206v307z" />
    <glyph glyph-name="uni2075" unicode="&#x2075;" horiz-adv-x="696" 
d="M53 1038l101 72q22 -58 72 -90.5t108 -32.5q81 0 128.5 44.5t47.5 109.5q0 67 -46.5 103t-107.5 36q-94 0 -227 -68l-37 48l72 423h411v-114h-311q-6 -35 -18.5 -98.5t-18.5 -98.5q65 27 129 27q115 0 194 -68t79 -190q0 -124 -81 -198.5t-214 -74.5q-87 0 -164.5 45
t-116.5 125z" />
    <glyph glyph-name="uni2076" unicode="&#x2076;" horiz-adv-x="692" 
d="M84 1143q-1 41 -3 90.5t5 103t16.5 105t32.5 97.5t53.5 81t78.5 54.5t108 17.5q50 -2 90 -15t81 -50.5t68 -98.5l-108 -45q-46 94 -131 94q-78 0 -126 -75.5t-46 -194.5q49 96 164 96q110 0 182 -84t69 -197q-6 -111 -84.5 -185.5t-187.5 -70.5q-109 5 -180.5 79
t-81.5 198zM209 1141q0 -63 41.5 -106.5t101.5 -45.5q59 -3 101 37.5t45 101.5q3 63 -35.5 106.5t-97.5 45.5q-63 2 -108 -38t-48 -101z" />
    <glyph glyph-name="uni2077" unicode="&#x2077;" horiz-adv-x="669" 
d="M61 881l375 684h-356v121h563l-440 -805h-142z" />
    <glyph glyph-name="uni2078" unicode="&#x2078;" horiz-adv-x="700" 
d="M72 1133q0 68 29.5 124t84.5 91q-53 56 -53 137q0 89 62 150t155 61t157 -61.5t64 -149.5q0 -75 -59 -137q53 -34 85 -91.5t32 -123.5q0 -111 -80.5 -187t-198.5 -76q-119 0 -198.5 76t-79.5 187zM193 1133q0 -59 45 -101.5t112 -42.5q66 0 112 42.5t46 101.5
q0 61 -46.5 107t-111.5 46h-8q-63 0 -106 -46.5t-43 -106.5zM254 1485q0 -36 25.5 -64.5t64.5 -31.5h10q40 3 67.5 31.5t27.5 64.5q0 37 -29 63.5t-70 26.5t-68.5 -26.5t-27.5 -63.5z" />
    <glyph glyph-name="uni2079" unicode="&#x2079;" horiz-adv-x="692" 
d="M74 1438q6 111 84.5 185.5t187.5 70.5q109 -5 180.5 -79t81.5 -198q1 -41 3 -90.5t-5 -103t-16.5 -105t-32.5 -97.5t-53.5 -81t-78.5 -54.5t-108 -17.5q-50 2 -90 15t-81 50.5t-68 98.5l108 45q46 -94 131 -94q78 0 126 75.5t46 194.5q-49 -96 -163 -96q-110 0 -182.5 84
t-69.5 197zM195 1432q-3 -63 35.5 -106.5t97.5 -45.5q63 -2 107.5 38t47.5 101q0 63 -41.5 106.5t-101.5 45.5q-59 3 -100.5 -37.5t-44.5 -101.5z" />
    <glyph glyph-name="uni2080" unicode="&#x2080;" horiz-adv-x="745" 
d="M80 100q0 73 8 132.5t28.5 113.5t53 90.5t84 58t119.5 21.5t119.5 -21.5t84 -58t53 -90.5t28.5 -113.5t8 -132.5q0 -90 -13.5 -159.5t-45 -128t-91 -90t-143.5 -31.5t-143.5 31.5t-91 90t-45 128t-13.5 159.5zM201 100q0 -65 7.5 -114t26 -90.5t53.5 -63.5t85 -22t85 22
t53.5 63.5t26 90.5t7.5 114t-7.5 115t-26 92.5t-53.5 65t-85 22.5t-85 -22.5t-53.5 -65t-26 -92.5t-7.5 -115z" />
    <glyph glyph-name="uni2081" unicode="&#x2081;" horiz-adv-x="423" 
d="M51 254v117l262 143v-813h-123v625z" />
    <glyph glyph-name="uni2082" unicode="&#x2082;" horiz-adv-x="665" 
d="M70 295q15 99 86.5 160t167.5 61q107 0 180.5 -68t73.5 -174q0 -109 -89 -208l-206 -244h297v-121h-500v57l323 392q56 70 56 124q0 55 -39 90t-96 35q-54 0 -95.5 -36.5t-50.5 -96.5z" />
    <glyph glyph-name="uni2083" unicode="&#x2083;" horiz-adv-x="655" 
d="M49 -141l98 53q20 -43 60.5 -75t87.5 -36q67 -5 120 33.5t54 97.5q3 58 -43.5 101t-110.5 43h-92v106h92q42 0 72.5 26.5t38.5 65.5q8 52 -14 82q-12 20 -37.5 32.5t-55.5 14.5q-87 9 -141 -71l-82 65q34 58 96.5 89.5t135.5 27.5q98 -4 161 -69.5t60 -151.5
q0 -25 -6 -49q-23 -73 -88 -111q60 -23 96.5 -86t30.5 -129q-9 -102 -95.5 -168.5t-197.5 -58.5q-78 6 -142.5 52t-97.5 116z" />
    <glyph glyph-name="uni2084" unicode="&#x2084;" horiz-adv-x="737" 
d="M31 -137l446 643h90v-529h115v-114h-115v-162h-121v162h-415zM240 -23h206v308z" />
    <glyph glyph-name="uni2085" unicode="&#x2085;" horiz-adv-x="692" 
d="M53 -141l101 71q22 -58 72 -90.5t108 -32.5q81 0 128.5 44.5t47.5 109.5q0 67 -46.5 103t-107.5 36q-96 0 -227 -67l-37 47l72 424h411v-115h-311q-6 -35 -18.5 -98t-18.5 -98q62 26 129 26q115 0 194 -68t79 -190q0 -124 -81 -198t-214 -74q-87 0 -164.5 45t-116.5 125z
" />
    <glyph glyph-name="uni2086" unicode="&#x2086;" horiz-adv-x="690" 
d="M84 -37q-1 41 -3 90.5t5 103t16.5 105t32.5 97.5t53.5 81t78.5 54.5t108 17.5q50 -2 90 -15t81 -50.5t68 -98.5l-108 -45q-46 94 -131 94q-78 0 -126 -75.5t-46 -194.5q49 96 164 96q110 0 182 -83.5t69 -196.5q-6 -111 -84.5 -185.5t-187.5 -70.5q-109 5 -180.5 78.5
t-81.5 197.5zM209 -39q0 -63 41.5 -106t101.5 -45q59 -3 101 37.5t45 101.5q3 63 -35.5 106t-97.5 45q-63 2 -108 -38t-48 -101z" />
    <glyph glyph-name="uni2087" unicode="&#x2087;" horiz-adv-x="655" 
d="M63 -299l375 684h-356v121h563l-440 -805h-142z" />
    <glyph glyph-name="uni2088" unicode="&#x2088;" horiz-adv-x="700" 
d="M72 -47q0 68 29.5 124t84.5 91q-53 56 -53 137q0 89 62 150t155 61t157 -61.5t64 -149.5q0 -75 -59 -137q53 -34 85 -91.5t32 -123.5q0 -110 -80.5 -186t-198.5 -76q-119 0 -198.5 75.5t-79.5 186.5zM193 -47q0 -59 45 -101t112 -42q66 0 112 42t46 101q0 61 -46.5 107
t-111.5 46h-8q-63 0 -106 -46.5t-43 -106.5zM254 305q0 -36 25.5 -64.5t64.5 -31.5h10q40 3 67.5 31.5t27.5 64.5q0 37 -29 63.5t-70 26.5t-68.5 -26.5t-27.5 -63.5z" />
    <glyph glyph-name="uni2089" unicode="&#x2089;" horiz-adv-x="692" 
d="M76 258q6 111 84.5 185.5t187.5 70.5q109 -5 180.5 -78.5t81.5 -197.5q1 -41 3 -90.5t-5 -103t-16.5 -105t-32.5 -97.5t-53.5 -81t-78.5 -54.5t-108 -17.5q-50 2 -90 15t-81 50.5t-68 98.5l108 45q46 -95 131 -95q78 0 126.5 76t46.5 195q-50 -97 -164 -97
q-110 0 -182.5 84t-69.5 197zM197 252q-3 -63 35.5 -106.5t97.5 -45.5q63 -2 107.5 38.5t47.5 101.5q0 63 -41.5 106t-101.5 45q-59 3 -100.5 -37.5t-44.5 -101.5z" />
    <glyph glyph-name="colonmonetary" unicode="&#x20a1;" horiz-adv-x="1437" 
d="M96 702q0 186 84 345t232 259t329 117l80 226l97 -35l-68 -189q94 -3 176 -30l64 178l96 -33l-66 -182q125 -59 221 -170l-143 -119q-67 71 -141 111l-359 -1004q56 -12 113 -12q117 0 218 47.5t173 132.5l144 -121q-95 -114 -234 -178.5t-301 -64.5q-82 0 -174 20
l-80 -223l-96 35l78 221q-90 38 -154 88l-96 -268l-96 32l108 308q-97 100 -151 231t-54 278zM287 702q0 -165 88 -303l295 824q-169 -46 -276 -191t-107 -330zM451 307q66 -63 151 -100l361 1012q-70 24 -152 24h-27z" />
    <glyph glyph-name="lira" unicode="&#x20a4;" horiz-adv-x="1300" 
d="M106 0v184h189v279h-156v108h156v136h-156v108h156v213q0 118 59.5 210.5t154.5 140.5t206 48q169 0 286 -118.5t117 -309.5h-184q0 88 -41.5 150.5t-106.5 81.5q-49 14 -92 8q-87 -3 -152 -62.5t-65 -148.5v-213h314v-108h-314v-136h314v-108h-314v-279h500
q15 0 25 12.5t10 32.5v117h184v-100q0 -108 -50.5 -177t-146.5 -69h-893z" />
    <glyph glyph-name="uni20A6" unicode="&#x20a6;" horiz-adv-x="1550" 
d="M117 512v113h141v151h-141v113h141v522h188l316 -522h321v522h191v-522h168v-113h-168v-151h168v-113h-168v-512h-182l-310 512h-333v-512h-191v512h-141zM449 625h264l-90 151h-174v-151zM449 889h104l-104 174v-174zM829 776l93 -151h161v151h-254zM989 512l94 -156
v156h-94z" />
    <glyph glyph-name="peseta" unicode="&#x20a7;" horiz-adv-x="1525" 
d="M109 817v113h163v100h-163v113h163v268h564q148 0 245 -74t140 -194h213v-113h-185q6 -44 6 -84v-16h179v-113h-195q-33 -132 -132.5 -210.5t-270.5 -78.5h-371v-528h-193v817h-163zM465 707h358q156 0 213 110h-571v-110zM465 930h600v16q0 36 -10 84h-590v-100z
M465 1143h541q-63 90 -172 90h-369v-90z" />
    <glyph glyph-name="uni20A8" unicode="&#x20a8;" horiz-adv-x="1380" 
d="M135 1411h1147v-113h-442q94 -89 118 -227h324v-113h-315q-2 -80 -23.5 -150t-64.5 -129t-115 -97.5t-166 -46.5l377 -535h-232l-364 528h-242v179h398q117 0 174.5 71.5t60.5 179.5h-633v113h621q-48 162 -215 162h-406z" />
    <glyph glyph-name="uni20A9" unicode="&#x20a9;" horiz-adv-x="2011" 
d="M113 1411h204l136 -420h413l66 230h145l66 -230h413l136 420h204l-143 -420h135v-112h-172l-69 -205h241v-113h-278l-191 -561h-166l-159 561h-181l-157 -561h-166l-191 561h-276v113h239l-69 205h-170v112h131zM487 879l66 -205h223l58 205h-347zM590 561l82 -254
l71 254h-153zM944 674h119l-59 205h-3zM1174 879l59 -205h221l66 205h-346zM1264 561l73 -254l82 254h-155z" />
    <glyph glyph-name="afii57636" unicode="&#x20aa;" horiz-adv-x="1538" 
d="M197 0v1102h403q193 0 312.5 -120.5t119.5 -301.5v-342h-182v342q0 102 -69 171t-181 69h-219v-920h-184zM506 422v342h182v-342q0 -102 69 -171t181 -69h219v920h184v-1102h-403q-193 0 -312.5 120.5t-119.5 301.5z" />
    <glyph glyph-name="Euro" unicode="&#x20ac;" horiz-adv-x="1603" 
d="M106 510v113h957v-113h-551q47 -152 170.5 -249t286.5 -97q105 0 204 46t181 128l129 -131q-105 -106 -237.5 -165.5t-276.5 -59.5q-242 0 -418.5 147.5t-233.5 380.5h-211zM106 748v114h209q56 235 233 386t421 151q143 0 275 -59t237 -166l-129 -130q-176 173 -383 173
q-165 0 -288.5 -99.5t-170.5 -255.5h553v-114h-957z" />
    <glyph glyph-name="afii61289" unicode="&#x2113;" horiz-adv-x="804" 
d="M147 326v776q0 72 13.5 128t44.5 102t87 70.5t136 24.5q98 0 161 -44.5t88 -114.5t25 -166v-389q0 -180 -81 -254t-291 -74v-59q0 -99 41 -125q36 -19 82 -19h194v-182h-219q-153 0 -217 87.5t-64 238.5zM330 569h98q90 0 90 154v367q0 155 -90 155q-98 0 -98 -155v-521z
" />
    <glyph glyph-name="afii61352" unicode="&#x2116;" horiz-adv-x="1984" 
d="M197 0v1411h188l637 -1055v1055h190v-1411h-182l-643 1063v-1063h-190zM1341 1143q0 110 79.5 189t191.5 79q110 0 189 -79t79 -189t-79 -189.5t-189 -79.5q-112 0 -191.5 79t-79.5 190zM1352 692v96h518v-96h-518zM1481 1143q0 -54 38.5 -92.5t92.5 -38.5t92.5 38.5
t38.5 92.5t-38.5 92.5t-92.5 38.5t-92.5 -38.5t-38.5 -92.5z" />
    <glyph glyph-name="trademark" unicode="&#x2122;" horiz-adv-x="1728" 
d="M135 1274v121h731l252 -553l252 553h119l94 -785h-133l-66 549l-208 -465h-113l-213 465l-64 -549h-135l78 664h-217v-664h-139v664h-238z" />
    <glyph glyph-name="estimated" unicode="&#x212e;" horiz-adv-x="1349" 
d="M129 573q0 164 66.5 298t196.5 215t300 81q169 0 298 -82.5t195 -217t66 -296.5h-878v-395q135 -129 311 -129q67 0 124.5 14.5t99.5 36.5t81 58t66.5 70t58.5 81l64 -39q-43 -67 -87 -115.5t-103 -89.5t-135 -62t-169 -21q-122 0 -227 47.5t-176.5 128t-111.5 189
t-40 228.5zM373 639h633v334q-59 54 -144 90.5t-170 36.5q-195 0 -319 -127v-334z" />
    <glyph glyph-name="minus" unicode="&#x2212;" horiz-adv-x="1179" 
d="M152 457v168h876v-168h-876z" />
    <glyph glyph-name="notequal" unicode="&#x2260;" horiz-adv-x="1216" 
d="M137 225v178h355l106 218h-461v178h547l111 225h145l-111 -225h250v-178h-338l-104 -218h442v-178h-530l-111 -225h-143l111 225h-269z" />
    <glyph glyph-name="lessequal" unicode="&#x2264;" horiz-adv-x="1339" 
d="M135 686v178l1036 398v-199l-778 -287l778 -291v-196zM154 0v164h1017v-164h-1017z" />
    <glyph glyph-name="greaterequal" unicode="&#x2265;" horiz-adv-x="1339" 
d="M168 0v164h1018v-164h-1018zM168 289v196l778 291l-778 287v199l1036 -398v-178z" />
    <glyph glyph-name="uniE000" unicode="&#xe000;" horiz-adv-x="952" 
d="M0 0v952h952v-952h-952z" />
    <glyph glyph-name="uniF6C3" unicode="&#xf6c3;" horiz-adv-x="567" 
d="M143 -473q63 85 84.5 159t10.5 197h184q2 -263 -160 -395z" />
    <glyph glyph-name="uniF6DD" unicode="&#xf6dd;" horiz-adv-x="2408" 
d="M152 0v1411h542q107 0 190 -37.5t131 -101t72.5 -140.5t24.5 -163q0 -81 -21 -153t-64 -133t-115.5 -100.5t-168.5 -47.5l377 -535h-231l-365 528h-180v-528h-192zM344 707h336q62 0 109 22t73.5 60t39.5 83.5t13 96.5q0 69 -21.5 126.5t-74.5 97.5t-131 40h-344v-526z
M1337 -465v1421h187v-149q46 79 138.5 124.5t195.5 45.5q201 0 340 -140t139 -362q0 -147 -65.5 -261.5t-173.5 -174t-240 -59.5q-106 0 -197.5 41.5t-136.5 121.5v-608h-187zM1526 473q0 -145 94 -228t219 -83q132 0 220.5 85.5t88.5 225.5q0 141 -89 231.5t-220 90.5
t-222 -87.5t-91 -234.5z" />
    <glyph glyph-name="uniF8FF" unicode="&#xf8ff;" horiz-adv-x="1734" 
d="M164 0v1407h1407v-1407h-1407zM336 162h18v76l27 -76h20l23 76v-76h18v108h-28l-19 -73l-28 73h-31v-108zM336 446h166l-152 154v365l522 -519l525 519v-365l-152 -154h172v773l-545 -539l-536 539v-773zM457 215q0 -22 13 -37.5t38 -15.5q22 0 34.5 15.5t12.5 37.5
q0 23 -12.5 39t-34.5 16q-25 0 -38 -16t-13 -39zM473 215q0 12 10.5 23.5t24.5 11.5q12 0 18 -11t6 -24q0 -12 -6 -22.5t-18 -10.5q-14 0 -24.5 11.5t-10.5 21.5zM555 203q0 -20 12.5 -30.5t32.5 -10.5q45 0 45 35q0 22 -31 28q-21 3 -26.5 5t-5.5 8q0 12 18 12q21 0 21 -12
h18q0 32 -39 32q-15 0 -27 -9t-12 -23q0 -11 8 -17t25 -14q27 0 27 -10t-4.5 -12.5t-16.5 -2.5q-18 0 -18 21h-27zM645 250h35v-88h16v88h31v20h-82v-20zM709 162h24l8 26h45l7 -26h22h19v45h26q8 0 13.5 -6t5.5 -13v-26h26q-6 6 -6 26q0 19 -14 27q10 4 12 8.5t2 14.5
q0 32 -27 32h-57v-108l-43 108h-18zM748 207l12 37h6l14 -37h-32zM834 221v29h26q19 0 19 -12q0 -17 -19 -17h-26zM913 162h41q24 0 38 16.5t14 42.5q0 22 -14 35.5t-38 13.5h-41v-108zM938 182v68h8q21 0 28 -8t7 -27q0 -13 -9 -23t-18 -10h-16zM1012 162h82v20h-58v25h51
v18h-51v25h51v20h-75v-108zM1094 203q0 -41 45 -41q19 0 32 10t13 25q0 21 -31 28q-23 3 -29 5t-6 8q0 12 15 12q24 0 24 -12h21q0 32 -39 32q-16 0 -30.5 -9t-14.5 -23q0 -11 9.5 -17t29.5 -14q24 0 24 -10q0 -15 -18 -15q-10 0 -18.5 5.5t-8.5 15.5h-18zM1192 162h14v108
h-14v-108zM1221 215q0 -22 13.5 -37.5t37.5 -15.5q18 0 24 14l9 -14h12v59h-45v-18h24q-9 -21 -24 -21q-14 0 -23.5 11.5t-9.5 21.5q0 12 9.5 23.5t23.5 11.5q6 0 12 -6t6 -15h27q-4 20 -17 30.5t-28 10.5q-24 0 -37.5 -16t-13.5 -39zM1329 162h17v67l45 -67h26v108h-26v-67
l-45 67h-17v-108z" />
    <glyph glyph-name="NULL" horiz-adv-x="0" 
 />
    <glyph glyph-name="published" horiz-adv-x="1656" 
d="M113 702q0 197 94.5 363.5t259 264t360.5 97.5q147 0 280 -57.5t228.5 -155t152 -231.5t56.5 -281q0 -196 -95.5 -362.5t-260.5 -263t-361 -96.5q-147 0 -279.5 57t-227.5 154t-151 230.5t-56 280.5zM238 702q0 -163 78 -300t213.5 -216.5t297.5 -79.5q122 0 231.5 47
t188 127t124.5 190t46 232t-46 232.5t-124.5 190.5t-188.5 127.5t-231 47.5q-162 0 -297.5 -80t-213.5 -217.5t-78 -300.5zM614 324v723h279q113 0 173 -70t60 -168q0 -41 -14 -81t-40.5 -75.5t-73 -57.5t-105.5 -22h-137v-249h-142zM756 713h133q45 0 68.5 28t23.5 68
q0 41 -23 69.5t-65 28.5h-137v-194z" />
    <glyph glyph-name="frenchfranc" horiz-adv-x="1486" 
d="M199 0v1384h802v-184h-618v-340h596v-229q69 235 266 235q49 0 96.5 -11.5t69.5 -25.5l-29 -174q-67 33 -141 33q-89 0 -149 -60.5t-86.5 -159.5t-26.5 -230v-238h-186v676h-410v-676h-184z" />
    <glyph glyph-name="parenleft.case" horiz-adv-x="743" 
d="M100 713q0 292 69.5 508t196.5 330t296 114v-182q-176 0 -282 -208.5t-106 -561.5t106 -561.5t282 -208.5v-183q-256 0 -409 256.5t-153 696.5z" />
    <glyph glyph-name="parenright.case" horiz-adv-x="743" 
d="M82 -57q176 0 281.5 208.5t105.5 561.5t-105.5 561.5t-281.5 208.5v182q256 0 408.5 -256t152.5 -696t-152.5 -696.5t-408.5 -256.5v183z" />
    <glyph glyph-name="hyphen.case" horiz-adv-x="995" 
d="M141 629v178h713v-178h-713z" />
    <glyph glyph-name="at.case" horiz-adv-x="1988" 
d="M102 715q0 183 69 349t186.5 287t282 192t347.5 71q247 0 458.5 -111t338.5 -310.5t127 -442.5q0 -76 -12 -153t-41.5 -155.5t-72 -138t-110.5 -97.5t-151 -38q-60 0 -110 14.5t-92.5 47t-66.5 91.5t-24 140v264q0 112 -77 188t-187 76t-187.5 -76t-77.5 -188
q0 -108 78 -185t187 -77q104 0 202 98v-174q-97 -70 -202 -70q-169 0 -289.5 119.5t-120.5 288.5q0 170 120.5 290t289.5 120q163 0 282 -113q121 -115 127 -279v-297q0 -135 148 -135q56 0 100 30t69.5 76t42 107.5t22 116t5.5 109.5q0 153 -62.5 288t-168.5 228.5
t-248 147.5t-297 54q-154 0 -291.5 -59.5t-235.5 -160.5t-155 -240t-57 -293t57 -292.5t155 -238.5t235.5 -158.5t291.5 -58.5h47v-145h-47q-183 0 -347.5 70t-282 189.5t-186.5 284.5t-69 349z" />
    <glyph glyph-name="bracketleft.case" horiz-adv-x="669" 
d="M172 -219v1876h412v-170h-228v-1536h228v-170h-412z" />
    <glyph glyph-name="bracketright.case" horiz-adv-x="669" 
d="M86 -53h227v1536h-227v170h412v-1876h-412v170z" />
    <glyph glyph-name="braceleft.case" horiz-adv-x="819" 
d="M80 627v166q50 0 87.5 32t37.5 72v360q-1 180 115.5 290t287.5 110h131v-162h-137q-91 0 -156 -69.5t-65 -168.5v-360q0 -57 -26.5 -110t-73.5 -78q43 -24 71.5 -78.5t28.5 -108.5v-356q0 -99 65 -169.5t156 -70.5h137v-162h-131q-170 0 -286.5 111t-116.5 291v356
q0 40 -37.5 72.5t-87.5 32.5z" />
    <glyph glyph-name="braceright.case" horiz-adv-x="819" 
d="M80 -74h137q91 0 156 70.5t65 169.5v356q0 54 29 108.5t72 78.5q-47 25 -74 78t-27 110v360q0 99 -65 168.5t-156 69.5h-137v162h131q171 0 287.5 -110t115.5 -290v-360q0 -40 37.5 -72t87.5 -32v-166q-50 0 -87.5 -32.5t-37.5 -72.5v-356q0 -180 -116.5 -291
t-286.5 -111h-131v162z" />
    <glyph glyph-name="exclamdown.case" horiz-adv-x="538" 
d="M135 1300q0 55 39 91t94 36q56 0 95.5 -36t39.5 -91t-39.5 -92t-95.5 -37q-55 0 -94 37t-39 92zM178 -2l21 1030h145l18 -1030h-184z" />
    <glyph glyph-name="guillemotleft.case" horiz-adv-x="1054" 
d="M117 717l282 424h162l-282 -424l282 -424h-162zM477 717l283 424h162l-283 -424l283 -424h-162z" />
    <glyph glyph-name="periodcentered.case" horiz-adv-x="548" 
d="M141 723q0 55 39 92t94 37q56 0 96 -37t40 -92t-40 -91t-96 -36q-55 0 -94 36t-39 91z" />
    <glyph glyph-name="guillemotright.case" horiz-adv-x="1054" 
d="M133 293l283 424l-283 424h162l283 -424l-283 -424h-162zM494 293l282 424l-282 424h161l283 -424l-283 -424h-161z" />
    <glyph glyph-name="questiondown.case" horiz-adv-x="987" 
d="M78 379q0 143 84 245.5t211 141.5q74 22 109.5 52.5t35.5 96.5l4 121h180v-121q0 -72 -20 -127t-59 -92.5t-85 -61.5t-110 -44q-54 -15 -98 -62q-70 -63 -70 -149q0 -96 71.5 -156.5t166.5 -60.5q92 0 155.5 67.5t63.5 178.5h184q0 -191 -117 -309.5t-286 -118.5
q-112 0 -207 47.5t-154 140t-59 211.5zM477 1300q0 55 38.5 91t94.5 36t95.5 -36t39.5 -91t-39.5 -92t-95.5 -37t-94.5 37t-38.5 92z" />
    <glyph glyph-name="endash.case" horiz-adv-x="1222" 
d="M147 637v160h928v-160h-928z" />
    <glyph glyph-name="emdash.case" horiz-adv-x="1644" 
d="M147 637v160h1350v-160h-1350z" />
    <glyph glyph-name="bullet.case" horiz-adv-x="948" 
d="M168 717q0 124 89.5 207.5t217.5 83.5q126 0 215.5 -83.5t89.5 -207.5q0 -126 -89.5 -209.5t-215.5 -83.5q-128 0 -217.5 83.5t-89.5 209.5z" />
    <glyph glyph-name="guilsinglleft.case" horiz-adv-x="694" 
d="M117 717l282 424h162l-282 -424l282 -424h-162z" />
    <glyph glyph-name="guilsinglright.case" horiz-adv-x="694" 
d="M133 293l283 424l-283 424h162l283 -424l-283 -424h-162z" />
    <glyph glyph-name="cent.case" horiz-adv-x="1091" 
d="M104 713q0 194 116.5 325.5t295.5 161.5v211h127v-205q99 -4 186 -43.5t150 -107.5l-141 -119q-90 90 -228 90q-134 0 -227.5 -86.5t-93.5 -226.5q0 -141 94 -231.5t227 -90.5q137 0 228 94l143 -118q-129 -141 -338 -154v-213h-127v219q-179 30 -295.5 164t-116.5 330z
" />
    <glyph glyph-name="zero.tnum" 
d="M109 666q0 121 13 218.5t47 187.5t87.5 150.5t139.5 96t198 35.5q113 0 198.5 -35.5t139 -96t86.5 -150.5t46 -187.5t13 -218.5q0 -120 -13 -216.5t-46 -186t-86.5 -150t-139 -96t-198.5 -35.5q-112 0 -198 35.5t-139.5 96t-87.5 149.5t-47 186.5t-13 216.5zM293 666
q0 -88 8 -159t28.5 -136.5t54 -109.5t86.5 -70.5t124 -26.5t124 26.5t86.5 70.5t54 109.5t28.5 136.5t8 159q0 89 -8 160t-28.5 137t-54 110t-86.5 70t-124 26t-124 -26t-86.5 -70t-54 -110t-28.5 -137t-8 -160z" />
    <glyph glyph-name="one.tnum" 
d="M338 1028v176l401 146v-1350h-184v1104z" />
    <glyph glyph-name="two.tnum" 
d="M160 1001q26 160 143.5 256.5t276.5 96.5q178 0 298.5 -111t120.5 -285q0 -181 -145 -346q-93 -109 -187 -221t-175 -207h509v-184h-825v82l543 657q98 116 98 219q0 95 -68 153t-169 58q-93 0 -161 -57t-81 -154z" />
    <glyph glyph-name="three.tnum" 
d="M133 262l162 88q32 -71 100.5 -124.5t147.5 -59.5q112 -6 199.5 58t91.5 161q3 96 -75 168t-184 72h-151v178h151q70 -1 121.5 43t63.5 110q15 85 -23 138q-22 32 -64 53t-91 24q-146 11 -234 -120l-137 108q56 97 160 150.5t227 46.5q162 -9 268 -118.5t101 -252.5
q0 -35 -13 -82q-38 -121 -145 -182q99 -37 159.5 -144t51.5 -217q-10 -111 -79.5 -201t-179 -137t-231.5 -38q-130 9 -237 85t-160 193z" />
    <glyph glyph-name="four.tnum" 
d="M41 274l741 1063h138v-888h192v-175h-192v-274h-183v274h-696zM354 449h383v557z" />
    <glyph glyph-name="five.tnum" 
d="M115 285l157 86q38 -99 115 -156t172 -57q161 0 241.5 76t80.5 196q0 123 -79.5 189.5t-197.5 66.5q-87 0 -157 -23.5t-175 -87.5l-114 95l116 665h713v-176h-561l-74 -379q45 33 118 55.5t134 22.5q94 0 176 -28t145 -81t99.5 -135t36.5 -184q0 -204 -138.5 -327
t-363.5 -123q-140 0 -261.5 83t-182.5 222z" />
    <glyph glyph-name="six.tnum" 
d="M168 440q-18 259 22 506q30 185 154.5 299.5t304.5 108.5q60 -2 110 -14.5t101.5 -40t95 -79t76.5 -124.5l-164 -70q-38 78 -98.5 116t-128.5 38q-140 0 -223 -132t-64 -335q31 78 103.5 114.5t171.5 36.5q119 0 216 -65t149 -170t48 -223q-9 -183 -138.5 -307
t-309.5 -117q-179 8 -294 129.5t-132 328.5zM352 434q0 -111 72.5 -187t177.5 -79q105 -4 179 67t79 179q5 109 -63 185.5t-174 80.5q-107 3 -187 -68t-84 -178z" />
    <glyph glyph-name="seven.tnum" 
d="M154 0l637 1155h-613v182h924l-733 -1337h-215z" />
    <glyph glyph-name="eight.tnum" 
d="M133 418q0 111 54.5 205.5t148.5 152.5q-98 95 -98 236q0 143 102 242.5t254 99.5q153 0 256.5 -100t103.5 -242q0 -69 -28 -130.5t-76 -105.5q96 -59 150.5 -153t54.5 -205q0 -183 -133 -309.5t-328 -126.5q-196 0 -328.5 126t-132.5 310zM317 418q0 -106 79.5 -180
t197.5 -74t197 73.5t79 180.5q0 106 -79.5 182t-196.5 76h-14q-111 -3 -187 -79t-76 -179zM420 1012q0 -66 47 -113.5t117 -50.5h16q73 3 121.5 50.5t48.5 113.5t-50.5 111.5t-125.5 45.5q-73 0 -123.5 -45.5t-50.5 -111.5z" />
    <glyph glyph-name="nine.tnum" 
d="M143 928q9 183 139 307t310 117q179 -8 294 -130t132 -329q18 -249 -23 -506q-30 -185 -154 -299t-304 -108q-60 2 -110 14.5t-101.5 40t-95 79t-76.5 124.5l163 69q38 -77 99 -115t129 -38q140 0 222.5 132t63.5 335q-31 -78 -103.5 -115t-170.5 -37q-119 0 -216.5 65
t-149.5 170.5t-48 223.5zM326 920q-5 -109 63 -186t174 -81q107 -3 187 68t84 178q0 111 -72.5 187t-177.5 79q-105 4 -179 -66.5t-79 -178.5z" />
    <glyph glyph-name="zero.taboldstyle" 
d="M96 508q0 118 40.5 218t108.5 167t158 104t189 37q100 0 191 -37t159.5 -104t109 -167t40.5 -218q0 -155 -69.5 -277t-183 -186.5t-247.5 -64.5q-99 0 -189 38t-158 105.5t-108.5 167.5t-40.5 217zM279 508q0 -153 91.5 -249.5t221.5 -96.5q131 0 223 96.5t92 249.5
t-91.5 247.5t-223.5 94.5q-130 0 -221.5 -95t-91.5 -247z" />
    <glyph glyph-name="one.taboldstyle" 
d="M305 600v195l488 262v-1057h-185v758z" />
    <glyph glyph-name="two.taboldstyle" 
d="M205 0v84l481 520q74 74 74 135q0 54 -48 90.5t-122 36.5q-69 0 -116.5 -41t-53.5 -110l-180 30q13 137 116 221.5t242 84.5q153 0 252.5 -88t99.5 -224q0 -25 -4.5 -49.5t-8.5 -42t-18.5 -42.5t-20 -36t-28 -38t-28 -33.5t-34 -37.5t-32.5 -36l-231 -240h407v-184h-747z
" />
    <glyph glyph-name="six.taboldstyle" 
d="M168 440q-18 259 22 506q30 185 154.5 299.5t304.5 108.5q60 -2 110 -14.5t101.5 -40t95 -79t76.5 -124.5l-164 -70q-38 78 -98.5 116t-128.5 38q-140 0 -223 -132t-64 -335q31 78 103.5 114.5t171.5 36.5q119 0 216 -65t149 -170t48 -223q-9 -183 -138.5 -307
t-309.5 -117q-179 8 -294 129.5t-132 328.5zM352 434q0 -111 72.5 -187t177.5 -79q105 -4 179 67t79 179q5 109 -63 185.5t-174 80.5q-107 3 -187 -68t-84 -178z" />
    <glyph glyph-name="eight.taboldstyle" 
d="M133 418q0 111 54.5 205.5t148.5 152.5q-98 95 -98 236q0 143 102 242.5t254 99.5q153 0 256.5 -100t103.5 -242q0 -69 -28 -130.5t-76 -105.5q96 -59 150.5 -153t54.5 -205q0 -183 -133 -309.5t-328 -126.5q-196 0 -328.5 126t-132.5 310zM317 418q0 -106 79.5 -180
t197.5 -74t197 73.5t79 180.5q0 106 -79.5 182t-196.5 76h-14q-111 -3 -187 -79t-76 -179zM420 1012q0 -66 47 -113.5t117 -50.5h16q73 3 121.5 50.5t48.5 113.5t-50.5 111.5t-125.5 45.5q-73 0 -123.5 -45.5t-50.5 -111.5z" />
    <glyph glyph-name="three.taboldstyle" 
d="M139 -123l162 88q32 -71 100.5 -124.5t147.5 -59.5q112 -6 199.5 58t91.5 161q3 96 -74.5 168t-183.5 72h-152v178h152q70 -1 121 43t63 110q15 85 -23 138q-22 32 -64 53t-91 24q-146 11 -234 -120l-137 108q56 97 160 150.5t227 46.5q162 -9 268 -118.5t101 -252.5
q0 -38 -12 -82q-37 -120 -146 -182q99 -37 159.5 -144t51.5 -217q-10 -111 -79.5 -201t-178.5 -137t-231 -38q-130 9 -237.5 85t-160.5 193z" />
    <glyph glyph-name="four.taboldstyle" 
d="M41 -109l741 1063h138v-888h192v-175h-192v-274h-183v274h-696zM354 66h383v557z" />
    <glyph glyph-name="five.taboldstyle" 
d="M117 -98l157 86q38 -99 115 -156t172 -57q161 0 241.5 76t80.5 196q0 123 -79.5 189.5t-197.5 66.5q-87 0 -157 -23.5t-175 -86.5l-114 94l116 665h713v-176h-561l-74 -379q45 33 118 55.5t134 22.5q94 0 176 -28t145 -81t99.5 -135t36.5 -184q0 -204 -138.5 -327
t-363.5 -123q-140 0 -261.5 83t-182.5 222z" />
    <glyph glyph-name="seven.taboldstyle" 
d="M156 -385l637 1155h-613v182h924l-733 -1337h-215z" />
    <glyph glyph-name="nine.taboldstyle" 
d="M154 541q4 72 28 138t65.5 119t95.5 91.5t121 58.5t138 17q179 -8 294 -130t132 -329q19 -253 -22 -506q-30 -185 -154.5 -299.5t-304.5 -108.5q-60 2 -110 14.5t-101.5 40t-95 79t-76.5 124.5l164 70q38 -77 98.5 -115t128.5 -38q140 0 223 131.5t64 334.5
q-31 -78 -103.5 -114.5t-171.5 -36.5q-119 0 -216 65t-149 170.5t-48 223.5zM336 532q-5 -109 63 -185.5t174 -80.5q107 -3 187 68t84 178q0 55 -19.5 104t-53 84t-79.5 56t-98 22q-105 4 -179 -67t-79 -179z" />
    <glyph glyph-name="zero.oldstyle" horiz-adv-x="1212" 
d="M109 508q0 118 40 218t108.5 167t158 104t188.5 37q100 0 191 -37t159.5 -104t109 -167t40.5 -218q0 -155 -69.5 -277t-183 -186.5t-247.5 -64.5q-99 0 -189 38t-157.5 105.5t-108 167.5t-40.5 217zM291 508q0 -153 91.5 -249.5t221.5 -96.5q131 0 223.5 96.5t92.5 249.5
q0 152 -92 247t-224 95q-130 0 -221.5 -95t-91.5 -247z" />
    <glyph glyph-name="one.oldstyle" horiz-adv-x="747" 
d="M86 600v195l487 262v-1057h-184v758z" />
    <glyph glyph-name="two.oldstyle" horiz-adv-x="972" 
d="M98 0v84l482 520q73 73 73 135q0 54 -48 90.5t-122 36.5q-69 0 -116.5 -41t-53.5 -110l-180 30q13 137 116.5 221.5t242.5 84.5q153 0 252.5 -88t99.5 -224q0 -25 -4.5 -49.5t-8.5 -42t-18.5 -42.5t-20 -36t-28 -38t-28 -33.5t-34 -37.5t-32.5 -36l-232 -240h408v-184
h-748z" />
    <glyph glyph-name="three.oldstyle" horiz-adv-x="1054" 
d="M72 -123l161 88q32 -71 100.5 -124.5t147.5 -59.5q112 -6 199.5 58t91.5 161q3 96 -74.5 168t-183.5 72h-152v178h152q70 -1 121 43t63 110q15 86 -22 138q-22 32 -64 53t-92 24q-145 11 -233 -120l-137 108q56 97 160 150.5t227 46.5q162 -9 267.5 -118t100.5 -253
q0 -38 -12 -82q-38 -121 -145 -182q99 -37 159 -144t51 -217q-10 -111 -79.5 -201t-178.5 -137t-231 -38q-130 9 -237 85t-160 193z" />
    <glyph glyph-name="four.oldstyle" 
d="M41 -109l741 1063h138v-888h192v-175h-192v-274h-183v274h-696zM354 66h383v557z" />
    <glyph glyph-name="five.oldstyle" horiz-adv-x="1122" 
d="M84 -98l158 86q38 -99 114.5 -156t171.5 -57q161 0 241.5 76t80.5 196q0 123 -79.5 189.5t-197.5 66.5q-87 0 -156.5 -23.5t-174.5 -86.5l-115 94l117 665h712v-176h-561l-73 -379q45 33 117.5 55.5t133.5 22.5q94 0 176 -28t145 -81t99.5 -135t36.5 -184
q0 -204 -138.5 -327t-363.5 -123q-140 0 -261.5 83t-182.5 222z" />
    <glyph glyph-name="six.oldstyle" horiz-adv-x="1138" 
d="M143 440q-18 254 23 506q30 185 154.5 299.5t304.5 108.5q60 -2 110 -14.5t101.5 -40t95 -79t76.5 -124.5l-164 -70q-38 78 -99 116t-129 38q-140 0 -222.5 -132t-63.5 -335q60 151 274 151q119 0 216.5 -65t149.5 -170t48 -223q-9 -183 -139 -307t-310 -117
q-179 8 -294 129.5t-132 328.5zM328 434q0 -111 72.5 -187t177.5 -79q105 -4 179 67t79 179q4 109 -64 185t-174 81q-107 3 -186.5 -68t-83.5 -178z" />
    <glyph glyph-name="seven.oldstyle" horiz-adv-x="1036" 
d="M80 -385l637 1155h-613v182h924l-733 -1337h-215z" />
    <glyph glyph-name="eight.oldstyle" horiz-adv-x="1150" 
d="M115 418q0 111 54 205.5t148 152.5q-98 95 -98 236q0 143 102 242.5t254 99.5q153 0 257 -100t104 -242q0 -69 -28 -130.5t-77 -105.5q96 -59 150.5 -153t54.5 -205q0 -183 -133 -309.5t-328 -126.5q-196 0 -328 126t-132 310zM299 418q0 -107 79 -180.5t197 -73.5
t197.5 74t79.5 180t-80 182t-197 76h-14q-111 -3 -186.5 -79t-75.5 -179zM401 1012q0 -66 47 -113.5t117 -50.5h17q73 3 121.5 50.5t48.5 113.5t-51 111.5t-126 45.5q-73 0 -123.5 -45.5t-50.5 -111.5z" />
    <glyph glyph-name="nine.oldstyle" horiz-adv-x="1093" 
d="M106 541q9 183 139 307t310 117q179 -8 294 -130t132 -329q18 -249 -23 -506q-30 -185 -154 -299.5t-304 -108.5q-60 2 -110 14.5t-101.5 40t-95 79t-76.5 124.5l164 70q38 -77 98.5 -115t128.5 -38q140 0 223 131.5t64 334.5q-31 -78 -103.5 -114.5t-171.5 -36.5
q-119 0 -216.5 65t-149.5 170.5t-48 223.5zM289 532q-5 -109 63 -185.5t174 -80.5q107 -3 187 68t84 178q0 111 -72.5 187t-177.5 79q-105 4 -179 -67t-79 -179z" />
    <glyph glyph-name="Lslash.sc" horiz-adv-x="888" 
d="M80 485v131l110 72v508h172v-401l179 110v-129l-179 -112v-494h482v-170h-654v557z" />
    <glyph glyph-name="Zcaron.sc" horiz-adv-x="1038" 
d="M92 0v147l619 887h-594v162h817v-147l-625 -885h625v-164h-842zM229 1610h156l125 -146l129 146h154l-199 -275h-164z" />
    <glyph glyph-name="exclam.sc" horiz-adv-x="536" 
d="M162 94q0 44 30.5 74.5t73.5 30.5q44 0 75.5 -30.5t31.5 -74.5q0 -41 -31.5 -70.5t-75.5 -29.5q-43 0 -73.5 29.5t-30.5 70.5zM186 1196h166l-16 -879h-133z" />
    <glyph glyph-name="ampersand.sc" horiz-adv-x="1181" 
d="M117 369q0 97 45.5 179.5t126.5 135.5q-37 37 -57.5 93t-20.5 116q0 127 90 215t223 88q91 0 169.5 -48t125.5 -128l-139 -88q-29 47 -70 75.5t-86 28.5q-66 0 -109.5 -40.5t-43.5 -102.5q0 -61 41.5 -108.5t103.5 -47.5h225v152h160v-154h150v-137h-150v-229
q0 -41 3.5 -72t15 -62t30.5 -50.5t52.5 -31.5t78.5 -12v-157q-93 0 -167.5 33.5t-112.5 86.5q-49 -57 -126.5 -88.5t-162.5 -31.5q-173 0 -284 111t-111 274zM279 369q0 -95 65 -159.5t168 -64.5q97 0 160.5 61t68.5 152v240h-227q-98 0 -166.5 -69t-68.5 -160z" />
    <glyph glyph-name="question.sc" horiz-adv-x="872" 
d="M88 840q0 166 100 267t246 101q148 0 253.5 -93t105.5 -245q0 -122 -72 -210t-180 -121q-59 -17 -89 -43t-30 -78l-2 -101h-164v101q0 119 60 182.5t173 97.5q56 14 98 63t42 109q0 76 -59.5 125t-135.5 49t-131 -56t-55 -148h-160zM219 96q0 50 35.5 83.5t83.5 33.5
q51 0 85 -33t34 -84q0 -49 -34 -80.5t-85 -31.5q-49 0 -84 32t-35 80z" />
    <glyph glyph-name="A.sc" horiz-adv-x="1167" 
d="M39 0l455 1196h180l454 -1196h-182l-115 301h-493q-23 -56 -64.5 -167t-50.5 -134h-184zM395 457h377q-31 85 -94 249.5t-94 249.5z" />
    <glyph glyph-name="B.sc" horiz-adv-x="1132" 
d="M182 0v1196h453q152 0 240 -84t88 -229q0 -77 -33.5 -143t-102.5 -101q90 -27 144.5 -112.5t54.5 -178.5q0 -147 -96 -247.5t-256 -100.5h-492zM356 162h310q82 0 133 56t51 132q0 75 -53.5 139t-134.5 64h-306v-391zM356 707h279q72 0 111.5 49.5t39.5 122.5
q0 74 -45.5 115.5t-124.5 41.5h-260v-329z" />
    <glyph glyph-name="C.sc" horiz-adv-x="1228" 
d="M104 596q0 125 47.5 238.5t129 195.5t194.5 130t238 48q134 0 250.5 -53.5t201.5 -150.5l-127 -109q-137 147 -325 147q-184 0 -310.5 -129.5t-126.5 -316.5t126.5 -316.5t310.5 -129.5q96 0 180.5 41t146.5 112l129 -108q-84 -99 -202.5 -156t-253.5 -57
q-125 0 -238 48.5t-194.5 130.5t-129 196t-47.5 239z" />
    <glyph glyph-name="D.sc" horiz-adv-x="1296" 
d="M182 0v1196h465q167 0 290.5 -79.5t186 -214.5t62.5 -306t-62.5 -305t-186 -212.5t-290.5 -78.5h-465zM354 162h293q118 0 202 58t124.5 154.5t40.5 221.5q0 193 -96 316.5t-271 123.5h-293v-874z" />
    <glyph glyph-name="E.sc" horiz-adv-x="1021" 
d="M182 0v1196h713v-160h-541v-366h473v-162h-473v-346h557v-162h-729z" />
    <glyph glyph-name="F.sc" horiz-adv-x="950" 
d="M182 0v1196h703v-160h-531v-366h420v-162h-420v-508h-172z" />
    <glyph glyph-name="G.sc" horiz-adv-x="1349" 
d="M104 596q0 168 79.5 308.5t218.5 222t307 81.5q117 0 222 -42t185 -119l-123 -115q-118 112 -284 112q-182 0 -307.5 -130.5t-125.5 -317.5t125.5 -318t307.5 -131q157 0 260 83.5t110 224.5h-336v151h531q0 -310 -150.5 -467t-414.5 -157q-126 0 -238.5 48.5
t-192.5 130.5t-127 195.5t-47 239.5z" />
    <glyph glyph-name="H.sc" horiz-adv-x="1269" 
d="M182 0v1196h172v-522h559v522h174v-1196h-174v516h-559v-516h-172z" />
    <glyph glyph-name="I.sc" horiz-adv-x="536" 
d="M182 0v1196h172v-1196h-172z" />
    <glyph glyph-name="J.sc" horiz-adv-x="536" 
d="M-152 -412l17 166q19 -7 62 -11.5t59 -4.5q102 0 149 61.5t47 159.5v1237h172v-1237q0 -82 -20.5 -150.5t-62.5 -123t-115 -85t-170 -30.5q-46 0 -138 18z" />
    <glyph glyph-name="K.sc" horiz-adv-x="1054" 
d="M182 0v1196h172v-500l383 500h209l-459 -598l566 -598h-236l-463 496v-496h-172z" />
    <glyph glyph-name="L.sc" horiz-adv-x="880" 
d="M182 0v1196h172v-1034h484v-162h-656z" />
    <glyph glyph-name="M.sc" horiz-adv-x="1658" 
d="M115 0l145 1196h156l411 -858l416 858h156l145 -1196h-172l-104 874l-363 -743h-149l-365 743l-106 -874h-170z" />
    <glyph glyph-name="N.sc" horiz-adv-x="1230" 
d="M182 0v1196h168l527 -866v866h172v-1196h-164l-531 877v-877h-172z" />
    <glyph glyph-name="O.sc" horiz-adv-x="1421" 
d="M104 596q0 168 79.5 308.5t218.5 222t307 81.5t308 -81.5t220 -222t80 -308.5t-80 -309t-220 -223t-308 -82q-126 0 -238.5 48.5t-192.5 130.5t-127 195.5t-47 239.5zM276 596q0 -187 125.5 -316.5t307.5 -129.5q183 0 308.5 130t125.5 316t-125.5 316t-308.5 130
q-182 0 -307.5 -129.5t-125.5 -316.5z" />
    <glyph glyph-name="P.sc" horiz-adv-x="1093" 
d="M182 0v1196h480q92 0 162.5 -32t112 -86.5t62.5 -120t21 -138.5q0 -75 -21 -141t-62.5 -119.5t-112 -85t-162.5 -31.5h-306v-442h-174zM356 604h295q97 0 147 63.5t50 151.5q0 89 -48 153t-141 64h-303v-432z" />
    <glyph glyph-name="Q.sc" horiz-adv-x="1421" 
d="M104 596q0 168 79.5 308.5t218.5 222t307 81.5t308 -81.5t220 -222t80 -308.5q0 -158 -76 -295.5t-203 -220.5l123 -197l-135 -86l-133 213q-100 -28 -184 -28q-126 0 -238.5 48.5t-192.5 130.5t-127 195.5t-47 239.5zM276 596q0 -170 116.5 -296.5t285.5 -143.5
q82 0 119 6q-19 32 -60 97.5t-59 96.5l133 84l133 -215q93 59 146 157t53 214q0 186 -125.5 316t-308.5 130q-182 0 -307.5 -129.5t-125.5 -316.5z" />
    <glyph glyph-name="R.sc" horiz-adv-x="1118" 
d="M182 0v1196h461q91 0 161.5 -32t112.5 -86.5t63 -120t21 -138.5q0 -69 -17.5 -130t-52.5 -112.5t-95.5 -85t-139.5 -40.5l318 -451h-209l-305 442h-144v-442h-174zM356 604h275q98 0 145 62.5t47 152.5q0 89 -45.5 153t-138.5 64h-283v-432z" />
    <glyph glyph-name="S.sc" horiz-adv-x="1034" 
d="M109 354h174q0 -85 69.5 -148t175.5 -63q105 0 164.5 49t69.5 119q6 44 -9 80.5t-46.5 61t-66.5 40.5t-75 25l-153 39q-291 70 -291 315q0 97 54.5 175t143 119.5t191.5 41.5q168 0 277.5 -97.5t109.5 -258.5h-172q0 87 -61 139.5t-156 52.5q-88 0 -151.5 -48t-63.5 -124
q0 -116 164 -157l153 -39q168 -43 252.5 -141t69.5 -238q-21 -133 -130 -224t-274 -91q-180 0 -299.5 111.5t-119.5 260.5z" />
    <glyph glyph-name="T.sc" horiz-adv-x="987" 
d="M47 1034v162h893v-162h-360v-1034h-174v1034h-359z" />
    <glyph glyph-name="U.sc" horiz-adv-x="1218" 
d="M170 412v784h174v-784q0 -115 77.5 -188.5t186.5 -73.5q111 0 190 73.5t79 188.5v784h172v-784q0 -127 -60.5 -226t-160.5 -151.5t-220 -52.5q-182 0 -310 120t-128 310z" />
    <glyph glyph-name="V.sc" horiz-adv-x="1019" 
d="M68 1196h178l266 -897q22 77 262 897h178l-360 -1196h-162z" />
    <glyph glyph-name="W.sc" horiz-adv-x="1607" 
d="M47 1196h184l293 -913q33 113 104 365.5t111 387.5h129l215 -753l293 913h185l-406 -1196h-147l-205 721l-203 -721h-147z" />
    <glyph glyph-name="X.sc" horiz-adv-x="1118" 
d="M39 0l416 643l-371 553h207l268 -410l270 410h205l-370 -555l417 -641h-209l-313 496l-313 -496h-207z" />
    <glyph glyph-name="Y.sc" horiz-adv-x="1153" 
d="M33 1196h203l337 -477l342 477h209l-460 -647v-549h-177v549z" />
    <glyph glyph-name="Z.sc" horiz-adv-x="1038" 
d="M92 0v147l619 887h-594v162h817v-147l-625 -885h625v-164h-842z" />
    <glyph glyph-name="Scaron.sc" horiz-adv-x="1034" 
d="M109 354h174q0 -85 69.5 -148t175.5 -63q105 0 164.5 49t69.5 119q6 44 -9 80.5t-46.5 61t-66.5 40.5t-75 25l-153 39q-291 70 -291 315q0 97 54.5 175t143 119.5t191.5 41.5q168 0 277.5 -97.5t109.5 -258.5h-172q0 87 -61 139.5t-156 52.5q-88 0 -151.5 -48t-63.5 -124
q0 -116 164 -157l153 -39q168 -43 252.5 -141t69.5 -238q-21 -133 -130 -224t-274 -91q-180 0 -299.5 111.5t-119.5 260.5zM240 1610h155l125 -146l129 146h156l-201 -275h-164z" />
    <glyph glyph-name="OE.sc" horiz-adv-x="1974" 
d="M104 596q0 126 46.5 239t126 195t191.5 130t237 48q126 0 238.5 -51.5t191.5 -140.5v180h710v-170h-538v-354h471v-170h-471v-332h557v-170h-729v176q-79 -89 -191.5 -141.5t-238.5 -52.5q-125 0 -237 48.5t-191.5 130.5t-126 195.5t-46.5 239.5zM274 596
q0 -184 124.5 -312t306.5 -128q112 0 208 58t154.5 154t67.5 207v39q-14 172 -137.5 297t-292.5 125q-182 0 -306.5 -128t-124.5 -312z" />
    <glyph glyph-name="Ydieresis.sc" horiz-adv-x="1153" 
d="M33 1196h203l337 -477l342 477h209l-460 -647v-549h-177v549zM319 1470q0 45 33.5 76t79.5 31t78.5 -31t32.5 -76q0 -47 -32.5 -77.5t-78.5 -30.5q-47 0 -80 31t-33 77zM610 1470q0 45 33.5 76t79.5 31t79.5 -31t33.5 -76q0 -46 -33 -77t-80 -31t-80 31t-33 77z" />
    <glyph glyph-name="exclamdown.sc" horiz-adv-x="540" 
d="M154 1098q0 49 34 80.5t82 31.5q51 0 85 -31.5t34 -80.5t-34 -82t-85 -33q-48 0 -82 33t-34 82zM186 0l17 879h133l16 -879h-166z" />
    <glyph glyph-name="questiondown.sc" horiz-adv-x="872" 
d="M102 -59q0 117 72.5 206t177.5 123q61 21 91 46t30 75l2 109h164v-109q0 -118 -61 -181t-175 -99q-44 -11 -77 -48q-58 -54 -58 -122q0 -79 58 -128t135 -49q74 0 126 57t52 150h166q0 -166 -100 -268t-244 -102q-148 0 -253.5 94t-105.5 246zM438 719q0 49 33 80.5
t84 31.5t85 -31.5t34 -80.5t-34 -82t-85 -33t-84 32.5t-33 82.5z" />
    <glyph glyph-name="Agrave.sc" horiz-adv-x="1167" 
d="M39 0l455 1196h180l454 -1196h-182l-115 301h-493q-23 -56 -64.5 -167t-50.5 -134h-184zM303 1610h203l176 -275h-164zM395 457h377q-31 85 -94 249.5t-94 249.5z" />
    <glyph glyph-name="Aacute.sc" horiz-adv-x="1167" 
d="M39 0l455 1196h180l454 -1196h-182l-115 301h-493q-23 -56 -64.5 -167t-50.5 -134h-184zM395 457h377q-31 85 -94 249.5t-94 249.5zM492 1323l174 274h202l-213 -274h-163z" />
    <glyph glyph-name="Acircumflex.sc" horiz-adv-x="1167" 
d="M39 0l455 1196h180l454 -1196h-182l-115 301h-493q-23 -56 -64.5 -167t-50.5 -134h-184zM303 1335l199 275h164l200 -275h-157l-127 148l-125 -148h-154zM395 457h377q-31 85 -94 249.5t-94 249.5z" />
    <glyph glyph-name="Atilde.sc" horiz-adv-x="1167" 
d="M39 0l455 1196h180l454 -1196h-182l-115 301h-493q-23 -56 -64.5 -167t-50.5 -134h-184zM348 1356q7 110 52 160.5t106 50.5q41 0 92 -37l-2 2q2 -1 6 -5t6 -5q37 -25 51 -25q15 0 27.5 17t13.5 53h117q-5 -110 -52 -159.5t-106 -49.5q-49 0 -102 45l-20 12
q-23 15 -31 15q-14 0 -27 -18.5t-14 -55.5h-117zM395 457h377q-31 85 -94 249.5t-94 249.5z" />
    <glyph glyph-name="Adieresis.sc" horiz-adv-x="1167" 
d="M39 0l455 1196h180l454 -1196h-182l-115 301h-493q-23 -56 -64.5 -167t-50.5 -134h-184zM326 1470q0 45 33 76t79 31t78.5 -31t32.5 -76q0 -47 -32.5 -77.5t-78.5 -30.5q-47 0 -79.5 30.5t-32.5 77.5zM395 457h377q-31 85 -94 249.5t-94 249.5zM616 1470q0 45 32.5 76
t78.5 31q48 0 81.5 -31t33.5 -76q0 -47 -33.5 -77.5t-81.5 -30.5q-46 0 -78.5 30.5t-32.5 77.5z" />
    <glyph glyph-name="Aring.sc" horiz-adv-x="1167" 
d="M39 0l455 1196h180l454 -1196h-182l-115 301h-493q-23 -56 -64.5 -167t-50.5 -134h-184zM395 457h377q-31 85 -94 249.5t-94 249.5zM395 1497q0 79 54 132.5t131 53.5q82 0 136 -53t54 -133q0 -78 -54.5 -131t-135.5 -53q-77 0 -131 53t-54 131zM500 1497q0 -34 24 -58
t56 -24q37 0 62.5 24t25.5 58t-26 59t-62 25q-32 0 -56 -25t-24 -59z" />
    <glyph glyph-name="AE.sc" horiz-adv-x="1667" 
d="M23 0l757 1196h758v-170h-539v-354h469v-170h-469v-332h557v-170h-729v297h-409l-191 -297h-204zM520 463h307v481z" />
    <glyph glyph-name="Ccedilla.sc" horiz-adv-x="1230" 
d="M104 596q0 125 47.5 238.5t129 195.5t194.5 130t238 48q134 0 250.5 -53.5t201.5 -150.5l-127 -109q-137 147 -325 147q-184 0 -310.5 -129.5t-126.5 -316.5t126.5 -316.5t310.5 -129.5q96 0 180.5 41t146.5 112l129 -108q-166 -193 -417 -211l45 -82q14 -35 14 -74
q0 -52 -30.5 -96.5t-82.5 -69.5q-27 -12 -69 -12q-50 0 -93.5 30.5t-66.5 81.5q-18 49 -18 95l122 -9q1 -29 5 -41q10 -23 33 -33.5t46 -2.5q23 10 31 34t0 50l-49 131q-229 26 -382 199.5t-153 410.5z" />
    <glyph glyph-name="Egrave.sc" horiz-adv-x="1021" 
d="M182 0v1196h713v-160h-541v-366h473v-162h-473v-346h557v-162h-729zM268 1610h205l174 -275h-164z" />
    <glyph glyph-name="Eacute.sc" horiz-adv-x="1021" 
d="M182 0v1196h713v-160h-541v-366h473v-162h-473v-346h557v-162h-729zM383 1335l174 275h205l-215 -275h-164z" />
    <glyph glyph-name="Ecircumflex.sc" horiz-adv-x="1021" 
d="M182 0v1196h713v-160h-541v-366h473v-162h-473v-346h557v-162h-729zM229 1335l201 275h164l199 -275h-154l-127 148l-127 -148h-156z" />
    <glyph glyph-name="Edieresis.sc" horiz-adv-x="1021" 
d="M182 0v1196h713v-160h-541v-366h473v-162h-473v-346h557v-162h-729zM260 1470q0 45 33.5 76t81.5 31q45 0 77.5 -31t32.5 -76q0 -46 -32.5 -77t-77.5 -31q-48 0 -81.5 30.5t-33.5 77.5zM551 1470q0 45 33.5 76t79.5 31t79 -31t33 -76q0 -47 -32.5 -77.5t-79.5 -30.5
t-80 31t-33 77z" />
    <glyph glyph-name="Igrave.sc" horiz-adv-x="534" 
d="M-18 1610h204l172 -275h-163zM182 0v1196h170v-1196h-170z" />
    <glyph glyph-name="Iacute.sc" horiz-adv-x="534" 
d="M174 1335l176 275h203l-215 -275h-164zM182 0v1196h170v-1196h-170z" />
    <glyph glyph-name="Icircumflex.sc" horiz-adv-x="536" 
d="M-14 1335l200 275h164l201 -275h-156l-129 148l-125 -148h-155zM182 0v1196h172v-1196h-172z" />
    <glyph glyph-name="Idieresis.sc" horiz-adv-x="534" 
d="M10 1470q0 45 33.5 76t79.5 31t79.5 -31t33.5 -76q0 -46 -33 -77t-80 -31t-80 31t-33 77zM182 0v1196h170v-1196h-170zM301 1470q0 45 32.5 76t78.5 31q48 0 81 -31t33 -76q0 -47 -33 -77.5t-81 -30.5q-46 0 -78.5 30.5t-32.5 77.5z" />
    <glyph glyph-name="Eth.sc" horiz-adv-x="1290" 
d="M31 537v122h159v537h457q167 0 289 -79.5t183 -214t61 -306.5t-61 -305.5t-183 -212t-289 -78.5h-457v537h-159zM362 170h285q174 0 268.5 118t94.5 308q0 191 -94.5 310.5t-268.5 119.5h-285v-367h283v-122h-283v-367z" />
    <glyph glyph-name="Ntilde.sc" horiz-adv-x="1230" 
d="M182 0v1196h168l527 -866v866h172v-1196h-164l-531 877v-877h-172zM381 1356q7 111 51.5 161t106.5 50q15 0 30.5 -4.5t21.5 -7t23.5 -13.5t18.5 -12l8 -6q36 -27 49 -27q16 0 28.5 17t12.5 53h119q-3 -58 -19 -100.5t-40 -65t-49 -33t-52 -10.5q-47 0 -100 45l-21 12
q-23 15 -30 15q-15 0 -28 -18.5t-13 -55.5h-117z" />
    <glyph glyph-name="Ograve.sc" horiz-adv-x="1421" 
d="M104 596q0 168 79.5 308.5t218.5 222t307 81.5t308 -81.5t220 -222t80 -308.5t-80 -309t-220 -223t-308 -82q-126 0 -238.5 48.5t-192.5 130.5t-127 195.5t-47 239.5zM276 596q0 -187 125.5 -316.5t307.5 -129.5q183 0 308.5 130t125.5 316t-125.5 316t-308.5 130
q-182 0 -307.5 -129.5t-125.5 -316.5zM436 1610h201l176 -275h-164z" />
    <glyph glyph-name="Oacute.sc" horiz-adv-x="1421" 
d="M104 596q0 168 79.5 308.5t218.5 222t307 81.5t308 -81.5t220 -222t80 -308.5t-80 -309t-220 -223t-308 -82q-126 0 -238.5 48.5t-192.5 130.5t-127 195.5t-47 239.5zM276 596q0 -187 125.5 -316.5t307.5 -129.5q183 0 308.5 130t125.5 316t-125.5 316t-308.5 130
q-182 0 -307.5 -129.5t-125.5 -316.5zM588 1335l174 275h203l-213 -275h-164z" />
    <glyph glyph-name="Ocircumflex.sc" horiz-adv-x="1421" 
d="M104 596q0 168 79.5 308.5t218.5 222t307 81.5t308 -81.5t220 -222t80 -308.5t-80 -309t-220 -223t-308 -82q-126 0 -238.5 48.5t-192.5 130.5t-127 195.5t-47 239.5zM276 596q0 -187 125.5 -316.5t307.5 -129.5q183 0 308.5 130t125.5 316t-125.5 316t-308.5 130
q-182 0 -307.5 -129.5t-125.5 -316.5zM428 1335l199 275h164l198 -275h-153l-127 148l-125 -148h-156z" />
    <glyph glyph-name="Otilde.sc" horiz-adv-x="1421" 
d="M104 596q0 168 79.5 308.5t218.5 222t307 81.5t308 -81.5t220 -222t80 -308.5t-80 -309t-220 -223t-308 -82q-126 0 -238.5 48.5t-192.5 130.5t-127 195.5t-47 239.5zM276 596q0 -187 125.5 -316.5t307.5 -129.5q183 0 308.5 130t125.5 316t-125.5 316t-308.5 130
q-182 0 -307.5 -129.5t-125.5 -316.5zM475 1356q7 110 52 160.5t106 50.5q13 0 24 -2t22 -6.5t17 -8t17.5 -11t15.5 -9.5l8 -6q36 -27 47 -27q16 0 29 17t14 53h117q-3 -58 -18 -100.5t-39 -65t-49.5 -33t-53.5 -10.5q-45 0 -98 45l-22 12q-23 15 -31 15q-14 0 -26 -18
t-13 -56h-119z" />
    <glyph glyph-name="Odieresis.sc" horiz-adv-x="1421" 
d="M104 596q0 168 79.5 308.5t218.5 222t307 81.5t308 -81.5t220 -222t80 -308.5t-80 -309t-220 -223t-308 -82q-126 0 -238.5 48.5t-192.5 130.5t-127 195.5t-47 239.5zM276 596q0 -187 125.5 -316.5t307.5 -129.5q183 0 308.5 130t125.5 316t-125.5 316t-308.5 130
q-182 0 -307.5 -129.5t-125.5 -316.5zM451 1470q0 45 33 76t81 31q45 0 77 -31t32 -76q0 -46 -32 -77t-77 -31q-48 0 -81 30.5t-33 77.5zM743 1470q0 46 32 76.5t79 30.5t80 -30.5t33 -76.5q0 -47 -32.5 -77.5t-80.5 -30.5t-79.5 30.5t-31.5 77.5z" />
    <glyph glyph-name="Oslash.sc" horiz-adv-x="1417" 
d="M102 596q0 168 79.5 308.5t218.5 222t307 81.5q216 0 383 -135l139 137l88 -86l-137 -139q135 -175 135 -389q0 -168 -80 -309t-220 -223t-308 -82q-211 0 -375 129l-137 -142l-89 90l138 142q-142 176 -142 395zM274 596q0 -155 86 -274l613 628q-116 92 -266 92
q-182 0 -307.5 -129.5t-125.5 -316.5zM449 233q113 -83 258 -83q183 0 308.5 130t125.5 316q0 142 -82 266z" />
    <glyph glyph-name="Ugrave.sc" horiz-adv-x="1218" 
d="M170 412v784h174v-784q0 -115 77.5 -188.5t186.5 -73.5q111 0 190 73.5t79 188.5v784h172v-784q0 -127 -60.5 -226t-160.5 -151.5t-220 -52.5q-182 0 -310 120t-128 310zM350 1610h205l174 -275h-164z" />
    <glyph glyph-name="Uacute.sc" horiz-adv-x="1218" 
d="M170 412v784h174v-784q0 -115 77.5 -188.5t186.5 -73.5q111 0 190 73.5t79 188.5v784h172v-784q0 -127 -60.5 -226t-160.5 -151.5t-220 -52.5q-182 0 -310 120t-128 310zM473 1335l176 275h203l-215 -275h-164z" />
    <glyph glyph-name="Ucircumflex.sc" horiz-adv-x="1218" 
d="M170 412v784h174v-784q0 -115 77.5 -188.5t186.5 -73.5q111 0 190 73.5t79 188.5v784h172v-784q0 -127 -60.5 -226t-160.5 -151.5t-220 -52.5q-182 0 -310 120t-128 310zM328 1335l198 275h164l199 -275h-156l-125 148l-125 -148h-155z" />
    <glyph glyph-name="Udieresis.sc" horiz-adv-x="1218" 
d="M170 412v784h174v-784q0 -115 77.5 -188.5t186.5 -73.5q111 0 190 73.5t79 188.5v784h172v-784q0 -127 -60.5 -226t-160.5 -151.5t-220 -52.5q-182 0 -310 120t-128 310zM350 1470q0 45 33.5 76t79.5 31t78 -31t32 -76q0 -47 -32 -77.5t-78 -30.5q-47 0 -80 31t-33 77z
M641 1470q0 45 33.5 76t79.5 31q47 0 79.5 -30.5t32.5 -76.5q0 -47 -32 -77.5t-80 -30.5q-47 0 -80 31t-33 77z" />
    <glyph glyph-name="Yacute.sc" horiz-adv-x="1153" 
d="M33 1196h203l337 -477l342 477h209l-460 -647v-549h-177v549zM459 1335l174 275h205l-215 -275h-164z" />
    <glyph glyph-name="Thorn.sc" horiz-adv-x="1034" 
d="M182 0v1196h172v-211h234q159 0 264.5 -102t105.5 -269t-106 -271.5t-264 -104.5h-234v-238h-172zM354 403h234q84 0 141 59t57 152t-60.5 147.5t-152.5 59.5q-37 0 -109.5 1t-109.5 1v-420z" />
    <glyph glyph-name="Amacron.sc" horiz-adv-x="1167" 
d="M39 0l455 1196h180l454 -1196h-182l-115 301h-493q-23 -56 -64.5 -167t-50.5 -134h-184zM360 1378v150h445v-150h-445zM395 457h377q-31 85 -94 249.5t-94 249.5z" />
    <glyph glyph-name="Abreve.sc" horiz-adv-x="1167" 
d="M39 0l455 1196h180l454 -1196h-182l-115 301h-493q-23 -56 -64.5 -167t-50.5 -134h-184zM354 1567h140q0 -44 24 -72.5t64 -28.5q41 0 65.5 31t24.5 70h141q0 -107 -63 -169.5t-168 -62.5q-114 0 -171 67t-57 165zM395 457h377q-31 85 -94 249.5t-94 249.5z" />
    <glyph glyph-name="Cacute.sc" horiz-adv-x="1228" 
d="M104 596q0 125 47.5 238.5t129 195.5t194.5 130t238 48q134 0 250.5 -53.5t201.5 -150.5l-127 -109q-137 147 -325 147q-184 0 -310.5 -129.5t-126.5 -316.5t126.5 -316.5t310.5 -129.5q96 0 180.5 41t146.5 112l129 -108q-84 -99 -202.5 -156t-253.5 -57
q-125 0 -238 48.5t-194.5 130.5t-129 196t-47.5 239zM580 1335l176 275h202l-215 -275h-163z" />
    <glyph glyph-name="Ccircumflex.sc" horiz-adv-x="1228" 
d="M104 596q0 125 47.5 238.5t129 195.5t194.5 130t238 48q134 0 250.5 -53.5t201.5 -150.5l-127 -109q-137 147 -325 147q-184 0 -310.5 -129.5t-126.5 -316.5t126.5 -316.5t310.5 -129.5q96 0 180.5 41t146.5 112l129 -108q-84 -99 -202.5 -156t-253.5 -57
q-125 0 -238 48.5t-194.5 130.5t-129 196t-47.5 239zM428 1335l199 275h164l200 -275h-155l-127 148l-127 -148h-154z" />
    <glyph glyph-name="Cdotaccent.sc" horiz-adv-x="1228" 
d="M104 596q0 125 47.5 238.5t129 195.5t194.5 130t238 48q134 0 250.5 -53.5t201.5 -150.5l-127 -109q-137 147 -325 147q-184 0 -310.5 -129.5t-126.5 -316.5t126.5 -316.5t310.5 -129.5q96 0 180.5 41t146.5 112l129 -108q-84 -99 -202.5 -156t-253.5 -57
q-125 0 -238 48.5t-194.5 130.5t-129 196t-47.5 239zM569 1487q0 45 33.5 75.5t79.5 30.5q48 0 81.5 -30.5t33.5 -75.5q0 -47 -33.5 -78t-81.5 -31q-47 0 -80 31t-33 78z" />
    <glyph glyph-name="Ccaron.sc" horiz-adv-x="1228" 
d="M104 596q0 125 47.5 238.5t129 195.5t194.5 130t238 48q134 0 250.5 -53.5t201.5 -150.5l-127 -109q-137 147 -325 147q-184 0 -310.5 -129.5t-126.5 -316.5t126.5 -316.5t310.5 -129.5q96 0 180.5 41t146.5 112l129 -108q-84 -99 -202.5 -156t-253.5 -57
q-125 0 -238 48.5t-194.5 130.5t-129 196t-47.5 239zM406 1610h153l125 -146l127 146h156l-201 -275h-164z" />
    <glyph glyph-name="Dcaron.sc" horiz-adv-x="1282" 
d="M182 0v1196h457q125 0 226.5 -46t168 -126.5t102 -190t35.5 -237.5t-35.5 -236.5t-102 -189t-167.5 -125.5t-227 -45h-457zM354 170h285q174 0 268 118t94 308q0 191 -94 310.5t-268 119.5h-285v-856zM383 1610h156l125 -146l127 146h153l-196 -275h-164z" />
    <glyph glyph-name="Aogonek.sc" horiz-adv-x="1167" 
d="M39 0l455 1196h180l454 -1196h-79l-52 -145q-9 -26 -0.5 -50t31.5 -34q22 -8 44 2t32 34q3 5 4.5 15.5t1.5 17.5v8l121 9q0 -46 -17 -95q-23 -52 -66.5 -82t-94.5 -30q-44 0 -68 12q-53 25 -83 69.5t-30 96.5q0 36 15 74l55 106l-113 293h-491q-23 -56 -64.5 -167
t-50.5 -134h-184zM397 457h375q-34 95 -99 264.5t-89 234.5z" />
    <glyph glyph-name="Emacron.sc" horiz-adv-x="1021" 
d="M182 0v1196h713v-160h-541v-366h473v-162h-473v-346h557v-162h-729zM322 1378v150h444v-150h-444z" />
    <glyph glyph-name="Ebreve.sc" horiz-adv-x="1021" 
d="M182 0v1196h713v-160h-541v-366h473v-162h-473v-346h557v-162h-729zM281 1567h139q0 -44 25 -72.5t67 -28.5q39 0 63.5 31t24.5 70h141q0 -107 -62 -169.5t-167 -62.5q-114 0 -172.5 67t-58.5 165z" />
    <glyph glyph-name="Edotaccent.sc" horiz-adv-x="1021" 
d="M182 0v1196h713v-160h-541v-366h473v-162h-473v-346h557v-162h-729zM436 1487q0 45 33.5 75.5t79.5 30.5q50 0 83.5 -30t33.5 -76q0 -47 -33.5 -78t-83.5 -31q-47 0 -80 31t-33 78z" />
    <glyph glyph-name="Ecaron.sc" horiz-adv-x="1021" 
d="M182 0v1196h713v-160h-541v-366h473v-162h-473v-346h557v-162h-729zM229 1610h156l127 -146l127 146h154l-199 -275h-164z" />
    <glyph glyph-name="Gcircumflex.sc" horiz-adv-x="1349" 
d="M104 596q0 168 79.5 308.5t218.5 222t307 81.5q117 0 222 -42t185 -119l-123 -115q-118 112 -284 112q-182 0 -307.5 -130.5t-125.5 -317.5t125.5 -318t307.5 -131q157 0 260 83.5t110 224.5h-336v151h531q0 -310 -150.5 -467t-414.5 -157q-126 0 -238.5 48.5
t-192.5 130.5t-127 195.5t-47 239.5zM401 1335l199 275h162l201 -275h-156l-127 148l-123 -148h-156z" />
    <glyph glyph-name="Gbreve.sc" horiz-adv-x="1349" 
d="M104 596q0 168 79.5 308.5t218.5 222t307 81.5q117 0 222 -42t185 -119l-123 -115q-118 112 -284 112q-182 0 -307.5 -130.5t-125.5 -317.5t125.5 -318t307.5 -131q157 0 260 83.5t110 224.5h-336v151h531q0 -310 -150.5 -467t-414.5 -157q-126 0 -238.5 48.5
t-192.5 130.5t-127 195.5t-47 239.5zM451 1567h141q0 -44 24 -72.5t64 -28.5t64 30.5t24 70.5h145q0 -107 -63.5 -169.5t-169.5 -62.5q-114 0 -171.5 67t-57.5 165z" />
    <glyph glyph-name="Eogonek.sc" horiz-adv-x="1021" 
d="M182 0v1196h715v-160h-543v-366h473v-162h-473v-346h557l-4 -160l-6 -2l-43 -127q-11 -23 -1.5 -48.5t32.5 -35.5q22 -8 45 3t33 34q3 6 4 17t1 19l-1 7l123 6q0 -43 -19 -94q-22 -51 -65.5 -82t-94.5 -31q-35 0 -69 15q-52 23 -81.5 66.5t-29.5 96.5q0 37 13 74l43 80
h-609z" />
    <glyph glyph-name="Dcroat.sc" horiz-adv-x="1292" 
d="M33 532v136h160v528h456q167 0 289 -79.5t183 -214t61 -306.5t-61 -305.5t-183 -212t-289 -78.5h-456v532h-160zM365 170h284q174 0 268.5 118t94.5 308q0 191 -94.5 310.5t-268.5 119.5h-284v-358h282v-136h-282v-362z" />
    <glyph glyph-name="Gdotaccent.sc" horiz-adv-x="1349" 
d="M104 596q0 168 79.5 308.5t218.5 222t307 81.5q117 0 222 -42t185 -119l-123 -115q-118 112 -284 112q-182 0 -307.5 -130.5t-125.5 -317.5t125.5 -318t307.5 -131q157 0 260 83.5t110 224.5h-336v151h531q0 -310 -150.5 -467t-414.5 -157q-126 0 -238.5 48.5
t-192.5 130.5t-127 195.5t-47 239.5zM545 1487q0 45 33 75.5t79 30.5q48 0 81.5 -30.5t33.5 -75.5q0 -47 -33.5 -78t-81.5 -31q-46 0 -79 31t-33 78z" />
    <glyph glyph-name="Hcircumflex.sc" horiz-adv-x="1269" 
d="M182 0v1196h172v-522h559v522h174v-1196h-174v516h-559v-516h-172zM354 1335l199 275h164l198 -275h-155l-127 148l-125 -148h-154z" />
    <glyph glyph-name="Hbar.sc" horiz-adv-x="1286" 
d="M74 874v107h116v215h172v-215h560v215h172v-215h120v-107h-120v-874h-172v512h-560v-512h-172v874h-116zM362 676h560v198h-560v-198z" />
    <glyph glyph-name="Itilde.sc" horiz-adv-x="536" 
d="M35 1356q7 110 52 160.5t106 50.5q16 0 31 -4t22 -7.5t22.5 -13.5t18.5 -12l8 -6q36 -27 49 -27q16 0 29 17t14 53h117q-3 -58 -18.5 -100.5t-39.5 -65t-49 -33t-53 -10.5q-47 0 -100 45l-21 12q-22 15 -30 15q-14 0 -27 -18.5t-14 -55.5h-117zM182 0v1196h172v-1196
h-172z" />
    <glyph glyph-name="Imacron.sc" horiz-adv-x="536" 
d="M47 1378v150h445v-150h-445zM182 0v1196h172v-1196h-172z" />
    <glyph glyph-name="Iogonek.sc" horiz-adv-x="536" 
d="M109 -172q0 39 14 74l59 108v1186h172v-1196h-69l-49 -145q-9 -26 -1.5 -50t29.5 -34q24 -8 46 2t32 34q3 5 4.5 15.5t1.5 17.5v8l121 9q0 -46 -18 -95q-23 -51 -66 -81.5t-94 -30.5q-44 0 -68 12q-53 25 -83.5 69.5t-30.5 96.5z" />
    <glyph glyph-name="IJ.sc" horiz-adv-x="1073" 
d="M182 0v1196h172v-1196h-172zM385 -412l16 166q19 -7 62 -11.5t59 -4.5q102 0 149.5 61.5t47.5 159.5v1237h172v-1237q0 -82 -20.5 -150.5t-63 -123t-115.5 -85t-170 -30.5q-45 0 -137 18z" />
    <glyph glyph-name="Jcircumflex.sc" horiz-adv-x="536" 
d="M-152 -412l17 166q19 -7 62 -11.5t59 -4.5q102 0 149 61.5t47 159.5v1237h172v-1237q0 -82 -20.5 -150.5t-62.5 -123t-115 -85t-170 -30.5q-46 0 -138 18zM-27 1335l201 275h164l197 -275h-154l-127 148l-125 -148h-156z" />
    <glyph glyph-name="Lacute.sc" horiz-adv-x="880" 
d="M182 0v1196h172v-1034h484v-162h-656zM186 1315l174 276h203l-213 -276h-164z" />
    <glyph glyph-name="Lcaron.sc" horiz-adv-x="882" 
d="M182 0v1196h172v-1034h484v-162h-656zM471 895q40 59 59 111t19 118q0 16 -4 62h168q0 -219 -129 -320z" />
    <glyph glyph-name="Ldot.sc" horiz-adv-x="880" 
d="M182 0v1196h172v-1034h484v-162h-656zM489 455q0 42 31.5 72t73.5 30q44 0 76 -29.5t32 -72.5q0 -42 -31.5 -71.5t-76.5 -29.5q-42 0 -73.5 29.5t-31.5 71.5z" />
    <glyph glyph-name="Nacute.sc" horiz-adv-x="1230" 
d="M182 0v1196h168l527 -866v866h172v-1196h-164l-531 877v-877h-172zM477 1335l174 275h205l-215 -275h-164z" />
    <glyph glyph-name="Ncaron.sc" horiz-adv-x="1230" 
d="M182 0v1196h168l527 -866v866h172v-1196h-164l-531 877v-877h-172zM332 1610h155l125 -146l127 146h154l-197 -275h-164z" />
    <glyph glyph-name="Omacron.sc" horiz-adv-x="1421" 
d="M104 596q0 168 79.5 308.5t218.5 222t307 81.5t308 -81.5t220 -222t80 -308.5t-80 -309t-220 -223t-308 -82q-126 0 -238.5 48.5t-192.5 130.5t-127 195.5t-47 239.5zM276 596q0 -187 125.5 -316.5t307.5 -129.5q183 0 308.5 130t125.5 316t-125.5 316t-308.5 130
q-182 0 -307.5 -129.5t-125.5 -316.5zM487 1378v150h445v-150h-445z" />
    <glyph glyph-name="Obreve.sc" horiz-adv-x="1421" 
d="M104 596q0 168 79.5 308.5t218.5 222t307 81.5t308 -81.5t220 -222t80 -308.5t-80 -309t-220 -223t-308 -82q-126 0 -238.5 48.5t-192.5 130.5t-127 195.5t-47 239.5zM276 596q0 -187 125.5 -316.5t307.5 -129.5q183 0 308.5 130t125.5 316t-125.5 316t-308.5 130
q-182 0 -307.5 -129.5t-125.5 -316.5zM479 1567h137q0 -44 25.5 -72.5t67.5 -28.5q40 0 64 30.5t24 70.5h141q0 -107 -62 -169.5t-167 -62.5q-114 0 -172 67t-58 165z" />
    <glyph glyph-name="Ohungarumlaut.sc" horiz-adv-x="1421" 
d="M104 596q0 168 79.5 308.5t218.5 222t307 81.5t308 -81.5t220 -222t80 -308.5t-80 -309t-220 -223t-308 -82q-126 0 -238.5 48.5t-192.5 130.5t-127 195.5t-47 239.5zM276 596q0 -187 125.5 -316.5t307.5 -129.5q183 0 308.5 130t125.5 316t-125.5 316t-308.5 130
q-182 0 -307.5 -129.5t-125.5 -316.5zM498 1335l143 275h176l-162 -275h-157zM725 1335l162 275h176l-184 -275h-154z" />
    <glyph glyph-name="Racute.sc" horiz-adv-x="1118" 
d="M182 0v1196h461q91 0 161.5 -32t112.5 -86.5t63 -120t21 -138.5q0 -69 -17.5 -130t-52.5 -112.5t-95.5 -85t-139.5 -40.5l318 -451h-209l-305 442h-144v-442h-174zM356 604h275q98 0 145 62.5t47 152.5q0 89 -45.5 153t-138.5 64h-283v-432zM367 1335l176 275h200
l-213 -275h-163z" />
    <glyph glyph-name="Rcaron.sc" horiz-adv-x="1118" 
d="M182 0v1196h461q91 0 161.5 -32t112.5 -86.5t63 -120t21 -138.5q0 -69 -17.5 -130t-52.5 -112.5t-95.5 -85t-139.5 -40.5l318 -451h-209l-305 442h-144v-442h-174zM274 1610h156l127 -146l127 146h154l-199 -275h-164zM356 604h275q98 0 145 62.5t47 152.5
q0 89 -45.5 153t-138.5 64h-283v-432z" />
    <glyph glyph-name="Sacute.sc" horiz-adv-x="1034" 
d="M109 354h174q0 -85 69.5 -148t175.5 -63q105 0 164.5 49t69.5 119q6 44 -9 80.5t-46.5 61t-66.5 40.5t-75 25l-153 39q-291 70 -291 315q0 97 54.5 175t143 119.5t191.5 41.5q168 0 277.5 -97.5t109.5 -258.5h-172q0 87 -61 139.5t-156 52.5q-88 0 -151.5 -48t-63.5 -124
q0 -116 164 -157l153 -39q168 -43 252.5 -141t69.5 -238q-21 -133 -130 -224t-274 -91q-180 0 -299.5 111.5t-119.5 260.5zM375 1335l174 275h205l-215 -275h-164z" />
    <glyph glyph-name="Scircumflex.sc" horiz-adv-x="1034" 
d="M109 354h174q0 -85 69.5 -148t175.5 -63q105 0 164.5 49t69.5 119q6 44 -9 80.5t-46.5 61t-66.5 40.5t-75 25l-153 39q-291 70 -291 315q0 97 54.5 175t143 119.5t191.5 41.5q168 0 277.5 -97.5t109.5 -258.5h-172q0 87 -61 139.5t-156 52.5q-88 0 -151.5 -48t-63.5 -124
q0 -116 164 -157l153 -39q168 -43 252.5 -141t69.5 -238q-21 -133 -130 -224t-274 -91q-180 0 -299.5 111.5t-119.5 260.5zM221 1335l201 275h164l198 -275h-155l-125 148l-127 -148h-156z" />
    <glyph glyph-name="Scedilla.sc" horiz-adv-x="1036" 
d="M109 354h174q0 -82 70 -146.5t175 -64.5t164.5 49t69.5 119q6 44 -9 80.5t-46.5 61t-66.5 40.5t-75 25l-153 39q-291 70 -291 315q0 97 54.5 175t143 119.5t191.5 41.5q168 0 277.5 -97.5t109.5 -258.5h-172q0 87 -61 139.5t-156 52.5q-88 0 -151.5 -48t-63.5 -124
q0 -116 164 -157l153 -39q168 -43 252.5 -141t69.5 -238q-18 -109 -95.5 -192.5t-197.5 -108.5l47 -94q14 -35 14 -74q0 -53 -30 -97t-82 -69q-27 -12 -70 -12q-50 0 -93.5 30.5t-66.5 81.5q-16 54 -16 95l123 -9q-2 -29 4 -41q10 -23 32.5 -33.5t45.5 -2.5q23 10 31.5 34.5
t-0.5 49.5l-54 127q-89 1 -167.5 32t-132 82.5t-84.5 118.5t-31 139z" />
    <glyph glyph-name="Utilde.sc" horiz-adv-x="1218" 
d="M170 412v784h174v-784q0 -115 77.5 -188.5t186.5 -73.5q111 0 190 73.5t79 188.5v784h172v-784q0 -127 -60.5 -226t-160.5 -151.5t-220 -52.5q-182 0 -310 120t-128 310zM375 1356q7 111 52 161t105 50q22 0 42.5 -7t29.5 -13t27 -19l8 -8q3 -2 11.5 -7.5t12.5 -8
t10.5 -5t12.5 -2.5q15 0 28.5 17t14.5 53h115q-5 -110 -52 -159.5t-106 -49.5q-49 0 -102 45q-7 0 -13 6q-29 21 -39 21q-13 0 -26 -18.5t-14 -55.5h-117z" />
    <glyph glyph-name="Umacron.sc" horiz-adv-x="1218" 
d="M170 412v784h174v-784q0 -115 77.5 -188.5t186.5 -73.5q111 0 190 73.5t79 188.5v784h172v-784q0 -127 -60.5 -226t-160.5 -151.5t-220 -52.5q-182 0 -310 120t-128 310zM387 1378v150h444v-150h-444z" />
    <glyph glyph-name="Ubreve.sc" horiz-adv-x="1218" 
d="M170 412v784h174v-784q0 -115 77.5 -188.5t186.5 -73.5q111 0 190 73.5t79 188.5v784h172v-784q0 -127 -60.5 -226t-160.5 -151.5t-220 -52.5q-182 0 -310 120t-128 310zM379 1567h139q0 -44 24.5 -72.5t65.5 -28.5q39 0 63.5 31t24.5 70h144q0 -107 -63.5 -169.5
t-168.5 -62.5q-115 0 -172 67t-57 165z" />
    <glyph glyph-name="Uring.sc" horiz-adv-x="1218" 
d="M170 412v784h174v-784q0 -115 77.5 -188.5t186.5 -73.5q111 0 190 73.5t79 188.5v784h172v-784q0 -127 -60.5 -226t-160.5 -151.5t-220 -52.5q-182 0 -310 120t-128 310zM420 1497q0 79 54 132.5t132 53.5q82 0 136.5 -53t54.5 -133q0 -78 -54.5 -131t-136.5 -53
q-78 0 -132 53t-54 131zM524 1497q0 -33 24.5 -57.5t57.5 -24.5q35 0 61.5 24t26.5 58t-26.5 59t-61.5 25q-32 0 -57 -25t-25 -59z" />
    <glyph glyph-name="Uhungarumlaut.sc" horiz-adv-x="1218" 
d="M170 412v784h174v-784q0 -115 77.5 -188.5t186.5 -73.5q111 0 190 73.5t79 188.5v784h172v-784q0 -127 -60.5 -226t-160.5 -151.5t-220 -52.5q-182 0 -310 120t-128 310zM377 1335l143 275h174l-162 -275h-155zM602 1335l162 275h176l-182 -275h-156z" />
    <glyph glyph-name="Uogonek.sc" horiz-adv-x="1222" 
d="M172 412v784h174v-784q0 -115 77.5 -188.5t186.5 -73.5q111 0 190 73.5t79 188.5v784h172v-784q0 -174 -107 -289.5t-270 -136.5q-7 -22 -23.5 -65.5t-23.5 -65.5q-9 -26 -1 -50t31 -34q24 -8 45.5 2t30.5 34l2 3q3 4 4 13.5t1 16.5l-1 8l123 9q0 -56 -16 -95
q-25 -52 -68.5 -82t-93.5 -30q-46 0 -70 12q-51 25 -81.5 69.5t-30.5 96.5q0 39 14 74l45 84q-167 15 -278 132.5t-111 293.5z" />
    <glyph glyph-name="Wcircumflex.sc" horiz-adv-x="1607" 
d="M47 1196h184l293 -913q33 113 104 365.5t111 387.5h129l215 -753l293 913h185l-406 -1196h-147l-205 721l-203 -721h-147zM522 1335l199 275h164l200 -275h-155l-127 148l-125 -148h-156z" />
    <glyph glyph-name="Ycircumflex.sc" horiz-adv-x="1153" 
d="M33 1196h203l337 -477l342 477h209l-460 -647v-549h-177v549zM297 1335l199 275h163l201 -275h-158l-127 148l-124 -148h-154z" />
    <glyph glyph-name="Tcaron.sc" horiz-adv-x="987" 
d="M47 1034v162h893v-162h-360v-1034h-174v1034h-359zM211 1610h156l127 -146l124 146h156l-201 -275h-163z" />
    <glyph glyph-name="Tbar.sc" horiz-adv-x="989" 
d="M45 1026v170h899v-170h-364v-309h229v-117h-229v-600h-172v600h-226v117h226v309h-363z" />
    <glyph glyph-name="Zacute.sc" horiz-adv-x="1038" 
d="M92 0v147l619 887h-594v162h817v-147l-625 -885h625v-164h-842zM389 1335l176 275h205l-217 -275h-164z" />
    <glyph glyph-name="Zdotaccent.sc" horiz-adv-x="1038" 
d="M92 0v147l619 887h-594v162h817v-147l-625 -885h625v-164h-842zM397 1487q0 45 34 75.5t81 30.5q50 0 82.5 -30t32.5 -76q0 -47 -32.5 -78t-82.5 -31q-47 0 -81 31.5t-34 77.5z" />
    <glyph glyph-name="Wgrave.sc" horiz-adv-x="1607" 
d="M47 1196h184l293 -913q33 113 104 365.5t111 387.5h129l215 -753l293 913h185l-406 -1196h-147l-205 721l-203 -721h-147zM514 1610h205l176 -275h-164z" />
    <glyph glyph-name="Wacute.sc" horiz-adv-x="1607" 
d="M47 1196h184l293 -913q33 113 104 365.5t111 387.5h129l215 -753l293 913h185l-406 -1196h-147l-205 721l-203 -721h-147zM711 1335l176 275h203l-216 -275h-163z" />
    <glyph glyph-name="Wdieresis.sc" horiz-adv-x="1607" 
d="M47 1196h184l293 -913q33 113 104 365.5t111 387.5h129l215 -753l293 913h185l-406 -1196h-147l-205 721l-203 -721h-147zM545 1470q0 45 33 76t79 31t79.5 -31t33.5 -76q0 -46 -33 -77t-80 -31t-79.5 30.5t-32.5 77.5zM836 1470q0 45 33 76t81 31q46 0 78.5 -31
t32.5 -76q0 -47 -32.5 -77.5t-78.5 -30.5q-48 0 -81 30.5t-33 77.5z" />
    <glyph glyph-name="Aringacute.sc" horiz-adv-x="1167" 
d="M39 0l455 1196h180l454 -1196h-182l-115 301h-493q-23 -56 -64.5 -167t-50.5 -134h-184zM395 457h377q-31 85 -94 249.5t-94 249.5zM395 1497q0 63 35 112t90 64l135 213h205l-178 -229q40 -25 64 -68t24 -92q0 -78 -54.5 -131t-135.5 -53q-77 0 -131 53t-54 131z
M500 1497q0 -34 24 -58t56 -24q37 0 62.5 24t25.5 58t-26 59t-62 25q-32 0 -56 -25t-24 -59z" />
    <glyph glyph-name="AEacute.sc" horiz-adv-x="1667" 
d="M23 0l757 1196h758v-170h-539v-354h469v-170h-469v-332h557v-170h-729v297h-409l-191 -297h-204zM520 463h307v481zM813 1335l176 275h203l-215 -275h-164z" />
    <glyph glyph-name="Oslashacute.sc" horiz-adv-x="1417" 
d="M102 596q0 168 79.5 308.5t218.5 222t307 81.5q216 0 383 -135l139 137l88 -86l-137 -139q135 -175 135 -389q0 -168 -80 -309t-220 -223t-308 -82q-211 0 -375 129l-137 -142l-89 90l138 142q-142 176 -142 395zM274 596q0 -155 86 -274l613 628q-116 92 -266 92
q-182 0 -307.5 -129.5t-125.5 -316.5zM449 233q113 -83 258 -83q183 0 308.5 130t125.5 316q0 142 -82 266zM608 1335l176 275h203l-215 -275h-164z" />
    <glyph glyph-name="Ibreve.sc" horiz-adv-x="536" 
d="M39 1567h137q0 -44 24.5 -72.5t65.5 -28.5t65.5 31t24.5 70h142q0 -107 -63.5 -169.5t-168.5 -62.5q-114 0 -170.5 67t-56.5 165zM182 0v1196h172v-1196h-172z" />
    <glyph glyph-name="Eng.sc" horiz-adv-x="1226" 
d="M182 0v1196h166l522 -866v866h174v-1184q0 -74 -9.5 -134.5t-35 -118t-66.5 -97t-107 -63t-152 -23.5q-63 0 -135 21l14 170l100 -15q63 -3 109 17q108 46 108 196v53l-518 850v-868h-170z" />
    <glyph glyph-name="Ygrave.sc" horiz-adv-x="1153" 
d="M33 1196h203l337 -477l342 477h209l-460 -647v-549h-177v549zM295 1610h203l176 -275h-164z" />
    <glyph glyph-name="Gcommaaccent.sc" horiz-adv-x="1349" 
d="M104 596q0 168 79.5 308.5t218.5 222t307 81.5q117 0 222 -42t185 -119l-123 -115q-118 112 -284 112q-182 0 -307.5 -130.5t-125.5 -317.5t125.5 -318t307.5 -131q157 0 260 83.5t110 224.5h-336v151h531q0 -310 -150.5 -467t-414.5 -157q-126 0 -238.5 48.5
t-192.5 130.5t-127 195.5t-47 239.5zM547 -395q47 66 67.5 117t20.5 120q0 24 -4 74h166q2 -229 -140 -346z" />
    <glyph glyph-name="Kcommaaccent.sc" horiz-adv-x="1054" 
d="M182 0v1196h172v-500l383 500h209l-459 -598l566 -598h-236l-463 496v-496h-172zM434 -395q47 66 67.5 117t20.5 120q0 24 -4 74h166q3 -230 -139 -346z" />
    <glyph glyph-name="Lcommaaccent.sc" horiz-adv-x="880" 
d="M182 0v1196h172v-1034h484v-162h-656zM338 -395q47 66 67.5 117t20.5 120q0 24 -4 74h166q3 -230 -139 -346z" />
    <glyph glyph-name="Ncommaaccent.sc" horiz-adv-x="1230" 
d="M182 0v1196h168l527 -866v866h172v-1196h-164l-531 877v-877h-172zM471 -395q47 66 67.5 117t20.5 120q0 24 -4 74h166q3 -230 -139 -346z" />
    <glyph glyph-name="Rcommaaccent.sc" horiz-adv-x="1118" 
d="M182 0v1196h461q91 0 161.5 -32t112.5 -86.5t63 -120t21 -138.5q0 -69 -17.5 -130t-52.5 -112.5t-95.5 -85t-139.5 -40.5l318 -451h-209l-305 442h-144v-442h-174zM356 604h275q98 0 145 62.5t47 152.5q0 89 -45.5 153t-138.5 64h-283v-432zM426 -395q47 66 67.5 117
t20.5 120q0 24 -4 74h166q3 -230 -139 -346z" />
    <glyph glyph-name="Tcommaaccent.sc" horiz-adv-x="987" 
d="M47 1034v162h893v-162h-360v-1034h-174v1034h-359zM319 -395q47 66 68 117t21 120q0 12 -5 74h166q3 -230 -139 -346z" />
    <glyph glyph-name="Scommaaccent.sc" horiz-adv-x="1034" 
d="M109 354h174q0 -85 69.5 -148t175.5 -63q105 0 164.5 49t69.5 119q6 44 -9 80.5t-46.5 61t-66.5 40.5t-75 25l-153 39q-291 70 -291 315q0 97 54.5 175t143 119.5t191.5 41.5q168 0 277.5 -97.5t109.5 -258.5h-172q0 87 -61 139.5t-156 52.5q-88 0 -151.5 -48t-63.5 -124
q0 -116 164 -157l153 -39q168 -43 252.5 -141t69.5 -238q-21 -133 -130 -224t-274 -91q-180 0 -299.5 111.5t-119.5 260.5zM371 -395q47 66 67.5 117t20.5 120q0 24 -4 74h166q2 -229 -140 -346z" />
    <glyph glyph-name="Idotaccent.sc" horiz-adv-x="536" 
d="M154 1487q0 45 33.5 75.5t80.5 30.5q50 0 82.5 -30t32.5 -76q0 -47 -32.5 -78t-82.5 -31q-47 0 -80.5 31.5t-33.5 77.5zM182 0v1196h172v-1196h-172z" />
    <glyph glyph-name="zero.numr" horiz-adv-x="745" 
d="M80 932q0 73 8 132.5t28.5 113.5t53 90.5t84 58t119.5 21.5t119.5 -21.5t84 -58t53 -90.5t28.5 -113.5t8 -132.5q0 -71 -8 -129.5t-28.5 -112t-52.5 -89.5t-84 -57.5t-120 -21.5t-120 21.5t-84 57.5t-52.5 89.5t-28.5 112t-8 129.5zM201 932q0 -65 7.5 -114t26 -91
t53.5 -64t85 -22t85 22t53.5 64t26 91t7.5 114t-7.5 115t-26 92.5t-53.5 65t-85 22.5t-85 -22.5t-53.5 -65t-26 -92.5t-7.5 -115z" />
    <glyph glyph-name="one.numr" horiz-adv-x="428" 
d="M53 1085v117l262 144v-814h-122v625z" />
    <glyph glyph-name="two.numr" horiz-adv-x="653" 
d="M63 1126q15 100 87 161t167 61q107 0 180.5 -68t73.5 -174q0 -111 -88 -209l-207 -244h297v-121h-499v58l323 391q56 70 56 125q0 54 -39.5 89.5t-96.5 35.5q-54 0 -95 -36.5t-50 -96.5z" />
    <glyph glyph-name="three.numr" horiz-adv-x="657" 
d="M49 684l103 59q18 -40 66 -69t93 -29q63 0 105 33.5t43 89.5q3 55 -32.5 95t-94.5 40h-115v117h96q38 0 66.5 24.5t36.5 59.5q6 53 -24 88t-91 35q-70 0 -121 -74l-92 74q36 59 100.5 92t137.5 29q100 -4 164 -70.5t61 -155.5q0 -90 -84 -155q115 -59 115 -197
q0 -116 -81.5 -181t-197.5 -65q-74 0 -148 45.5t-106 114.5z" />
    <glyph glyph-name="four.numr" horiz-adv-x="739" 
d="M33 694l446 643h90v-528h115v-115h-115v-162h-120v162h-416zM242 809h207v307z" />
    <glyph glyph-name="five.numr" horiz-adv-x="696" 
d="M55 690l101 72q22 -58 72 -90.5t108 -32.5q81 0 128.5 44.5t47.5 109.5q0 67 -46.5 103t-107.5 36q-94 0 -227 -68l-37 47l72 424h412v-114h-312q-6 -35 -18.5 -98.5t-18.5 -98.5q65 27 129 27q115 0 194 -68t79 -190q0 -124 -81 -198.5t-214 -74.5q-87 0 -164.5 45
t-116.5 125z" />
    <glyph glyph-name="six.numr" horiz-adv-x="692" 
d="M84 795q-1 41 -3 90.5t5 103t16.5 104.5t32.5 97.5t53.5 81t78.5 54t108 17.5q50 -2 90 -15t81 -50t68 -98l-108 -45q-46 94 -131 94q-78 0 -126 -76t-46 -195q50 97 164 97q110 0 182 -84t69 -197q-6 -111 -84.5 -185.5t-187.5 -70.5q-109 5 -180.5 79t-81.5 198z
M209 793q0 -63 41.5 -106.5t101.5 -45.5q59 -3 101 37.5t45 101.5q3 63 -35.5 106.5t-97.5 45.5q-63 2 -108 -38t-48 -101z" />
    <glyph glyph-name="seven.numr" horiz-adv-x="659" 
d="M57 532l375 685h-356v120h563l-440 -805h-142z" />
    <glyph glyph-name="eight.numr" horiz-adv-x="700" 
d="M72 784q0 68 29.5 124t84.5 91q-53 56 -53 138q0 89 62 150t155 61t157 -61.5t64 -149.5q0 -76 -59 -138q53 -34 85 -91.5t32 -123.5q0 -110 -80.5 -186t-198.5 -76q-119 0 -198.5 75.5t-79.5 186.5zM193 784q0 -59 45 -101t112 -42q66 0 112 42t46 101q0 61 -46.5 107.5
t-111.5 46.5h-8q-63 0 -106 -47t-43 -107zM254 1137q0 -36 25.5 -65t64.5 -32h10q40 3 67.5 32t27.5 65q0 37 -29 63.5t-70 26.5t-68.5 -26.5t-27.5 -63.5z" />
    <glyph glyph-name="nine.numr" horiz-adv-x="690" 
d="M74 1090q6 111 84.5 185.5t187.5 70.5q109 -5 180.5 -79t81.5 -198q1 -41 3 -90.5t-5 -103t-16.5 -105t-32.5 -97.5t-53.5 -81t-78.5 -54.5t-108 -17.5q-50 2 -90 15t-81 50.5t-68 98.5l108 45q46 -94 131 -94q78 0 126 75.5t46 194.5q-49 -96 -163 -96q-110 0 -182.5 84
t-69.5 197zM195 1083q-3 -63 35.5 -106t97.5 -45q63 -2 107.5 38t47.5 101q0 63 -41.5 106.5t-101.5 45.5q-59 3 -100.5 -38t-44.5 -102z" />
    <glyph glyph-name="zero.dnom" horiz-adv-x="745" 
d="M80 399q0 73 8 132.5t28.5 113.5t53 90.5t84 58t119.5 21.5t119.5 -21.5t84 -58t53 -90.5t28.5 -113.5t8 -132.5q0 -90 -13.5 -159.5t-45 -128t-91 -90t-143.5 -31.5t-143.5 31.5t-91 90t-45 128t-13.5 159.5zM201 399q0 -65 7.5 -114t26 -90.5t53.5 -63.5t85 -22t85 22
t53.5 63.5t26 90.5t7.5 114t-7.5 115t-26 92.5t-53.5 65t-85 22.5t-85 -22.5t-53.5 -65t-26 -92.5t-7.5 -115z" />
    <glyph glyph-name="one.dnom" horiz-adv-x="428" 
d="M53 553v117l262 143v-813h-122v625z" />
    <glyph glyph-name="two.dnom" horiz-adv-x="653" 
d="M63 594q15 99 86.5 160t167.5 61q107 0 180.5 -68t73.5 -174q0 -110 -88 -208l-207 -244h297v-121h-499v57l323 392q56 70 56 124t-39.5 89.5t-96.5 35.5q-54 0 -95 -36.5t-50 -96.5z" />
    <glyph glyph-name="three.dnom" horiz-adv-x="657" 
d="M49 152l103 59q18 -40 66 -69t93 -29q63 0 105 33.5t43 89.5q3 55 -32.5 95t-94.5 40h-115v116h96q38 0 66.5 24.5t36.5 59.5q6 53 -24 88t-91 35q-71 0 -121 -73l-92 73q36 59 100.5 92t137.5 29q100 -4 164 -70t61 -155q0 -91 -84 -156q115 -59 115 -196
q0 -116 -81.5 -181t-197.5 -65q-74 0 -148 45.5t-106 114.5z" />
    <glyph glyph-name="four.dnom" horiz-adv-x="739" 
d="M33 162l446 643h90v-529h115v-114h-115v-162h-120v162h-416zM242 276h207v308z" />
    <glyph glyph-name="five.dnom" horiz-adv-x="696" 
d="M55 158l101 71q22 -58 72 -90.5t108 -32.5q81 0 128.5 44.5t47.5 109.5q0 67 -46.5 103t-107.5 36q-96 0 -227 -67l-37 47l72 424h412v-115h-312q-6 -35 -18.5 -98t-18.5 -98q62 26 129 26q115 0 194 -68t79 -190q0 -124 -81 -198t-214 -74q-87 0 -164.5 45t-116.5 125z
" />
    <glyph glyph-name="six.dnom" horiz-adv-x="692" 
d="M84 262q-1 41 -3 90.5t5 103t16.5 105t32.5 97.5t53.5 81t78.5 54.5t108 17.5q50 -2 90 -15t81 -50.5t68 -98.5l-108 -45q-46 94 -131 94q-78 0 -126 -75.5t-46 -194.5q49 96 164 96q110 0 182 -83.5t69 -196.5q-6 -111 -84.5 -185.5t-187.5 -70.5q-109 5 -180.5 78.5
t-81.5 197.5zM209 260q0 -63 41.5 -106t101.5 -45q59 -3 101 37.5t45 101.5q3 63 -35.5 106t-97.5 45q-63 2 -108 -38t-48 -101z" />
    <glyph glyph-name="seven.dnom" horiz-adv-x="657" 
d="M57 0l375 684h-356v121h563l-440 -805h-142z" />
    <glyph glyph-name="eight.dnom" horiz-adv-x="700" 
d="M72 252q0 68 29.5 124t84.5 91q-53 56 -53 137q0 89 62 150t155 61t157 -61.5t64 -149.5q0 -75 -59 -137q53 -34 85 -91.5t32 -123.5q0 -110 -80.5 -186t-198.5 -76q-119 0 -198.5 75.5t-79.5 186.5zM193 252q0 -59 45 -101t112 -42q66 0 112 42t46 101q0 61 -46.5 107.5
t-111.5 46.5h-8q-63 0 -106 -47t-43 -107zM254 604q0 -36 25.5 -64.5t64.5 -31.5h10q40 3 67.5 31.5t27.5 64.5q0 37 -29 63.5t-70 26.5t-68.5 -26.5t-27.5 -63.5z" />
    <glyph glyph-name="nine.dnom" horiz-adv-x="690" 
d="M74 557q6 111 84.5 185.5t187.5 70.5q109 -5 180.5 -78.5t81.5 -197.5q1 -41 3 -90.5t-5 -103t-16.5 -105t-32.5 -97.5t-53.5 -81t-78.5 -54.5t-108 -17.5q-50 2 -90 15t-81 50.5t-68 98.5l108 45q46 -95 131 -95q78 0 126 76t46 195q-50 -97 -163 -97q-110 0 -182.5 84
t-69.5 197zM195 551q-3 -63 35.5 -106.5t97.5 -45.5q63 -2 107.5 38.5t47.5 101.5q0 63 -41.5 106t-101.5 45q-59 3 -100.5 -37.5t-44.5 -101.5z" />
    <glyph glyph-name="l.alt1" horiz-adv-x="571" 
d="M143 410v1067h189v-1065q-1 -37 2 -67t13 -63.5t28 -55.5t51 -37t78 -15h63v-174h-80q-344 0 -344 410z" />
    <glyph glyph-name="a.alt1" horiz-adv-x="1105" 
d="M82 276q0 134 99.5 218t310.5 84q121 0 286 -52v49q0 106 -70.5 170t-195.5 64q-71 0 -144.5 -33t-123.5 -90l-115 111q48 68 121.5 110.5t139 56t136.5 13.5q207 0 322 -103.5t115 -298.5v-122v-453h-185v123q-49 -69 -144 -106t-192 -37q-164 0 -262 79t-98 217z
M258 276q0 -57 48 -94t140 -37q85 0 184 42.5t146 119.5v70q-68 24 -149.5 36.5t-134.5 12.5q-70 0 -119 -14t-72.5 -38t-33 -47.5t-9.5 -50.5z" />
    <glyph glyph-name="y.alt1" horiz-adv-x="1040" 
d="M37 -299q37 -6 108 -6q86 0 130 46.5t92 160.5l53 127l-383 927h199l284 -688l287 688h199l-469 -1126q-75 -169 -158 -238t-229 -69q-61 0 -113 14v164z" />
    <glyph glyph-name="lslash.alt1" horiz-adv-x="593" 
d="M27 565v131l135 86v695h188v-574l156 101v-132l-156 -100v-360q-1 -37 2 -67t13 -63.5t28 -55.5t51 -37t78 -15h64v-174h-80q-344 0 -344 410v241z" />
    <glyph glyph-name="lacute.alt1" horiz-adv-x="571" 
d="M143 410v1067h189v-1065q-1 -37 2 -67t13 -63.5t28 -55.5t51 -37t78 -15h63v-174h-80q-344 0 -344 410zM145 1591l199 316h223l-243 -316h-179z" />
    <glyph glyph-name="lcommaaccent.alt1" horiz-adv-x="571" 
d="M143 410v1067h189v-1065q-1 -37 2 -67t13 -63.5t28 -55.5t51 -37t78 -15h63v-174h-80q-344 0 -344 410zM225 -473q62 85 83.5 159t10.5 197h185q2 -263 -160 -395z" />
    <glyph glyph-name="lcaron.alt1" horiz-adv-x="571" 
d="M143 410v1067h189v-1065q-1 -37 2 -67t13 -63.5t28 -55.5t51 -37t78 -15h63v-174h-80q-344 0 -344 410zM418 1120q62 85 83.5 159.5t10.5 197.5h184q3 -265 -159 -396z" />
    <glyph glyph-name="aacute.alt1" horiz-adv-x="1105" 
d="M82 276q0 134 99.5 218t310.5 84q121 0 286 -52v49q0 106 -70.5 170t-195.5 64q-71 0 -144.5 -33t-123.5 -90l-115 111q48 68 121.5 110.5t139 56t136.5 13.5q207 0 322 -103.5t115 -298.5v-122v-453h-185v123q-49 -69 -144 -106t-192 -37q-164 0 -262 79t-98 217z
M258 276q0 -57 48 -94t140 -37q85 0 184 42.5t146 119.5v70q-68 24 -149.5 36.5t-134.5 12.5q-70 0 -119 -14t-72.5 -38t-33 -47.5t-9.5 -50.5zM426 1135l199 315h223l-244 -315h-178z" />
    <glyph glyph-name="agrave.alt1" horiz-adv-x="1105" 
d="M82 276q0 134 99.5 218t310.5 84q121 0 286 -52v49q0 106 -70.5 170t-195.5 64q-71 0 -144.5 -33t-123.5 -90l-115 111q48 68 121.5 110.5t139 56t136.5 13.5q207 0 322 -103.5t115 -298.5v-122v-453h-185v123q-49 -69 -144 -106t-192 -37q-164 0 -262 79t-98 217z
M227 1450h224l198 -315h-178zM258 276q0 -57 48 -94t140 -37q85 0 184 42.5t146 119.5v70q-68 24 -149.5 36.5t-134.5 12.5q-70 0 -119 -14t-72.5 -38t-33 -47.5t-9.5 -50.5z" />
    <glyph glyph-name="acircumflex.alt1" horiz-adv-x="1105" 
d="M82 276q0 134 99.5 218t310.5 84q121 0 286 -52v49q0 106 -70.5 170t-195.5 64q-71 0 -144.5 -33t-123.5 -90l-115 111q48 68 121.5 110.5t139 56t136.5 13.5q207 0 322 -103.5t115 -298.5v-122v-453h-185v123q-49 -69 -144 -106t-192 -37q-164 0 -262 79t-98 217z
M201 1135l225 315h190l226 -315h-168l-154 178l-151 -178h-168zM258 276q0 -57 48 -94t140 -37q85 0 184 42.5t146 119.5v70q-68 24 -149.5 36.5t-134.5 12.5q-70 0 -119 -14t-72.5 -38t-33 -47.5t-9.5 -50.5z" />
    <glyph glyph-name="adieresis.alt1" horiz-adv-x="1105" 
d="M82 276q0 134 99.5 218t310.5 84q121 0 286 -52v49q0 106 -70.5 170t-195.5 64q-71 0 -144.5 -33t-123.5 -90l-115 111q48 68 121.5 110.5t139 56t136.5 13.5q207 0 322 -103.5t115 -298.5v-122v-453h-185v123q-49 -69 -144 -106t-192 -37q-164 0 -262 79t-98 217z
M248 1290q0 52 37 86.5t90 34.5q52 0 88.5 -34.5t36.5 -86.5t-36.5 -86.5t-88.5 -34.5q-53 0 -90 34.5t-37 86.5zM258 276q0 -57 48 -94t140 -37q85 0 184 42.5t146 119.5v70q-68 24 -149.5 36.5t-134.5 12.5q-70 0 -119 -14t-72.5 -38t-33 -47.5t-9.5 -50.5zM594 1290
q0 52 37 86.5t90 34.5t90 -34.5t37 -86.5t-37 -86.5t-90 -34.5t-90 34.5t-37 86.5z" />
    <glyph glyph-name="atilde.alt1" horiz-adv-x="1105" 
d="M82 276q0 134 99.5 218t310.5 84q121 0 286 -52v49q0 106 -70.5 170t-195.5 64q-71 0 -144.5 -33t-123.5 -90l-115 111q48 68 121.5 110.5t139 56t136.5 13.5q207 0 322 -103.5t115 -298.5v-122v-453h-185v123q-49 -69 -144 -106t-192 -37q-164 0 -262 79t-98 217z
M248 1159q7 125 59 182.5t121 57.5q26 0 51 -9t34.5 -15.5t33.5 -24.5q45 -35 63 -35q21 0 39 19.5t19 64.5h125q-7 -123 -60.5 -178.5t-122.5 -55.5q-24 0 -48.5 9.5t-35 17.5t-32.5 25q-50 32 -66 32q-19 0 -36.5 -22t-18.5 -68h-125zM258 276q0 -57 48 -94t140 -37
q85 0 184 42.5t146 119.5v70q-68 24 -149.5 36.5t-134.5 12.5q-70 0 -119 -14t-72.5 -38t-33 -47.5t-9.5 -50.5z" />
    <glyph glyph-name="aring.alt1" horiz-adv-x="1105" 
d="M82 276q0 134 99.5 218t310.5 84q121 0 286 -52v49q0 106 -70.5 170t-195.5 64q-71 0 -144.5 -33t-123.5 -90l-115 111q48 68 121.5 110.5t139 56t136.5 13.5q207 0 322 -103.5t115 -298.5v-122v-453h-185v123q-49 -69 -144 -106t-192 -37q-164 0 -262 79t-98 217z
M258 276q0 -57 48 -94t140 -37q85 0 184 42.5t146 119.5v70q-68 24 -149.5 36.5t-134.5 12.5q-70 0 -119 -14t-72.5 -38t-33 -47.5t-9.5 -50.5zM315 1321q0 92 61.5 154.5t151.5 62.5q93 0 156.5 -62.5t63.5 -154.5q0 -89 -64 -151t-156 -62q-89 0 -151 62t-62 151z
M424 1321q0 -43 30.5 -73.5t73.5 -30.5q46 0 78.5 30.5t32.5 73.5q0 46 -32.5 77.5t-78.5 31.5q-43 0 -73.5 -31.5t-30.5 -77.5z" />
    <glyph glyph-name="amacron.alt1" horiz-adv-x="1105" 
d="M82 276q0 134 99.5 218t310.5 84q121 0 286 -52v49q0 106 -70.5 170t-195.5 64q-71 0 -144.5 -33t-123.5 -90l-115 111q48 68 121.5 110.5t139 56t136.5 13.5q207 0 322 -103.5t115 -298.5v-122v-453h-185v123q-49 -69 -144 -106t-192 -37q-164 0 -262 79t-98 217z
M258 276q0 -57 48 -94t140 -37q85 0 184 42.5t146 119.5v70q-68 24 -149.5 36.5t-134.5 12.5q-70 0 -119 -14t-72.5 -38t-33 -47.5t-9.5 -50.5zM281 1188v164h516v-164h-516z" />
    <glyph glyph-name="abreve.alt1" horiz-adv-x="1105" 
d="M82 276q0 134 99.5 218t310.5 84q121 0 286 -52v49q0 106 -70.5 170t-195.5 64q-71 0 -144.5 -33t-123.5 -90l-115 111q48 68 121.5 110.5t139 56t136.5 13.5q207 0 322 -103.5t115 -298.5v-122v-453h-185v123q-49 -69 -144 -106t-192 -37q-164 0 -262 79t-98 217z
M258 276q0 -57 48 -94t140 -37q85 0 184 42.5t146 119.5v70q-68 24 -149.5 36.5t-134.5 12.5q-70 0 -119 -14t-72.5 -38t-33 -47.5t-9.5 -50.5zM283 1399h151q0 -54 31 -87.5t84 -33.5q51 0 82 37.5t31 83.5h155q0 -121 -73 -191.5t-195 -70.5q-132 0 -199 75.5t-67 186.5z
" />
    <glyph glyph-name="aogonek.alt1" horiz-adv-x="1105" 
d="M82 276q0 134 99.5 218t310.5 84q121 0 286 -52v49q0 106 -70.5 170t-195.5 64q-71 0 -144.5 -33t-123.5 -90l-115 111q48 68 121.5 110.5t139 56t136.5 13.5q207 0 322 -103.5t115 -298.5v-575h-72l-64 -178q-12 -32 -0.5 -64t41.5 -45q31 -9 60.5 4t42.5 43
q2 4 3.5 10.5t2 12.5t0.5 11v8v3l131 9q0 -52 -21 -101q-26 -61 -75.5 -96t-108.5 -35q-41 0 -80 17q-61 26 -95 76.5t-34 111.5q0 45 17 86l67 127v123q-49 -69 -144 -106t-192 -37q-164 0 -262 79t-98 217zM258 276q0 -57 48 -94t140 -37q85 0 184 42.5t146 119.5v70
q-68 24 -149.5 36.5t-134.5 12.5q-70 0 -119 -14t-72.5 -38t-33 -47.5t-9.5 -50.5z" />
    <glyph glyph-name="yacute.alt1" horiz-adv-x="1040" 
d="M37 -299q37 -6 108 -6q86 0 130 46.5t92 160.5l53 127l-383 927h199l284 -688l287 688h199l-469 -1126q-75 -169 -158 -238t-229 -69q-61 0 -113 14v164zM406 1135l198 315h223l-243 -315h-178z" />
    <glyph glyph-name="ydieresis.alt1" horiz-adv-x="1040" 
d="M37 -299q37 -6 108 -6q86 0 130 46.5t92 160.5l53 127l-383 927h199l284 -688l287 688h199l-469 -1126q-75 -169 -158 -238t-229 -69q-61 0 -113 14v164zM229 1290q0 52 37 86.5t90 34.5q52 0 88.5 -34.5t36.5 -86.5t-36.5 -86.5t-88.5 -34.5q-53 0 -90 34.5t-37 86.5z
M575 1290q0 52 37 86.5t90 34.5t90 -34.5t37 -86.5t-37 -86.5t-90 -34.5t-90 34.5t-37 86.5z" />
    <glyph glyph-name="ae.alt1" horiz-adv-x="1822" 
d="M82 276q0 134 99.5 218t310.5 84q121 0 286 -52v49q0 106 -70.5 170t-195.5 64q-71 0 -144.5 -33t-123.5 -90l-115 111q48 68 121.5 110.5t139 56t136.5 13.5q260 0 369 -158q68 76 163.5 117t207.5 41q207 0 341 -136t134 -360q0 -53 -2 -73h-776q17 -119 102 -190
t207 -71q87 0 161 39t113 109q28 -11 86 -33.5t74 -28.5q-60 -122 -178.5 -187.5t-261.5 -65.5q-175 0 -303 98v-78h-185v123q-49 -69 -144 -106t-192 -37q-164 0 -262 79t-98 217zM258 276q0 -57 48 -94t140 -37q85 0 184 42.5t146 119.5v70q-68 24 -149.5 36.5
t-134.5 12.5q-70 0 -119 -14t-72.5 -38t-33 -47.5t-9.5 -50.5zM963 553h593q-17 119 -95.5 187.5t-194.5 68.5q-120 0 -203 -68.5t-100 -187.5z" />
    <glyph glyph-name="aeacute.alt1" horiz-adv-x="1822" 
d="M82 276q0 134 99.5 218t310.5 84q121 0 286 -52v49q0 106 -70.5 170t-195.5 64q-71 0 -144.5 -33t-123.5 -90l-115 111q48 68 121.5 110.5t139 56t136.5 13.5q260 0 369 -158q68 76 163.5 117t207.5 41q207 0 341 -136t134 -360q0 -53 -2 -73h-776q17 -119 102 -190
t207 -71q87 0 161 39t113 109q28 -11 86 -33.5t74 -28.5q-60 -122 -178.5 -187.5t-261.5 -65.5q-175 0 -303 98v-78h-185v123q-49 -69 -144 -106t-192 -37q-164 0 -262 79t-98 217zM258 276q0 -57 48 -94t140 -37q85 0 184 42.5t146 119.5v70q-68 24 -149.5 36.5
t-134.5 12.5q-70 0 -119 -14t-72.5 -38t-33 -47.5t-9.5 -50.5zM831 1135l199 315h223l-243 -315h-179zM963 553h593q-17 119 -95.5 187.5t-194.5 68.5q-120 0 -203 -68.5t-100 -187.5z" />
    <glyph glyph-name="ycircumflex.alt1" horiz-adv-x="1040" 
d="M37 -299q37 -6 108 -6q86 0 130 46.5t92 160.5l53 127l-383 927h199l284 -688l287 688h199l-469 -1126q-75 -169 -158 -238t-229 -69q-61 0 -113 14v164zM197 1135l225 315h190l226 -315h-168l-154 178l-151 -178h-168z" />
    <glyph glyph-name="ldot.alt1" horiz-adv-x="694" 
d="M143 410v1067h189v-1065q-1 -37 2 -67t13 -63.5t28 -55.5t51 -37t78 -15h63v-174h-80q-344 0 -344 410zM444 535q0 55 39.5 92t94.5 37q56 0 95.5 -37t39.5 -92t-39.5 -91t-95.5 -36q-55 0 -94.5 36t-39.5 91z" />
    <glyph glyph-name="t.alt1" horiz-adv-x="718" 
d="M57 799v157h172v256l189 58v-314h200v-157h-200v-387q-1 -37 2 -67t13 -63.5t28 -55.5t51 -37t78 -15h55v-174h-72q-344 0 -344 410v389h-172z" />
    <glyph glyph-name="tcaron.alt1" horiz-adv-x="718" 
d="M57 799v157h172v256l189 58v-314h200v-157h-200v-387q-1 -37 2 -67t13 -63.5t28 -55.5t51 -37t78 -15h55v-174h-72q-344 0 -344 410v389h-172zM496 1120q62 85 83.5 159.5t10.5 197.5h184q3 -264 -160 -396z" />
    <glyph glyph-name="tbar.alt1" horiz-adv-x="722" 
d="M61 799v157h172v256l189 58v-314h201v-157h-201v-211h153v-125h-153v-51q-1 -37 2 -67t13 -63.5t28 -55.5t51 -37t78 -15h55v-174h-71q-345 0 -345 410v53h-139v125h139v211h-172z" />
    <glyph glyph-name="tcommaaccent.alt1" horiz-adv-x="718" 
d="M57 799v157h172v256l189 58v-314h200v-157h-200v-387q-1 -37 2 -67t13 -63.5t28 -55.5t51 -37t78 -15h55v-174h-72q-344 0 -344 410v389h-172zM276 -473q63 85 84.5 159t10.5 197h184q2 -263 -160 -395z" />
    <glyph glyph-name="T.sc.alt1" horiz-adv-x="987" 
d="M47 1034v162h893v-162h-360v-1034h-174v1034h-359z" />
    <glyph glyph-name="Tcaron.sc.alt1" horiz-adv-x="987" 
d="M47 1034v162h893v-162h-360v-1034h-174v1034h-359zM211 1610h156l127 -146l124 146h156l-201 -275h-163z" />
    <glyph glyph-name="Tbar.sc.alt1" horiz-adv-x="989" 
d="M45 1026v170h899v-170h-364v-309h229v-117h-229v-600h-172v600h-226v117h226v309h-363z" />
    <glyph glyph-name="Tcommaaccent.sc.alt1" horiz-adv-x="987" 
d="M47 1034v162h893v-162h-360v-1034h-174v1034h-359zM319 -395q47 66 68 117t21 120q0 12 -5 74h166q3 -230 -139 -346z" />
    <glyph glyph-name="aringacute.alt1" horiz-adv-x="1105" 
d="M82 276q0 134 99.5 218t310.5 84q121 0 286 -52v49q0 106 -70.5 170t-195.5 64q-71 0 -144.5 -33t-123.5 -90l-115 111q48 68 121.5 110.5t139 56t136.5 13.5q207 0 322 -103.5t115 -298.5v-122v-453h-185v123q-49 -69 -144 -106t-192 -37q-164 0 -262 79t-98 217z
M258 276q0 -57 48 -94t140 -37q85 0 184 42.5t146 119.5v70q-123 43 -284 43q-70 0 -119 -13t-72.5 -36t-33 -45.5t-9.5 -49.5zM324 1305q0 73 41 129.5t106 76.5l160 252h223l-209 -270q52 -28 81.5 -77.5t29.5 -110.5q0 -89 -63.5 -151t-155.5 -62q-89 0 -151 62t-62 151z
M432 1305q0 -43 31 -74t74 -31q46 0 78 31t32 74q0 46 -32 77t-78 31q-43 0 -74 -31.5t-31 -76.5z" />
    </font>
</defs>
</svg>
